<svg width="40" height="39" viewBox="0 0 40 39" fill="none" xmlns="http://www.w3.org/2000/svg">
<g style="mix-blend-mode:hard-light" opacity="0.6">
<path d="M29.6627 37.0855C30.751 37.9037 32.253 37.8895 33.3257 37.0509L36.9306 34.2324C38.4826 33.019 38.47 30.6665 36.905 29.4698L21.9536 18.037C20.877 17.2138 19.3831 17.2115 18.304 18.0313L3.10945 29.5762C1.53783 30.7703 1.52146 33.1285 3.07634 34.3443L6.6806 37.1626C7.74863 37.9978 9.24316 38.0159 10.3311 37.2068L18.3248 31.2622C19.3957 30.4658 20.8632 30.4697 21.93 31.2717L29.6627 37.0855Z" fill="url(#paint0_linear_3001_53800)"/>
</g>
<g style="mix-blend-mode:hard-light" opacity="0.6">
<path d="M29.7342 19.2904C30.7929 20.0395 32.2124 20.0264 33.257 19.2577L36.666 16.7492C38.3115 15.5384 38.2985 13.0749 36.6403 11.8815L21.8837 1.26142C20.836 0.50745 19.4243 0.505318 18.3744 1.25612L3.37505 11.9823C1.71018 13.1728 1.69333 15.642 3.34179 16.8552L6.74885 19.3626C7.78887 20.128 9.20121 20.1448 10.2591 19.4043L18.3954 13.7096C19.4364 12.981 20.8229 12.9846 21.8602 13.7186L29.7342 19.2904Z" fill="url(#paint1_linear_3001_53800)"/>
</g>
<defs>
<linearGradient id="paint0_linear_3001_53800" x1="19.9988" y1="16.6432" x2="19.9988" y2="38.5767" gradientUnits="userSpaceOnUse">
<stop stop-color="#1AE5BE"/>
<stop offset="1" stop-color="#467AFF" stop-opacity="0"/>
</linearGradient>
<linearGradient id="paint1_linear_3001_53800" x1="19.9988" y1="3.30521e-07" x2="19.9988" y2="20.6432" gradientUnits="userSpaceOnUse">
<stop stop-color="#1AE5BE"/>
<stop offset="1" stop-color="#467AFF" stop-opacity="0"/>
</linearGradient>
</defs>
</svg>
