<svg width="40" height="39" viewBox="0 0 40 39" fill="none" xmlns="http://www.w3.org/2000/svg">
<path opacity="0.6" d="M30.0952 36.7137C30.9341 37.3073 32.0589 37.2969 32.8866 36.6878L36.2956 34.1793C37.5995 33.2198 37.5892 31.2679 36.2752 30.3222L21.5186 19.7021C20.6885 19.1047 19.5698 19.103 18.7379 19.6979L3.73858 30.4241C2.41937 31.3675 2.40601 33.324 3.71223 34.2853L7.11928 36.7927C7.94337 37.3992 9.06249 37.4125 9.90077 36.8258L18.037 31.1311C19.2942 30.2512 20.9686 30.2555 22.2212 31.1419L30.0952 36.7137Z"  stroke="url(#paint0_linear_3001_53796)" stroke-width="1.24992"/>
<path opacity="0.6" d="M30.0382 19.9427C30.9006 20.5911 32.0908 20.5798 32.9407 19.9153L36.5457 17.0968C37.7755 16.1353 37.7655 14.2712 36.5254 13.323L21.5739 1.89016C20.7209 1.23787 19.5371 1.23605 18.6821 1.88571L3.48754 13.4306C2.24222 14.3768 2.22925 16.2453 3.4613 17.2087L7.06557 20.0271C7.91186 20.6888 9.0961 20.7032 9.95815 20.0621L17.9518 14.1175C19.2451 13.1557 21.0173 13.1604 22.3056 14.1289L30.0382 19.9427Z"  stroke="url(#paint1_linear_3001_53796)" stroke-width="1.24992"/>
<defs>
<linearGradient id="paint0_linear_3001_53796" x1="40.0114" y1="17.8075" x2="-0.442899" y2="18.6331" gradientUnits="userSpaceOnUse">
<stop stop-color="#1AE5BE"/>
<stop offset="1" stop-color="#35BAC6"/>
<stop offset="1" stop-color="#35BAC6"/>
</linearGradient>
<linearGradient id="paint1_linear_3001_53796" x1="40.0114" y1="-0.133879" x2="-0.444833" y2="0.64321" gradientUnits="userSpaceOnUse">
<stop stop-color="#1AE5BE"/>
<stop offset="1" stop-color="#35BAC6"/>
<stop offset="1" stop-color="#35BAC6"/>
</linearGradient>
</defs>
</svg>
