<svg width="32" height="32" viewBox="0 0 32 32" fill="none" xmlns="http://www.w3.org/2000/svg">
    <g clip-path="url(#clip0_963_426048)">
        <path
            d="M30.6542 8.40891L17.4667 0.418656C16.5621 -0.134344 15.4379 -0.134344 14.5333 0.418656L1.34581 8.40891C0.503564 8.92347 1.30673e-06 9.82066 1.30673e-06 10.8076C-0.000936193 11.7955 0.502626 12.6936 1.34581 13.209L14.5343 21.3243C15.4407 21.8766 16.5603 21.8766 17.4667 21.3243L30.6542 13.209C31.4974 12.6936 32.0009 11.7955 32 10.8076C32 9.82066 31.4964 8.92347 30.6542 8.40891Z"
            fill="#8F76FA"></path>
        <path
            d="M31.5129 14.8811L18.4444 22.9236C16.9256 23.85 15.0388 23.8289 13.5583 22.9254L0.486626 14.8817C0.183439 15.3349 1.30673e-06 15.2385 1.30673e-06 15.8075C-0.000936193 16.7954 0.502626 17.6935 1.34581 18.2089L14.5343 26.3242C15.4407 26.8765 16.5603 26.8765 17.4667 26.3242L30.6542 18.2089C31.4974 17.6935 32.0009 17.4204 32 16.4325C32 15.8632 31.8164 15.3345 31.5129 14.8811Z"
            fill="#8F76FA"></path>
        <path
            d="M31.5129 19.8811L18.4444 27.9236C16.9398 28.8417 15.0636 28.8424 13.5583 27.9254L0.487064 19.8812C0.183564 20.3345 1.30673e-06 20.4959 1.30673e-06 21.0652C-0.000936193 22.0531 0.502626 22.9512 1.34581 23.4667L14.5343 31.5819C15.4407 32.1342 16.5603 32.1342 17.4667 31.5819L30.6542 23.4666C31.4974 22.9512 32.0009 22.053 32 21.0652C32 20.4959 31.8164 20.3345 31.5129 19.8811Z"
            fill="#8F76FA"></path>
        <path
            d="M15.9979 13.8517L13.3771 15.4236L15.9979 17L18.6201 15.4236L15.9979 13.8517ZM12.618 9.18537L15.9979 7.15397L19.3778 9.18537L22 7.60552L15.9979 4L10 7.60552L12.618 9.18537ZM22 12.3325L15.9979 8.72696L10 12.3325L12.6208 13.9089L16.0007 11.8786L19.3806 13.9089L22 12.3325Z"
            fill="#F3F0FF"></path>
    </g>
    <defs>
        <clipPath id="clip0_963_426048">
            <rect width="32" height="32" fill="white"></rect>
        </clipPath>
    </defs>
</svg>