<svg width="17" height="17" viewBox="0 0 17 17" fill="#2B2B2B" xmlns="http://www.w3.org/2000/svg">
    <path
        d="M8.93735 1.46105C9.04743 1.33394 9.18374 1.22824 9.33838 1.15007C9.49303 1.0719 9.66294 1.02281 9.83828 1.00564C10.0136 0.98848 10.1909 1.00358 10.3599 1.05007C10.5289 1.09656 10.6862 1.17351 10.8227 1.27648L15.172 4.55432C15.4112 4.73454 15.5752 4.98579 15.636 5.26516C15.6968 5.54454 15.6506 5.83473 15.5054 6.08619C15.1251 5.97895 14.7296 5.92462 14.332 5.92501H13.932L14.3294 5.50666L12.0387 3.78039L10.1494 5.92624H8.43069L11.0054 3.00276L9.97869 2.22883L6.78135 5.92501H5.07469L8.93735 1.46105ZM12.332 12.0771C12.1552 12.0771 11.9856 12.1419 11.8606 12.2573C11.7356 12.3727 11.6654 12.5291 11.6654 12.6923C11.6654 12.8555 11.7356 13.012 11.8606 13.1273C11.9856 13.2427 12.1552 13.3075 12.332 13.3075H13.6654C13.8422 13.3075 14.0117 13.2427 14.1368 13.1273C14.2618 13.012 14.332 12.8555 14.332 12.6923C14.332 12.5291 14.2618 12.3727 14.1368 12.2573C14.0117 12.1419 13.8422 12.0771 13.6654 12.0771H12.332ZM2.33202 6.54022C2.33202 6.37705 2.40226 6.22057 2.52728 6.1052C2.65231 5.98982 2.82188 5.92501 2.99869 5.92501H3.74269L4.80269 4.69459H2.99869C2.46825 4.69459 1.95955 4.88904 1.58447 5.23516C1.2094 5.58128 0.998688 6.05072 0.998688 6.54022V13.9227C0.998688 14.7385 1.34988 15.521 1.975 16.0978C2.60012 16.6747 3.44797 16.9988 4.33202 16.9988H14.332C15.0393 16.9988 15.7175 16.7395 16.2176 16.278C16.7177 15.8165 16.9987 15.1906 16.9987 14.5379V9.61626C16.9987 8.96361 16.7177 8.33769 16.2176 7.87619C15.7175 7.41469 15.0393 7.15543 14.332 7.15543H2.99869C2.82188 7.15543 2.65231 7.09061 2.52728 6.97523C2.40226 6.85986 2.33202 6.70338 2.33202 6.54022ZM2.33202 13.9227V8.28126C2.54002 8.34893 2.76535 8.38584 2.99869 8.38584H14.332C14.6856 8.38584 15.0248 8.51548 15.2748 8.74623C15.5249 8.97697 15.6654 9.28994 15.6654 9.61626V14.5379C15.6654 14.8643 15.5249 15.1772 15.2748 15.408C15.0248 15.6387 14.6856 15.7684 14.332 15.7684H4.33202C3.80159 15.7684 3.29288 15.5739 2.91781 15.2278C2.54273 14.8817 2.33202 14.4122 2.33202 13.9227Z" />
</svg>