<svg width="74" height="74" viewBox="0 0 74 74" fill="none" xmlns="http://www.w3.org/2000/svg">
    <path
        d="M58.075 17.8H42.275V2C42.275 1.50272 42.0775 1.02581 41.7258 0.674175C41.3742 0.322544 40.8973 0.125 40.4 0.125H6.375C4.7174 0.125 3.12769 0.78348 1.95558 1.95558C0.78348 3.12769 0.125 4.7174 0.125 6.375V67.625C0.125 69.2826 0.78348 70.8723 1.95558 72.0444C3.12769 73.2165 4.7174 73.875 6.375 73.875H58.075C58.5723 73.875 59.0492 73.6775 59.4008 73.3258C59.7525 72.9742 59.95 72.4973 59.95 72V19.675C59.95 19.1777 59.7525 18.7008 59.4008 18.3492C59.0492 17.9975 58.5723 17.8 58.075 17.8Z"
        fill="#9CFFEC" />
    <path
        d="M58.075 21.55C58.3832 21.5506 58.6867 21.4751 58.9588 21.3304C59.2308 21.1857 59.463 20.9761 59.6348 20.7203C59.8066 20.4645 59.9127 20.1703 59.9437 19.8637C59.9747 19.5571 59.9296 19.2476 59.8125 18.9625C59.6962 18.6902 59.5212 18.4469 59.3 18.25L41.7125 0.675036C41.5393 0.499674 41.333 0.360443 41.1055 0.265417C40.8781 0.170391 40.634 0.12146 40.3875 0.12146C40.141 0.12146 39.897 0.170391 39.6695 0.265417C39.4421 0.360443 39.2358 0.499674 39.0625 0.675036C38.8707 0.869341 38.7233 1.10296 38.6305 1.35977C38.5377 1.61658 38.5017 1.89047 38.525 2.16254V19.6625C38.525 20.1598 38.7226 20.6367 39.0742 20.9884C39.4258 21.34 39.9028 21.5375 40.4 21.5375H58.075V21.55Z"
        fill="#1AE5BE" />
    <path
        d="M57.675 41.4625C54.4611 41.4625 51.3193 42.4156 48.647 44.2011C45.9747 45.9867 43.8919 48.5246 42.662 51.4939C41.432 54.4632 41.1102 57.7306 41.7372 60.8827C42.3642 64.0349 43.9119 66.9304 46.1845 69.203C48.4571 71.4756 51.3526 73.0233 54.5048 73.6503C57.657 74.2773 60.9243 73.9555 63.8936 72.7256C66.8629 71.4956 69.4008 69.4128 71.1864 66.7405C72.9719 64.0682 73.925 60.9265 73.925 57.7125C73.925 55.5785 73.5047 53.4655 72.688 51.4939C71.8714 49.5224 70.6744 47.731 69.1655 46.222C67.6565 44.7131 65.8651 43.5161 63.8936 42.6995C61.9221 41.8828 59.809 41.4625 57.675 41.4625Z"
        fill="#1AE5BE" />
    <path
        d="M64.3 55.7501H59.5V51.0376C59.5 50.5403 59.3024 50.0634 58.9508 49.7118C58.5992 49.3601 58.1223 49.1626 57.625 49.1626C57.1277 49.1626 56.6508 49.3601 56.2991 49.7118C55.9475 50.0634 55.75 50.5403 55.75 51.0376V55.7501H51.0375C50.5402 55.7501 50.0633 55.9476 49.7116 56.2993C49.36 56.6509 49.1625 57.1278 49.1625 57.6251C49.1625 58.1224 49.36 58.5993 49.7116 58.9509C50.0633 59.3026 50.5402 59.5001 51.0375 59.5001H55.75V64.2501C55.75 64.7474 55.9475 65.2243 56.2991 65.5759C56.6508 65.9276 57.1277 66.1251 57.625 66.1251C58.1223 66.1251 58.5992 65.9276 58.9508 65.5759C59.3024 65.2243 59.5 64.7474 59.5 64.2501V59.5001H64.25C64.7473 59.5001 65.2242 59.3026 65.5758 58.9509C65.9274 58.5993 66.125 58.1224 66.125 57.6251C66.125 57.1278 65.9274 56.6509 65.5758 56.2993C65.2242 55.9476 64.7473 55.7501 64.25 55.7501H64.3Z"
        fill="white" />
</svg>