<svg width="10" height="10" viewBox="0 0 10 10" fill="#13BA9A" xmlns="http://www.w3.org/2000/svg">
<path d="M4.74676 9.94071C4.89338 10.0201 5.07741 10.0196 5.22403 9.94021C9.21969 7.7639 9.50346 3.51191 9.49997 2.30291C9.49959 2.20574 9.47127 2.11079 9.41848 2.02969C9.36568 1.94859 9.29071 1.88486 9.20274 1.84631L5.18812 0.0431723C5.12423 0.0146182 5.05516 -8.66905e-05 4.98534 3.84458e-07C4.91552 8.74594e-05 4.84649 0.0149645 4.78267 0.043678L0.795982 1.84682C0.709304 1.88539 0.63539 1.94841 0.583046 2.02838C0.530702 2.10835 0.502134 2.20189 0.500745 2.29785C0.483789 3.50079 0.722671 7.76188 4.74676 9.94071ZM3.34339 4.14549L4.48693 5.30494L6.6279 3.13419L7.33307 3.84918L4.48693 6.73491L2.63822 4.86047L3.34339 4.14549Z" />
</svg>
