<svg width="31" height="32" viewBox="0 0 31 32" fill="none" xmlns="http://www.w3.org/2000/svg">
<path fill-rule="evenodd" clip-rule="evenodd" d="M8.17679 1.66663H22.1388C22.9931 1.66662 23.6822 1.66661 24.2431 1.70701C24.8198 1.74854 25.3297 1.8361 25.8126 2.04723C26.9733 2.5547 27.8954 3.52807 28.3762 4.75321C28.5762 5.26291 28.6591 5.80119 28.6985 6.40993C28.7368 7.00194 28.7368 7.72935 28.7368 8.6311V23.3688C28.7368 24.2706 28.7368 24.998 28.6985 25.59C28.6591 26.1987 28.5762 26.737 28.3762 27.2467C27.8954 28.4718 26.9733 29.4452 25.8126 29.9527C25.3297 30.1638 24.8198 30.2514 24.2431 30.2929C23.6822 30.3333 22.9931 30.3333 22.1388 30.3333H8.17678C7.32249 30.3333 6.63336 30.3333 6.07252 30.2929C5.49581 30.2514 4.98586 30.1638 4.50299 29.9527C3.34233 29.4452 2.42019 28.4718 1.93943 27.2467C1.73942 26.737 1.65646 26.1987 1.61711 25.59C1.57885 24.998 1.57885 24.2706 1.57886 23.3688V8.63111C1.57885 7.72935 1.57885 7.00194 1.61711 6.40993C1.65646 5.80119 1.73942 5.26291 1.93943 4.75321C2.42019 3.52807 3.34233 2.5547 4.50299 2.04723C4.98586 1.8361 5.49581 1.74854 6.07252 1.70701C6.63337 1.66661 7.32249 1.66662 8.17679 1.66663ZM6.20149 3.70237C5.72126 3.73695 5.4416 3.80163 5.22807 3.89499C4.53168 4.19947 3.97839 4.78349 3.68994 5.51858C3.60149 5.74396 3.54022 6.03916 3.50745 6.54607C3.47411 7.06197 3.47359 7.72106 3.47359 8.66663V23.3333C3.47359 24.2789 3.47411 24.9379 3.50745 25.4538C3.54022 25.9608 3.60149 26.256 3.68994 26.4813C3.97839 27.2164 4.53168 27.8004 5.22807 28.1049C5.4416 28.1983 5.72126 28.263 6.20149 28.2976C6.69023 28.3328 7.31464 28.3333 8.21044 28.3333H22.1052C23.001 28.3333 23.6254 28.3328 24.1141 28.2976C24.5943 28.263 24.874 28.1983 25.0875 28.1049C25.7839 27.8004 26.3372 27.2164 26.6257 26.4813C26.7141 26.256 26.7754 25.9608 26.8082 25.4538C26.8415 24.9379 26.842 24.2789 26.842 23.3333V8.66663C26.842 7.72106 26.8415 7.06197 26.8082 6.54607C26.7754 6.03916 26.7141 5.74396 26.6257 5.51858C26.3372 4.78349 25.7839 4.19947 25.0875 3.89499C24.874 3.80163 24.5943 3.73695 24.1141 3.70237C23.6254 3.66717 23.001 3.66663 22.1052 3.66663H8.21044C7.31464 3.66663 6.69023 3.66717 6.20149 3.70237Z" fill="#467AFF"/>
<path fill-rule="evenodd" clip-rule="evenodd" d="M23.3481 11.236C23.7478 11.5923 23.7983 12.2232 23.4607 12.6452L19.6296 17.434C19.4528 17.6551 19.2905 17.858 19.1432 18.0184C18.9852 18.1905 18.7972 18.3675 18.5532 18.4994C18.0267 18.7841 17.4141 18.8341 16.8523 18.6383C16.592 18.5476 16.3805 18.4032 16.1993 18.2588C16.0304 18.1243 15.8405 17.9501 15.6335 17.7604L14.1714 16.4202C13.9669 16.2327 13.8466 16.123 13.7518 16.0468C13.6931 15.9996 13.6655 15.983 13.6582 15.979C13.5885 15.9522 13.5121 15.9522 13.4423 15.979C13.435 15.983 13.4074 15.9996 13.3488 16.0468C13.2539 16.123 13.1336 16.2327 12.9291 16.4202L8.20015 20.7551C7.80511 21.1172 7.20675 21.0727 6.86368 20.6557C6.52061 20.2387 6.56275 19.6071 6.9578 19.245L11.6867 14.9101C11.7131 14.8859 11.7397 14.8615 11.7663 14.8369C12.0725 14.5547 12.3959 14.2566 12.7766 14.1065C13.2755 13.9097 13.825 13.9097 14.3239 14.1065C14.7046 14.2566 15.028 14.5547 15.3342 14.8369C15.3609 14.8615 15.3874 14.8859 15.4138 14.9101L16.8549 16.2311C17.0897 16.4464 17.2301 16.5744 17.3408 16.6625C17.4092 16.7171 17.4418 16.736 17.4505 16.7406C17.5283 16.7665 17.6125 16.7596 17.6856 16.7214C17.6935 16.7154 17.723 16.6914 17.7827 16.6264C17.8791 16.5214 17.9992 16.3721 18.1999 16.1213L22.0131 11.3548C22.3506 10.9329 22.9483 10.8797 23.3481 11.236ZM13.4444 15.978C13.4444 15.978 13.4432 15.9786 13.4423 15.979L13.4444 15.978ZM13.6561 15.9779C13.6561 15.9779 13.6573 15.9785 13.6582 15.979L13.6561 15.9779Z" fill="#467AFF"/>
</svg>
