<svg width="32" height="32" viewBox="0 0 32 32" fill="none" xmlns="http://www.w3.org/2000/svg">
<path d="M29.3333 16C29.3333 12.4637 27.9285 9.07235 25.4281 6.57187C22.9276 4.07138 19.5362 2.66663 16 2.66663C12.4637 2.66663 9.07235 4.07138 6.57187 6.57187C4.07138 9.07235 2.66663 12.4637 2.66663 16" stroke="#8F76FA" stroke-width="2" stroke-linecap="round" stroke-linejoin="round"/>
<path d="M29.3333 15.9999C29.3333 13.7865 27.3866 11.9999 25 11.9999C22.6 11.9999 20.6666 13.7865 20.6666 15.9999C20.6666 13.7865 18.5733 11.9999 16 11.9999C13.4266 11.9999 11.3333 13.7865 11.3333 15.9999C11.3333 13.7865 9.38663 11.9999 6.99996 11.9999C4.59996 11.9999 2.66663 13.7865 2.66663 15.9999" stroke="#8F76FA" stroke-width="2" stroke-linecap="round" stroke-linejoin="round"/>
<path d="M29.3333 15.9999L16 29.3332M20.6666 15.9999L16 29.3332M11.3333 15.9999L16 29.3332M2.66663 15.9999L16 29.3332" stroke="#8F76FA" stroke-width="2" stroke-linecap="round" stroke-linejoin="round"/>
</svg>
