<svg width="18" height="22" viewBox="0 0 18 22" xmlns="http://www.w3.org/2000/svg">
    <rect width="18" height="22" rx="2" fill="white" />
    <path
        d="M5.66667 6.8C6.58714 6.8 7.33333 6.1732 7.33333 5.4C7.33333 4.6268 6.58714 4 5.66667 4C4.74619 4 4 4.6268 4 5.4C4 6.1732 4.74619 6.8 5.66667 6.8Z" />
    <path
        d="M5.66667 18C6.58714 18 7.33333 17.3732 7.33333 16.6C7.33333 15.8268 6.58714 15.2 5.66667 15.2C4.74619 15.2 4 15.8268 4 16.6C4 17.3732 4.74619 18 5.66667 18Z" />
    <path
        d="M12.3334 6.8C13.2538 6.8 14 6.1732 14 5.4C14 4.6268 13.2538 4 12.3334 4C11.4129 4 10.6667 4.6268 10.6667 5.4C10.6667 6.1732 11.4129 6.8 12.3334 6.8Z" />
    <path
        d="M12.3334 18C13.2538 18 14 17.3732 14 16.6C14 15.8268 13.2538 15.2 12.3334 15.2C11.4129 15.2 10.6667 15.8268 10.6667 16.6C10.6667 17.3732 11.4129 18 12.3334 18Z" />
    <path
        d="M12.3334 12.4C13.2538 12.4 14 11.7732 14 11C14 10.2268 13.2538 9.59998 12.3334 9.59998C11.4129 9.59998 10.6667 10.2268 10.6667 11C10.6667 11.7732 11.4129 12.4 12.3334 12.4Z" />
    <path
        d="M5.66667 12.4C6.58714 12.4 7.33333 11.7732 7.33333 11C7.33333 10.2268 6.58714 9.59998 5.66667 9.59998C4.74619 9.59998 4 10.2268 4 11C4 11.7732 4.74619 12.4 5.66667 12.4Z" />
</svg>