<svg width="18" height="18" viewBox="0 0 18 18" fill="none" xmlns="http://www.w3.org/2000/svg">
<path d="M9.00002 0.666656C4.40002 0.666656 0.666687 4.39999 0.666687 8.99999C0.666687 13.6 4.40002 17.3333 9.00002 17.3333C13.6 17.3333 17.3334 13.6 17.3334 8.99999C17.3334 4.39999 13.6 0.666656 9.00002 0.666656ZM12.3584 9.44166L9.85835 11.9417C9.73335 12.0667 9.57502 12.125 9.41669 12.125C9.25835 12.125 9.10002 12.0667 8.97502 11.9417C8.73335 11.7 8.73335 11.3 8.97502 11.0583L10.4084 9.62499H6.08335C5.74169 9.62499 5.45835 9.34166 5.45835 8.99999C5.45835 8.65832 5.74169 8.37499 6.08335 8.37499H10.4084L8.97502 6.94166C8.73335 6.69999 8.73335 6.29999 8.97502 6.05832C9.21669 5.81666 9.61669 5.81666 9.85835 6.05832L12.3584 8.55832C12.6 8.79999 12.6 9.19999 12.3584 9.44166Z" fill="#6B6B6B"/>
</svg>
