<svg width="36" height="37" viewBox="0 0 36 37" fill="none" xmlns="http://www.w3.org/2000/svg">
<rect width="36" height="36" rx="7" fill="#EFEFEF"/>
<path d="M22.6808 15.0469H20.3399V17.3802H22.6808V15.0469Z" fill="#E0E0E0"/>
<path d="M15.6606 15.0469H13.3205V17.3802H15.6606V15.0469Z" fill="#E0E0E0"/>
<path d="M25.0197 8.09196H22.6802V5.75999H20.3399H18.0004H15.6593H13.3198V8.09196H10.9795V10.4247H8.64001V12.7167V15.0486V17.3814H10.9795V15.0486H13.3198V12.7167H15.6593H18.0004H20.3399H22.6802H25.0197V15.0486V17.3814H27.36V15.0486V12.7167V10.4247V8.09196H25.0197Z" fill="#BDBDBD"/>
<path d="M15.6594 19.7156V22.0476H18.0005H20.34V19.7156H18.0005H15.6594Z" fill="#E0E0E0"/>
<path d="M27.3613 31.3763H25.0204V33.6679H27.3613V31.3763Z" fill="#E0E0E0"/>
<path d="M25.0188 33.6684H22.6787V36.0018H25.0188V33.6684Z" fill="#E0E0E0"/>
<path d="M25.0188 29.0447H22.6787V31.3772H25.0188V29.0447Z" fill="#E0E0E0"/>
<path d="M22.6808 31.3763H20.3399V33.6679H22.6808V31.3763Z" fill="#E0E0E0"/>
<path d="M15.6594 33.6684V36.0012H18.0005H20.34V33.6684H18.0005H15.6594Z" fill="#E0E0E0"/>
<path d="M15.6606 31.3763H13.3205V33.6679H15.6606V31.3763Z" fill="#E0E0E0"/>
<path d="M13.3226 33.6684H10.9817V36.0018H13.3226V33.6684Z" fill="#E0E0E0"/>
<path d="M13.3226 29.0447H10.9817V31.3772H13.3226V29.0447Z" fill="#E0E0E0"/>
<path d="M10.9801 31.3763H8.64001V33.6679H10.9801V31.3763Z" fill="#E0E0E0"/>
<path d="M20.3421 12.7153H13.322V15.0481H15.6615V17.3809H13.322V15.0481H10.9817V22.0448H13.322V24.3776H15.6615V26.7095H20.3421V24.3776H22.6824V22.0448H25.0219V12.7153H20.3421ZM18.0018 22.0448H15.6607V19.7128H20.3413V22.0448H18.0018ZM22.6816 17.3809H20.3413V15.0481H22.6816V17.3809Z" fill="#E0E0E0"/>
<path d="M27.3613 33.6684H25.0204V36.0018H27.3613V33.6684Z" fill="#BDBDBD"/>
<path d="M27.3613 29.0447H25.0204V31.3772H27.3613V29.0447Z" fill="#BDBDBD"/>
<path d="M25.0188 31.3763H22.6787V33.6679H25.0188V31.3763Z" fill="#BDBDBD"/>
<path d="M22.6808 33.6684H20.3399V36.0018H22.6808V33.6684Z" fill="#BDBDBD"/>
<path d="M22.6809 31.3751V29.0431V26.7103H20.3406H18.0011H15.66H13.3205V29.0431V31.3751H15.66V33.667H18.0011H20.3406V31.3751H22.6809Z" fill="#BDBDBD"/>
<path d="M15.6606 33.6684H13.3205V36.0018H15.6606V33.6684Z" fill="#BDBDBD"/>
<path d="M13.3226 31.3763H10.9817V33.6679H13.3226V31.3763Z" fill="#BDBDBD"/>
<path d="M10.9801 33.6684H8.64001V36.0018H10.9801V33.6684Z" fill="#BDBDBD"/>
<path d="M10.9801 29.0445H8.64001V31.3771H10.9801V29.0445Z" fill="#BDBDBD"/>
</svg>
