<svg width="29" height="28" viewBox="0 0 29 28" fill="none" xmlns="http://www.w3.org/2000/svg">
<rect x="0.5" width="28" height="28" rx="14" fill="#FFF2DB"/>
<path d="M13.1661 8.32764L13.2484 8.35509L13.5569 8.45799C13.5569 8.458 13.5569 8.458 13.5569 8.458C13.787 8.53467 14.3795 8.80535 14.9865 9.24616C15.5929 9.68657 16.2264 10.3059 16.5199 11.0845C16.8126 11.8611 16.7264 12.6533 16.2724 13.4316L13.1661 8.32764ZM13.1661 8.32764L13.1273 8.40524M13.1661 8.32764L13.1273 8.40524M13.2478 19.725L13.248 19.725L15.4064 19.725H15.5672L15.4961 19.5808L15.2297 19.04C14.6968 17.9585 14.6227 17.1181 14.7942 16.3558C14.9672 15.5867 15.391 14.8887 15.8777 14.0895L13.2478 19.625V19.725ZM13.2478 19.725C12.2782 19.7269 11.3463 19.3497 10.6512 18.6737M13.2478 19.725L10.6512 18.6737M10.6512 18.6737C10.3049 18.3408 10.0278 17.9427 9.83578 17.5024C9.64372 17.062 9.54055 16.5881 9.53218 16.1077C9.53163 16.0784 9.53135 16.0489 9.53135 16.0192C9.53135 13.8565 10.8326 12.7105 11.9507 11.7259L11.9566 11.7206L10.6512 18.6737ZM13.1273 8.40524L12.6458 9.36852L12.61 9.44007M13.1273 8.40524L12.61 9.44007M12.61 9.44007L12.6719 9.49068M12.61 9.44007L12.6719 9.49068M12.6719 9.49068L12.9043 9.68052L12.9043 9.68052M12.6719 9.49068L12.9043 9.68052M12.9043 9.68052L12.905 9.6811M12.9043 9.68052L12.905 9.6811M12.905 9.6811C12.9042 9.6804 12.9046 9.68078 12.9061 9.68219M12.905 9.6811L12.9061 9.68219M12.5846 12.4333L12.5846 12.4333C11.5311 13.3612 10.4813 14.2909 10.4813 16.0192C10.4814 16.043 10.4816 16.0666 10.482 16.0901L12.5846 12.4333ZM12.5846 12.4333L12.586 12.4321C12.8486 12.2008 13.1229 11.9592 13.3711 11.7109M12.5846 12.4333L13.3711 11.7109M14.0944 10.1296L14.0944 10.1297C14.1221 10.6792 13.8704 11.2116 13.3711 11.7109C13.3711 11.7109 13.3711 11.7109 13.3711 11.7109M14.0944 10.1296L12.5187 12.3581C12.782 12.1261 13.0544 11.8862 13.3004 11.6402L13.3711 11.7109M14.0944 10.1296C14.0877 9.99872 14.0651 9.86954 14.0274 9.7448M14.0944 10.1296L14.0274 9.7448M14.0274 9.7448C14.289 9.90503 14.5735 10.1068 14.8341 10.3415C15.1815 10.6543 15.4805 11.0205 15.631 11.4196L15.7246 11.3844L15.631 11.4196C15.8191 11.9186 15.7647 12.4167 15.4518 12.953C15.3254 13.1698 15.1956 13.383 15.0695 13.5902L15.0662 13.5955L15.0662 13.5955L15.0623 13.602C14.6 14.3612 14.1407 15.1154 13.9112 15.9636C13.6889 16.7849 13.6825 17.6905 14.0819 18.775H13.2478C11.7498 18.775 10.5097 17.5692 10.482 16.0902L14.0274 9.7448ZM12.9061 9.68219C12.9152 9.69083 12.9656 9.73838 13.0182 9.81631M12.9061 9.68219L13.0182 9.81631M13.0182 9.81631C13.0788 9.90627 13.1382 10.0307 13.1456 10.1776M13.0182 9.81631L13.1456 10.1776M13.1456 10.1776C13.1582 10.4282 13.0212 10.7175 12.6993 11.0394M13.1456 10.1776L12.6993 11.0394M12.6993 11.0394C12.6993 11.0394 12.6993 11.0394 12.6993 11.0394C12.4727 11.266 12.2235 11.4856 11.9567 11.7206L12.6993 11.0394Z" fill="#FFC04E" stroke="#FFC04E" stroke-width="0.2"/>
<path d="M19.4746 15.9953C19.4683 15.9705 19.4618 15.9457 19.455 15.9207C19.1844 14.9285 17.6865 13.6528 17.5166 13.5106L17.2532 13.2902L16.9517 13.6097C16.4418 14.4862 16.0043 15.2857 15.8136 16.1928C15.5961 17.2271 15.7425 18.2784 16.2612 19.4067M19.4746 15.9953C19.5828 16.4238 19.5913 16.8714 19.4993 17.3036C19.4072 17.7358 19.2172 18.1412 18.9439 18.4884M19.4746 15.9953L19.5715 15.9709L19.5715 15.9708L19.4746 15.9953ZM18.9439 18.4884C18.6688 18.8433 18.3159 19.1304 17.9124 19.3275C17.5089 19.5246 17.0656 19.6264 16.6165 19.6251M18.9439 18.4884L19.0224 18.5502C19.0225 18.5501 19.0226 18.55 19.0227 18.5499C19.0227 18.5498 19.0228 18.5497 19.0229 18.5496L18.9439 18.4884ZM16.6165 19.6251H16.3616L16.2612 19.4067M16.6165 19.6251L16.6162 19.7251L16.3616 19.7251H16.2975L16.2707 19.6669L16.1704 19.4485M16.6165 19.6251V19.7251H16.6164L16.1704 19.4485M16.2612 19.4067L16.1704 19.4485M16.2612 19.4067L16.1704 19.4485C15.6443 18.3042 15.4931 17.2311 15.7157 16.1722L15.7157 16.1722C15.9101 15.2475 16.3557 14.4354 16.8652 13.5594L16.8652 13.5594L17.089 13.1748L17.1486 13.0723L17.2396 13.1484L17.5808 13.4339L17.5808 13.4339C17.6672 13.5063 18.0876 13.8637 18.5212 14.3287C18.9508 14.7895 19.4091 15.3723 19.5515 15.8944L19.5515 15.8945L16.1704 19.4485M18.2738 17.965L18.2733 17.9657C18.0998 18.1897 17.8826 18.3759 17.6348 18.5132C17.4087 18.6385 17.1615 18.7205 16.9059 18.7554C16.5674 17.9122 16.5019 17.2039 16.6161 16.5316C16.7279 15.8728 17.0133 15.2421 17.3974 14.5453C17.6464 14.7828 17.9112 15.0587 18.1339 15.3298C18.3875 15.6386 18.5762 15.9289 18.6349 16.1442C18.6402 16.1636 18.6453 16.1829 18.6501 16.2022L18.6501 16.2022C18.7265 16.5052 18.7323 16.8218 18.6671 17.1274C18.6018 17.433 18.4673 17.7196 18.2738 17.965Z" fill="#FFC04E" stroke="#FFC04E" stroke-width="0.2"/>
</svg>
