<svg width="14" height="14" viewBox="0 0 14 14" fill="#6b6b6b" xmlns="http://www.w3.org/2000/svg">
    <path
        d="M4.33331 0.333328H5.66665V2.99999H8.33331V0.333328H9.66665V2.99999H11V4.99999H12.3333V6.33333H11V7.66666H13.6666V8.99999H11V10.3333H12.3333V11.6667H11V13.6667H2.99998V11.6667H1.66665V10.3333H2.99998V8.99999H0.333313V7.66666H2.99998V6.33333H1.66665V4.99999H2.99998V2.99999H4.33331V0.333328ZM9.66665 4.33333H4.33331V6.33333H9.66665V4.33333ZM6.33331 7.66666H4.33331V12.3333H6.33331V7.66666ZM7.66665 12.3333H9.66665V7.66666H7.66665V12.3333ZM1.66665 4.99999H0.333313V3.66666H1.66665V4.99999ZM1.66665 11.6667V13H0.333313V11.6667H1.66665ZM12.3333 11.6667H13.6666V13H12.3333V11.6667ZM12.3333 4.99999V3.66666H13.6666V4.99999H12.3333Z" />
</svg>