<svg width="16" height="16" viewBox="0 0 16 16" fill="none" xmlns="http://www.w3.org/2000/svg">
<path fill-rule="evenodd" clip-rule="evenodd" d="M11.0935 5.82153C11.3764 6.05724 11.4146 6.47761 11.1789 6.76047L7.84556 10.7605C7.72565 10.9044 7.55074 10.9912 7.36362 10.9997C7.17651 11.0081 6.99446 10.9375 6.86201 10.8051L4.86201 8.80508C4.60166 8.54473 4.60166 8.12262 4.86201 7.86227C5.12236 7.60192 5.54447 7.60192 5.80482 7.86227L7.28862 9.34607L10.1546 5.90689C10.3903 5.62403 10.8107 5.58582 11.0935 5.82153Z" fill="#13BA9A"/>
<path fill-rule="evenodd" clip-rule="evenodd" d="M8.00008 2.00033C4.68637 2.00033 2.00008 4.68662 2.00008 8.00033C2.00008 11.314 4.68637 14.0003 8.00008 14.0003C11.3138 14.0003 14.0001 11.314 14.0001 8.00033C14.0001 4.68662 11.3138 2.00033 8.00008 2.00033ZM0.666748 8.00033C0.666748 3.95024 3.94999 0.666992 8.00008 0.666992C12.0502 0.666992 15.3334 3.95024 15.3334 8.00033C15.3334 12.0504 12.0502 15.3337 8.00008 15.3337C3.94999 15.3337 0.666748 12.0504 0.666748 8.00033Z" fill="#13BA9A"/>
</svg>
