<svg xmlns="http://www.w3.org/2000/svg" width="14" height="14" viewBox="0 0 14 14" fill="none">
  <mask id="mask0_2302_6806" style="mask-type:alpha" maskUnits="userSpaceOnUse" x="1" y="1" width="12" height="12">
  <path fill-rule="evenodd" clip-rule="evenodd" d="M7 13C10.3137 13 13 10.3137 13 7C13 3.68629 10.3137 1 7 1C3.68629 1 1 3.68629 1 7C1 10.3137 3.68629 13 7 13ZM9.92468 5.01213C10.0251 4.89497 10.0251 4.70503 9.92468 4.58787C9.82426 4.47071 9.66145 4.47071 9.56103 4.58787L5.97143 8.77574L4.43897 6.98787C4.33855 6.87071 4.17574 6.87071 4.07532 6.98787C3.97489 7.10503 3.97489 7.29497 4.07532 7.41213L5.7896 9.41213C5.89002 9.52929 6.05284 9.52929 6.15326 9.41213L9.92468 5.01213Z" fill="#467AFF"/>
  </mask>
  <g mask="url(#mask0_2302_6806)">
  <rect width="14" height="14" fill="#28ADAD"/>
  </g>
</svg>