<svg width="20" height="12" viewBox="0 0 20 12" fill="#6b6b6b" xmlns="http://www.w3.org/2000/svg">
    <path
        d="M4.59774 0.681049L0.717209 4.35965C0.489832 4.57511 0.309461 4.83092 0.1864 5.11248C0.0633394 5.39403 0 5.69581 0 6.00058C0 6.30535 0.0633394 6.60713 0.1864 6.88868C0.309461 7.17024 0.489832 7.42605 0.717209 7.64151L4.59774 11.3201C4.82502 11.5357 5.09488 11.7066 5.39189 11.8233C5.6889 11.94 6.00724 12 6.32874 12C6.65023 12 6.96858 11.94 7.26559 11.8233C7.5626 11.7066 7.83245 11.5357 8.05974 11.3201L11.9403 7.64151C12.1676 7.42605 12.348 7.17024 12.4711 6.88868C12.5941 6.60713 12.6575 6.30535 12.6575 6.00058C12.6575 5.69581 12.5941 5.39403 12.4711 5.11248C12.348 4.83092 12.1676 4.57511 11.9403 4.35965L8.06096 0.681049C7.83368 0.465504 7.56382 0.294518 7.26681 0.177861C6.9698 0.0612037 6.65146 0.00115999 6.32996 0.00115999C6.00847 0.00115999 5.69012 0.0612037 5.39311 0.177861C5.0961 0.294518 4.82624 0.465504 4.59896 0.681049H4.59774ZM11.9403 11.3201L10.8658 10.3016L12.8067 8.46168C13.1477 8.13851 13.4181 7.75482 13.6027 7.33254C13.7872 6.91026 13.8822 6.45766 13.8822 6.00058C13.8822 5.5435 13.7872 5.0909 13.6027 4.66862C13.4181 4.24634 13.1477 3.86265 12.8067 3.53948L10.8658 1.70076L11.9403 0.679889C12.1675 0.464344 12.4374 0.293358 12.7344 0.176701C13.0314 0.0600437 13.3498 0 13.6713 0C13.9928 0 14.3111 0.0600437 14.6081 0.176701C14.9051 0.293358 15.175 0.464344 15.4023 0.679889L19.2828 4.35965C19.5102 4.57511 19.6905 4.83092 19.8136 5.11248C19.9367 5.39403 20 5.69581 20 6.00058C20 6.30535 19.9367 6.60713 19.8136 6.88868C19.6905 7.17024 19.5102 7.42605 19.2828 7.64151L15.4023 11.3201C15.175 11.5357 14.9051 11.7066 14.6081 11.8233C14.3111 11.94 13.9928 12 13.6713 12C13.3498 12 13.0314 11.94 12.7344 11.8233C12.4374 11.7066 12.1675 11.5357 11.9403 11.3201Z" />
</svg>