<svg width="20" height="20" viewBox="0 0 20 20" fill="none" xmlns="http://www.w3.org/2000/svg">
<mask id="mask0_2962_56078" style="mask-type:alpha" maskUnits="userSpaceOnUse" x="0" y="0" width="20" height="20">
<path d="M9.99984 1.66669C5.40817 1.66669 1.6665 5.40835 1.6665 10C1.6665 14.5917 5.40817 18.3334 9.99984 18.3334C14.5915 18.3334 18.3332 14.5917 18.3332 10C18.3332 5.40835 14.5915 1.66669 9.99984 1.66669ZM12.7998 11.9167C13.0415 12.1584 13.0415 12.5584 12.7998 12.8C12.6748 12.925 12.5165 12.9834 12.3582 12.9834C12.1998 12.9834 12.0415 12.925 11.9165 12.8L9.99984 10.8834L8.08317 12.8C7.95817 12.925 7.79984 12.9834 7.6415 12.9834C7.48317 12.9834 7.32484 12.925 7.19984 12.8C6.95817 12.5584 6.95817 12.1584 7.19984 11.9167L9.1165 10L7.19984 8.08335C6.95817 7.84169 6.95817 7.44169 7.19984 7.20002C7.4415 6.95835 7.8415 6.95835 8.08317 7.20002L9.99984 9.11669L11.9165 7.20002C12.1582 6.95835 12.5582 6.95835 12.7998 7.20002C13.0415 7.44169 13.0415 7.84169 12.7998 8.08335L10.8832 10L12.7998 11.9167Z" fill="#292D32"/>
</mask>
<g mask="url(#mask0_2962_56078)">
<rect width="20" height="20" fill="#A4A4A4"/>
</g>
</svg>
