<svg width="12" height="12" viewBox="0 0 12 12" fill="none" xmlns="http://www.w3.org/2000/svg">
<mask id="mask0_4960_66889" style="mask-type:alpha" maskUnits="userSpaceOnUse" x="0" y="0" width="12" height="12">
<path d="M5.625 3.375C5.625 3.27554 5.58549 3.18016 5.51516 3.10983C5.44484 3.03951 5.34945 3 5.25 3C5.15054 3 5.05516 3.03951 4.98483 3.10983C4.91451 3.18016 4.875 3.27554 4.875 3.375V4.875H3.375C3.27554 4.875 3.18016 4.91451 3.10983 4.98483C3.03951 5.05516 3 5.15054 3 5.25C3 5.34945 3.03951 5.44484 3.10983 5.51516C3.18016 5.58549 3.27554 5.625 3.375 5.625H4.875V7.125C4.875 7.22445 4.91451 7.31984 4.98483 7.39016C5.05516 7.46049 5.15054 7.5 5.25 7.5C5.34945 7.5 5.44484 7.46049 5.51516 7.39016C5.58549 7.31984 5.625 7.22445 5.625 7.125V5.625H7.125C7.22445 5.625 7.31984 5.58549 7.39016 5.51516C7.46049 5.44484 7.5 5.34945 7.5 5.25C7.5 5.15054 7.46049 5.05516 7.39016 4.98483C7.31984 4.91451 7.22445 4.875 7.125 4.875H5.625V3.375ZM1.875 0C1.37772 0 0.900805 0.197544 0.549175 0.549175C0.197544 0.900805 0 1.37772 0 1.875V8.625C0 9.12228 0.197544 9.59919 0.549175 9.95082C0.900805 10.3025 1.37772 10.5 1.875 10.5H8.625C9.12228 10.5 9.59919 10.3025 9.95082 9.95082C10.3025 9.59919 10.5 9.12228 10.5 8.625V1.875C10.5 1.37772 10.3025 0.900805 9.95082 0.549175C9.59919 0.197544 9.12228 0 8.625 0H1.875ZM0.75 1.875C0.75 1.57663 0.868526 1.29048 1.0795 1.0795C1.29048 0.868526 1.57663 0.75 1.875 0.75H8.625C8.92337 0.75 9.20951 0.868526 9.42049 1.0795C9.63147 1.29048 9.75 1.57663 9.75 1.875V8.625C9.75 8.92337 9.63147 9.20951 9.42049 9.42049C9.20951 9.63147 8.92337 9.75 8.625 9.75H1.875C1.57663 9.75 1.29048 9.63147 1.0795 9.42049C0.868526 9.20951 0.75 8.92337 0.75 8.625V1.875ZM4.125 12C3.43778 12.001 2.77775 11.7316 2.2875 11.25H9.375C9.87228 11.25 10.3492 11.0525 10.7008 10.7008C11.0525 10.3492 11.25 9.87228 11.25 9.375V2.2875C11.7142 2.7615 12 3.4095 12 4.125V9.375C12 10.0712 11.7234 10.7389 11.2312 11.2312C10.7389 11.7234 10.0712 12 9.375 12H4.125Z" fill="#6B6B6B"/>
</mask>
<g mask="url(#mask0_4960_66889)">
<rect width="12" height="12" fill="#2C2C2C"/>
</g>
</svg>
