<svg width="20" height="20" viewBox="0 0 20 20" fill="none" xmlns="http://www.w3.org/2000/svg">
<g opacity="0.5">
<path d="M6.45817 9.16667C6.45817 8.82149 6.17835 8.54167 5.83317 8.54167C5.48799 8.54167 5.20817 8.82149 5.20817 9.16667L5.20817 13.3333C5.20817 13.6785 5.48799 13.9583 5.83317 13.9583C6.17835 13.9583 6.45817 13.6785 6.45817 13.3333L6.45817 9.16667Z" fill="#BDBDBD"/>
<path d="M9.99984 6.04167C10.345 6.04167 10.6248 6.32149 10.6248 6.66667V13.3333C10.6248 13.6785 10.345 13.9583 9.99984 13.9583C9.65466 13.9583 9.37484 13.6785 9.37484 13.3333V6.66667C9.37484 6.32149 9.65466 6.04167 9.99984 6.04167Z" fill="#BDBDBD"/>
<path d="M14.7915 10.8333C14.7915 10.4882 14.5117 10.2083 14.1665 10.2083C13.8213 10.2083 13.5415 10.4882 13.5415 10.8333V13.3333C13.5415 13.6785 13.8213 13.9583 14.1665 13.9583C14.5117 13.9583 14.7915 13.6785 14.7915 13.3333V10.8333Z" fill="#BDBDBD"/>
<path fill-rule="evenodd" clip-rule="evenodd" d="M14.6054 1.875H5.39431C4.83071 1.875 4.37608 1.87499 4.00607 1.90024C3.62561 1.9262 3.28918 1.98092 2.97062 2.11288C2.20491 2.43005 1.59655 3.0384 1.27938 3.80411C1.14743 4.12268 1.0927 4.4591 1.06674 4.83957C1.0415 5.20957 1.0415 5.6642 1.0415 6.2278V13.7722C1.0415 14.3358 1.0415 14.7904 1.06674 15.1604C1.0927 15.5409 1.14743 15.8773 1.27938 16.1959C1.59655 16.9616 2.20491 17.57 2.97062 17.8871C3.28918 18.0191 3.62561 18.0738 4.00607 18.0998C4.37608 18.125 4.83071 18.125 5.3943 18.125H14.6054C15.169 18.125 15.6236 18.125 15.9936 18.0998C16.3741 18.0738 16.7105 18.0191 17.0291 17.8871C17.7948 17.57 18.4031 16.9616 18.7203 16.1959C18.8522 15.8773 18.907 15.5409 18.9329 15.1604C18.9582 14.7904 18.9582 14.3358 18.9582 13.7722V6.2278C18.9582 5.6642 18.9582 5.20957 18.9329 4.83957C18.907 4.4591 18.8522 4.12268 18.7203 3.80411C18.4031 3.0384 17.7948 2.43005 17.0291 2.11288C16.7105 1.98092 16.3741 1.9262 15.9936 1.90024C15.6236 1.87499 15.169 1.875 14.6054 1.875ZM3.44897 3.26773C3.58984 3.20938 3.77434 3.16895 4.09116 3.14734C4.41359 3.12534 4.82553 3.125 5.4165 3.125H14.5832C15.1741 3.125 15.5861 3.12534 15.9085 3.14734C16.2253 3.16895 16.4098 3.20938 16.5507 3.26773C17.0101 3.45803 17.3751 3.82304 17.5654 4.28247C17.6238 4.42333 17.6642 4.60784 17.6858 4.92466C17.7078 5.24709 17.7082 5.65902 17.7082 6.25V13.75C17.7082 14.341 17.7078 14.7529 17.6858 15.0753C17.6642 15.3922 17.6238 15.5767 17.5654 15.7175C17.3751 16.177 17.0101 16.542 16.5507 16.7323C16.4098 16.7906 16.2253 16.831 15.9085 16.8527C15.5861 16.8747 15.1741 16.875 14.5832 16.875H5.4165C4.82553 16.875 4.41359 16.8747 4.09116 16.8527C3.77434 16.831 3.58984 16.7906 3.44897 16.7323C2.98955 16.542 2.62453 16.177 2.43423 15.7175C2.37588 15.5767 2.33546 15.3922 2.31384 15.0753C2.29184 14.7529 2.2915 14.341 2.2915 13.75V6.25C2.2915 5.65902 2.29184 5.24709 2.31384 4.92466C2.33546 4.60784 2.37588 4.42333 2.43423 4.28247C2.62453 3.82304 2.98955 3.45803 3.44897 3.26773Z" fill="#BDBDBD"/>
</g>
</svg>
