<svg width="16" height="17" viewBox="0 0 16 17" fill="none" xmlns="http://www.w3.org/2000/svg">
    <path fill-rule="evenodd" clip-rule="evenodd"
        d="M5.96428 6.78398L2.76849 10.7406C2.24838 11.3845 2.24838 12.4285 2.76849 13.0724C3.28861 13.7164 4.13188 13.7164 4.65199 13.0724L7.84778 9.11586C8.3679 8.47193 8.3679 7.42791 7.84778 6.78398C7.32767 6.14005 6.4844 6.14005 5.96428 6.78398ZM1.85512 9.60975C0.830566 10.8782 0.830566 12.9348 1.85512 14.2032C2.87968 15.4717 4.54081 15.4717 5.56536 14.2032L8.76115 10.2467C9.78571 8.97821 9.78571 6.92163 8.76115 5.65317C7.7366 4.38471 6.07547 4.38471 5.05091 5.65317L1.85512 9.60975Z"
        fill="white" />
    <path opacity="0.8" fill-rule="evenodd" clip-rule="evenodd"
        d="M10.4855 3.98515L7.28973 7.94172C6.76962 8.58566 6.76962 9.62968 7.28973 10.2736C7.80985 10.9175 8.65312 10.9175 9.17323 10.2736L12.369 6.31703C12.8891 5.6731 12.8891 4.62908 12.369 3.98515C11.8489 3.34122 11.0056 3.34122 10.4855 3.98515ZM6.37636 6.81092C5.35181 8.07938 5.35181 10.136 6.37636 11.4044C7.40092 12.6729 9.06205 12.6729 10.0866 11.4044L13.2824 7.44784C14.3069 6.17938 14.3069 4.1228 13.2824 2.85434C12.2578 1.58588 10.5967 1.58588 9.57215 2.85434L6.37636 6.81092Z"
        fill="white" />
</svg>