<svg width="20" height="20" viewBox="0 0 20 20" fill="none" xmlns="http://www.w3.org/2000/svg">
<path d="M12.5 18.3333C12.1583 18.3333 11.875 18.05 11.875 17.7083V2.29167C11.875 1.95001 12.1583 1.66667 12.5 1.66667C12.8417 1.66667 13.125 1.95001 13.125 2.29167V17.7083C13.125 18.05 12.8417 18.3333 12.5 18.3333Z" fill="#1AE5BE"/>
<path d="M15 16.6667H12.5V3.33333H15C16.8417 3.33333 18.3333 4.82499 18.3333 6.66666V13.3333C18.3333 15.175 16.8417 16.6667 15 16.6667Z" fill="#1AE5BE"/>
<path d="M4.99996 3.33333C3.15829 3.33333 1.66663 4.82499 1.66663 6.66666V13.3333C1.66663 15.175 3.15829 16.6667 4.99996 16.6667H9.16663C9.62496 16.6667 9.99996 16.2917 9.99996 15.8333V4.16666C9.99996 3.70833 9.62496 3.33333 9.16663 3.33333H4.99996ZM6.45829 12.9167C6.45829 13.2583 6.17496 13.5417 5.83329 13.5417C5.49163 13.5417 5.20829 13.2583 5.20829 12.9167V7.08333C5.20829 6.74166 5.49163 6.45833 5.83329 6.45833C6.17496 6.45833 6.45829 6.74166 6.45829 7.08333V12.9167Z" fill="#1AE5BE"/>
</svg>
