<svg
  width="14"
  height="14"
  viewBox="0 0 14 14"
  fill="#878787"
  xmlns="http://www.w3.org/2000/svg"
  >
  <path d="M7.00016 0.333313C3.32416 0.333313 0.333496 2.72598 0.333496 5.66665C0.333496 7.60531 1.59883 9.34398 3.66683 10.2893V13.6666L7.22683 10.9966C10.7982 10.9013 13.6668 8.54665 13.6668 5.66665C13.6668 2.72598 10.6762 0.333313 7.00016 0.333313ZM7.00016 9.66665H6.77816L5.00016 11V9.38865L4.57283 9.22398C2.78016 8.53398 1.66683 7.17065 1.66683 5.66665C1.66683 3.46065 4.0595 1.66665 7.00016 1.66665C9.94083 1.66665 12.3335 3.46065 12.3335 5.66665C12.3335 7.87265 9.94083 9.66665 7.00016 9.66665Z"></path>
</svg>