<svg width="9" height="10" viewBox="0 0 9 10" fill="none" xmlns="http://www.w3.org/2000/svg">
<path fill-rule="evenodd" clip-rule="evenodd" d="M1.23131 1.73131C0.849835 2.11278 0.645752 2.73907 0.645752 3.74992V6.24992C0.645752 7.26076 0.849835 7.88706 1.23131 8.26853C1.61278 8.65 2.23907 8.85409 3.24992 8.85409H5.74992C6.76076 8.85409 7.38706 8.65 7.76853 8.26853C8.15 7.88706 8.35409 7.26076 8.35409 6.24992V4.16659C8.35409 3.994 8.494 3.85409 8.66659 3.85409C8.83917 3.85409 8.97909 3.994 8.97909 4.16659V6.24992C8.97909 7.32241 8.7665 8.15444 8.21047 8.71047C7.65444 9.2665 6.82241 9.47909 5.74992 9.47909H3.24992C2.17743 9.47909 1.34539 9.2665 0.789364 8.71047C0.233336 8.15444 0.020752 7.32241 0.020752 6.24992V3.74992C0.020752 2.67743 0.233336 1.84539 0.789364 1.28936C1.34539 0.733336 2.17743 0.520752 3.24992 0.520752H5.33325C5.50584 0.520752 5.64575 0.660663 5.64575 0.833252C5.64575 1.00584 5.50584 1.14575 5.33325 1.14575H3.24992C2.23907 1.14575 1.61278 1.34983 1.23131 1.73131Z" fill="#6B6B6B"/>
<path fill-rule="evenodd" clip-rule="evenodd" d="M5.21366 0.544549C5.33044 0.49618 5.46485 0.522916 5.55422 0.61229L8.88756 3.94562C8.97693 4.035 9.00367 4.16941 8.9553 4.28618C8.90693 4.40296 8.79298 4.47909 8.66658 4.47909H6.99992C6.35761 4.47909 5.82996 4.37607 5.47686 4.02298C5.12377 3.66989 5.02075 3.14224 5.02075 2.49993V0.833261C5.02075 0.706867 5.09689 0.592918 5.21366 0.544549ZM5.64575 1.5877V2.49993C5.64575 3.10762 5.75106 3.4133 5.91881 3.58104C6.08655 3.74878 6.39223 3.85409 6.99992 3.85409H7.91214L5.64575 1.5877Z" fill="#6B6B6B"/>
<path fill-rule="evenodd" clip-rule="evenodd" d="M2.104 5.4165C2.104 5.24391 2.24391 5.104 2.4165 5.104H4.9165C5.08909 5.104 5.229 5.24391 5.229 5.4165C5.229 5.58909 5.08909 5.729 4.9165 5.729H2.4165C2.24391 5.729 2.104 5.58909 2.104 5.4165Z" fill="#6B6B6B"/>
<path fill-rule="evenodd" clip-rule="evenodd" d="M2.104 7.08325C2.104 6.91066 2.24391 6.77075 2.4165 6.77075H4.08317C4.25576 6.77075 4.39567 6.91066 4.39567 7.08325C4.39567 7.25584 4.25576 7.39575 4.08317 7.39575H2.4165C2.24391 7.39575 2.104 7.25584 2.104 7.08325Z" fill="#6B6B6B"/>
</svg>
