<svg width="14" height="15" viewBox="0 0 14 15" fill="#000" xmlns="http://www.w3.org/2000/svg">
<path d="M8.99609 7.422C8.99609 6.9845 8.66797 6.62903 8.28516 6.62903C7.875 6.62903 7.54688 6.9845 7.54688 7.422C7.54688 7.83215 7.875 8.18762 8.28516 8.18762C8.66797 8.18762 8.99609 7.83215 8.99609 7.422ZM5.71484 6.62903C5.33203 6.62903 5.00391 6.9845 5.00391 7.422C5.00391 7.83215 5.33203 8.18762 5.71484 8.18762C6.125 8.18762 6.42578 7.83215 6.42578 7.422C6.45312 6.9845 6.125 6.62903 5.71484 6.62903ZM13.125 2.19934C13.125 1.40637 12.4688 0.750122 11.6758 0.750122H2.29688C1.50391 0.750122 0.875 1.40637 0.875 2.19934V11.6603C0.875 12.4806 1.50391 13.1095 2.29688 13.1095H10.2266L9.87109 11.8243C11.9219 13.7111 11.3477 13.2189 13.125 14.7501V2.19934ZM11.1289 8.84387C11.1289 8.84387 10.5273 9.85559 8.96875 9.91028C8.96875 9.91028 8.72266 9.6095 8.50391 9.33606C9.43359 9.08997 9.78906 8.51575 9.78906 8.51575C9.48828 8.70715 9.21484 8.81653 8.96875 8.9259C7.46484 9.55481 5.79688 9.33606 4.59375 8.67981C4.59375 8.65247 4.42969 8.57043 4.32031 8.4884C4.32031 8.4884 4.64844 9.06262 5.55078 9.33606C5.33203 9.58215 5.08594 9.91028 5.08594 9.91028C3.52734 9.85559 2.95312 8.84387 2.95312 8.84387C2.95312 6.57434 3.9375 4.76965 3.9375 4.76965C4.94922 4.00403 5.90625 4.03137 5.90625 4.03137L5.98828 4.1134C4.73047 4.46887 4.15625 5.01575 4.15625 5.01575C4.15625 5.01575 4.29297 4.93372 4.56641 4.82434C6.17969 4.1134 8.12109 4.1134 9.78906 5.01575C9.78906 5.01575 9.24219 4.49622 8.03906 4.14075L8.14844 4.03137C8.14844 4.03137 9.10547 4.00403 10.1172 4.76965C10.1172 4.76965 11.1289 6.57434 11.1289 8.84387Z"/>
</svg>
