<svg xmlns="http://www.w3.org/2000/svg" width="16" height="16" viewBox="0 0 16 16" fill="none">
  <path d="M14.7942 3.42568L12.6949 1.2159C12.63 1.14734 12.5529 1.09297 12.4679 1.05592C12.383 1.01886 12.2919 0.99986 12.2 1H3.8C3.70807 0.999901 3.61702 1.01892 3.53209 1.05597C3.44716 1.09302 3.37002 1.14737 3.3051 1.2159L1.2058 3.42568C1.14046 3.49402 1.08863 3.57531 1.05331 3.66485C1.01798 3.75439 0.999867 3.85041 1 3.94737V13.5263C1 14.3391 1.6279 15 2.4 15H13.6C14.3721 15 15 14.3391 15 13.5263V3.94737C15.0002 3.8504 14.9821 3.75436 14.9468 3.6648C14.9115 3.57525 14.8596 3.49397 14.7942 3.42568ZM4.0898 2.47368H11.9102L12.6102 3.21053H3.3898L4.0898 2.47368ZM8 12.7895L4.5 9.10526H6.6V6.89474H9.4V9.10526H11.5L8 12.7895Z" fill="white"/>
</svg>