<svg width="20" height="20" viewBox="0 0 20 20" fill="none" xmlns="http://www.w3.org/2000/svg">
    <path xmlns="http://www.w3.org/2000/svg" d="M1.66675 9.99999C1.66675 5.39999 5.40008 1.66666 10.0001 1.66666C14.6001 1.66666 18.3334 5.39999 18.3334 9.99999C18.3334 14.6 14.6001 18.3333 10.0001 18.3333C5.40008 18.3333 1.66675 14.6 1.66675 9.99999Z" fill="#28ADAD"/>
    <path
        d="M13.9921 6.00773C13.914 5.92956 13.8157 5.87468 13.7081 5.84924C13.6006 5.8238 13.4881 5.8288 13.3832 5.86368L8.02625 7.64934C7.93851 7.67859 7.85879 7.72786 7.7934 7.79326C7.728 7.85865 7.67873 7.93837 7.64947 8.02611L5.86382 13.3831C5.82885 13.4879 5.82377 13.6005 5.84917 13.7081C5.87456 13.8157 5.92941 13.9141 6.00759 13.9922C6.08576 14.0704 6.18416 14.1253 6.29176 14.1507C6.39935 14.1761 6.5119 14.171 6.61677 14.136L11.9737 12.3504C12.0615 12.3211 12.1412 12.2718 12.2066 12.2064C12.272 12.141 12.3212 12.0613 12.3505 11.9736L14.1362 6.61663C14.171 6.51177 14.176 6.39927 14.1506 6.29173C14.1252 6.18418 14.0703 6.08584 13.9921 6.00773ZM7.36972 12.6307L8.68515 8.68561L11.3154 11.3159L7.36972 12.6307Z">
    </path>
    <path
        d="M10.0001 18.3334C8.35191 18.3334 6.74074 17.8447 5.37033 16.929C3.99992 16.0133 2.93182 14.7118 2.30109 13.1891C1.67036 11.6664 1.50533 9.99084 1.82687 8.37433C2.14842 6.75782 2.94209 5.27297 4.10753 4.10753C5.27297 2.94209 6.75782 2.14842 8.37433 1.82687C9.99084 1.50533 11.6664 1.67036 13.1891 2.30109C14.7118 2.93182 16.0133 3.99992 16.929 5.37033C17.8447 6.74074 18.3334 8.35191 18.3334 10.0001C18.3309 12.2094 17.4521 14.3276 15.8899 15.8899C14.3276 17.4521 12.2094 18.3309 10.0001 18.3334V18.3334ZM10.0001 2.85723C8.58736 2.85723 7.20636 3.27615 6.03173 4.06102C4.85709 4.84588 3.94157 5.96144 3.40095 7.26663C2.86032 8.57182 2.71887 10.008 2.99448 11.3936C3.27008 12.7792 3.95038 14.0519 4.94932 15.0508C5.94827 16.0498 7.221 16.7301 8.60658 17.0057C9.99216 17.2813 11.4283 17.1398 12.7335 16.5992C14.0387 16.0586 15.1543 15.1431 15.9391 13.9684C16.724 12.7938 17.1429 11.4128 17.1429 10.0001C17.1407 8.10636 16.3875 6.29082 15.0484 4.95176C13.7093 3.61269 11.8938 2.85943 10.0001 2.85723V2.85723Z">
    </path>
</svg>