<svg width="16" height="16" viewBox="0 0 16 16" fill="white" xmlns="http://www.w3.org/2000/svg">
    <path
        d="M7.72855 4.00911C7.45673 3.64757 7.46144 3.14858 7.74004 2.79223L9.12653 1.01886C9.52964 0.503274 10.3112 0.507474 10.7087 1.02737L15.537 7.34164C15.8105 7.69928 15.8112 8.19558 15.5389 8.55406L10.6663 14.967C10.2696 15.4891 9.48619 15.4946 9.08228 14.978L7.69586 13.205C7.41842 12.8502 7.41241 12.3537 7.68118 11.9922L10.2431 8.54716C10.5077 8.19138 10.5064 7.70386 10.24 7.34948L7.72855 4.00911Z" />
    <path
        d="M0.456102 3.98534C0.207227 3.63363 0.211603 3.16206 0.466963 2.81503L1.72398 1.10678C2.12623 0.560114 2.94461 0.564438 3.34107 1.11532L7.83876 7.36486C8.08923 7.7129 8.08994 8.18189 7.84052 8.53068L3.30094 14.8788C2.90542 15.4319 2.08515 15.4375 1.68212 14.8898L0.425467 13.1823C0.171195 12.8368 0.165617 12.3676 0.411602 12.0161L2.85601 8.5237C3.09807 8.17786 3.09688 7.71725 2.85304 7.37266L0.456102 3.98534Z" />
</svg>