<svg width="12" height="12" viewBox="0 0 12 12" fill="#6B6B6B" xmlns="http://www.w3.org/2000/svg">
<path fill-rule="evenodd" clip-rule="evenodd" d="M10.4124 1.13284L10.5239 1.24048C10.918 1.62051 11.1869 1.87983 11.3557 2.1619C11.8119 2.9245 11.8119 3.86406 11.3557 4.62666C11.1869 4.90873 10.918 5.16805 10.5239 5.54808L5.66945 10.2328C5.42283 10.4709 5.25221 10.6356 5.05496 10.7657C4.7928 10.9386 4.49954 11.0628 4.19021 11.1319C3.95746 11.1839 3.71631 11.1936 3.36777 11.2075L1.59007 11.279C1.43267 11.2853 1.28893 11.2911 1.1687 11.2878C1.04032 11.2842 0.897861 11.2701 0.753136 11.2156C0.442572 11.0987 0.196925 10.8617 0.0757981 10.5619C0.0193506 10.4223 0.00469265 10.2848 0.00100901 10.1609C-0.00244348 10.0448 0.00354993 9.90622 0.0101213 9.75425L0.0841822 8.03877C0.0986255 7.70242 0.10862 7.46968 0.162521 7.24508C0.23416 6.94656 0.36285 6.66356 0.541992 6.41057C0.676782 6.22022 0.847488 6.05556 1.09421 5.81757L5.9487 1.13284C6.3425 0.752562 6.61122 0.493069 6.90351 0.330215C7.69375 -0.110072 8.66736 -0.110072 9.4576 0.330215C9.74989 0.493069 10.0186 0.752561 10.4124 1.13284ZM9.74576 1.88381C9.27463 1.42916 9.10682 1.2732 8.94678 1.18403C8.47264 0.919862 7.88847 0.919862 7.41433 1.18403C7.25429 1.2732 7.08648 1.42916 6.61535 1.88381L6.44655 2.04671L8.06016 3.60389C8.25964 3.7964 8.25964 4.10852 8.06016 4.30103C7.86067 4.49354 7.53724 4.49354 7.33775 4.30103L5.72414 2.74385L1.8489 6.48357C1.55785 6.76443 1.45987 6.86177 1.38549 6.96682C1.27801 7.11861 1.2008 7.28841 1.15781 7.46752C1.12807 7.59146 1.12017 7.72695 1.10304 8.12381L1.03152 9.78026C1.0241 9.95215 1.01993 10.0555 1.02222 10.1326C1.02364 10.1804 1.02744 10.2009 1.02863 10.2062C1.04592 10.247 1.07949 10.2794 1.12177 10.2961C1.1273 10.2972 1.14852 10.3009 1.19801 10.3023C1.2779 10.3045 1.38503 10.3005 1.56316 10.2933L3.27963 10.2243C3.69087 10.2077 3.83127 10.2001 3.95971 10.1714C4.14531 10.1299 4.32126 10.0554 4.47855 9.95171C4.5874 9.87993 4.68827 9.78537 4.97931 9.50451L9.74576 4.90475C10.2169 4.4501 10.3785 4.28815 10.4709 4.13371C10.7446 3.67615 10.7446 3.11241 10.4709 2.65485C10.3785 2.50041 10.2169 2.33847 9.74576 1.88381Z" />
<path d="M6.72156 11.0141C6.43944 11.0141 6.21074 11.2348 6.21074 11.507C6.21074 11.7793 6.43944 12 6.72156 12H11.4892C11.7713 12 12 11.7793 12 11.507C12 11.2348 11.7713 11.0141 11.4892 11.0141H6.72156Z"/>
</svg>
