<svg width="16" height="16" viewBox="0 0 16 16" fill="none" xmlns="http://www.w3.org/2000/svg">
<path d="M12.9497 3.05025C11.637 1.7375 9.85652 1 8 1C6.14348 1 4.36301 1.7375 3.05025 3.05025C1.7375 4.36301 1 6.14348 1 8C1 9.85652 1.7375 11.637 3.05025 12.9497C4.36301 14.2625 6.14348 15 8 15C9.85652 15 11.637 14.2625 12.9497 12.9497C14.2625 11.637 15 9.85652 15 8C15 6.14348 14.2625 4.36301 12.9497 3.05025V3.05025ZM12.2448 12.2448C11.4049 13.0818 10.3358 13.6511 9.17255 13.8809C8.00929 14.1107 6.80402 13.9907 5.70894 13.536C4.61385 13.0813 3.67806 12.3123 3.01972 11.3261C2.36139 10.3399 2.01004 9.18074 2.01004 7.995C2.01004 6.80926 2.36139 5.65011 3.01972 4.66391C3.67806 3.67772 4.61385 2.90871 5.70894 2.454C6.80402 1.99929 8.00929 1.87926 9.17255 2.10907C10.3358 2.33888 11.4049 2.90823 12.2448 3.74522C12.8041 4.30261 13.2479 4.96493 13.5507 5.69421C13.8535 6.42348 14.0094 7.20536 14.0094 7.995C14.0094 8.78464 13.8535 9.56652 13.5507 10.2958C13.2479 11.0251 12.8041 11.6874 12.2448 12.2448V12.2448ZM10.1199 6.58507L8.70496 8L10.1199 9.41493C10.213 9.50861 10.2653 9.63532 10.2653 9.76741C10.2653 9.8995 10.213 10.0262 10.1199 10.1199C10.0262 10.213 9.8995 10.2653 9.76741 10.2653C9.63532 10.2653 9.5086 10.213 9.41493 10.1199L8 8.70496L6.58507 10.1199C6.4914 10.213 6.36468 10.2653 6.23259 10.2653C6.1005 10.2653 5.97378 10.213 5.88011 10.1199C5.78699 10.0262 5.73472 9.8995 5.73472 9.76741C5.73472 9.63532 5.78699 9.50861 5.88011 9.41493L7.29504 8L5.88011 6.58507C5.7982 6.48943 5.7554 6.36639 5.76026 6.24056C5.76512 6.11473 5.81728 5.99537 5.90633 5.90633C5.99537 5.81728 6.11473 5.76512 6.24056 5.76026C6.36639 5.7554 6.48943 5.7982 6.58507 5.88011L8 7.29504L9.41493 5.88011C9.51057 5.7982 9.63361 5.7554 9.75944 5.76026C9.88527 5.76512 10.0046 5.81728 10.0937 5.90633C10.1827 5.99537 10.2349 6.11473 10.2397 6.24056C10.2446 6.36639 10.2018 6.48943 10.1199 6.58507V6.58507Z" fill="#EC5956"/>
</svg>
