<svg width="12.8" height="12" viewBox="0 0 14 14" fill="black" xmlns="http://www.w3.org/2000/svg" class="fill">
    <path
        d="M6.01035 0.0477908C6.06862 0.0164208 6.13377 0 6.19995 0C6.26613 0 6.33128 0.0164208 6.38955 0.0477908L10.9584 2.50783C11.2127 2.64473 11.4252 2.84789 11.5734 3.09579C11.7216 3.34368 11.7999 3.62706 11.8 3.91586V8.39994C11.8 8.93038 11.5893 9.4391 11.2143 9.81417C10.8392 10.1893 10.3305 10.4 9.80001 10.4H2.59989C2.06945 10.4 1.56073 10.1893 1.18565 9.81417C0.810571 9.4391 0.599854 8.93038 0.599854 8.39994V3.91666C0.599861 3.62772 0.678108 3.34418 0.826288 3.09613C0.974469 2.84808 1.18705 2.64479 1.44147 2.50783L6.01035 0.0477908ZM6.19995 0.854205L1.82067 3.21185C1.72352 3.2642 1.63826 3.33611 1.57027 3.42305L6.19995 5.55909L10.8296 3.42305C10.7616 3.33613 10.6764 3.26422 10.5792 3.21185L6.19995 0.854205ZM11 4.22466L6.36795 6.3631C6.3153 6.38747 6.25797 6.40009 6.19995 6.40009C6.14193 6.40009 6.0846 6.38747 6.03195 6.3631L1.39987 4.22466V8.39994C1.39987 8.7182 1.5263 9.02343 1.75135 9.24848C1.97639 9.47353 2.28162 9.59996 2.59989 9.59996H9.80001C10.1183 9.59996 10.4235 9.47353 10.6486 9.24848C10.8736 9.02343 11 8.7182 11 8.39994V4.22466ZM4.19992 12C3.88938 12.0002 3.58306 11.9281 3.3053 11.7892C3.02755 11.6503 2.78601 11.4486 2.59989 11.2H9.80001C10.5426 11.2 11.2548 10.905 11.7799 10.3799C12.3051 9.85476 12.6001 9.14256 12.6001 8.39994V3.59985C13.0857 3.96466 13.4001 4.54547 13.4001 5.19988V8.39994C13.4001 9.35473 13.0208 10.2704 12.3456 10.9456C11.6705 11.6207 10.7548 12 9.80001 12H4.19992Z">
    </path>
</svg>