<svg width="14" height="12" viewBox="0 0 14 12" fill="none" xmlns="http://www.w3.org/2000/svg">
<path fill-rule="evenodd" clip-rule="evenodd" d="M3.69201 0.974743C3.44794 0.730668 3.0522 0.730668 2.80813 0.974743L1.14146 2.64141C0.897386 2.88549 0.897386 3.28122 1.14146 3.52529L2.80813 5.19194C3.0522 5.43602 3.44794 5.43602 3.69201 5.19194C3.93609 4.94785 3.93609 4.55219 3.69201 4.30808L3.09229 3.70835H11.1667C11.5119 3.70835 11.7917 3.98818 11.7917 4.33335V4.75002C11.7917 5.09519 12.0716 5.37502 12.4167 5.37502C12.7619 5.37502 13.0417 5.09519 13.0417 4.75002V4.33335C13.0417 3.29782 12.2022 2.45835 11.1667 2.45835H3.09229L3.69201 1.85863C3.93609 1.61455 3.93609 1.21882 3.69201 0.974743Z" fill="#13BA9A"/>
<path fill-rule="evenodd" clip-rule="evenodd" d="M1.58334 6.625C1.92852 6.625 2.20834 6.90483 2.20834 7.25V7.66667C2.20834 8.01183 2.48817 8.29167 2.83334 8.29167H10.9078L10.3081 7.69192C10.064 7.44783 10.064 7.05217 10.3081 6.80808C10.5522 6.564 10.9478 6.564 11.1919 6.80808L12.8586 8.47475C13.1027 8.71883 13.1027 9.1145 12.8586 9.35858L11.1919 11.0253C10.9478 11.2693 10.5522 11.2693 10.3081 11.0253C10.064 10.7812 10.064 10.3855 10.3081 10.1414L10.9078 9.54167H2.83334C1.79781 9.54167 0.958344 8.70217 0.958344 7.66667V7.25C0.958344 6.90483 1.23817 6.625 1.58334 6.625Z" fill="#13BA9A"/>
</svg>
