<svg width="17" height="20" viewBox="0 0 17 20" fill="none" xmlns="http://www.w3.org/2000/svg">
<path d="M15.8672 9.61718L8.99219 0.867184C8.93372 0.792482 8.85902 0.732069 8.77375 0.690521C8.68847 0.648973 8.59486 0.62738 8.5 0.62738C8.40514 0.62738 8.31152 0.648973 8.22625 0.690521C8.14097 0.732069 8.06627 0.792482 8.00781 0.867184L1.13281 9.61718C1.04529 9.72558 0.997559 9.86068 0.997559 10C0.997559 10.1393 1.04529 10.2744 1.13281 10.3828L8.00781 19.1328C8.06627 19.2075 8.14097 19.2679 8.22625 19.3095C8.31152 19.351 8.40514 19.3726 8.5 19.3726C8.59486 19.3726 8.68847 19.351 8.77375 19.3095C8.85902 19.2679 8.93372 19.2075 8.99219 19.1328L15.8672 10.3828C15.9547 10.2744 16.0024 10.1393 16.0024 10C16.0024 9.86068 15.9547 9.72558 15.8672 9.61718ZM9.125 12.1562V3.05468L14.3906 9.75781L9.125 12.1562ZM7.875 12.1562L2.60937 9.75781L7.875 3.05468V12.1562ZM7.875 13.5312V16.9453L3.70312 11.6328L7.875 13.5312Z" fill="#E0E0E0"/>
</svg>
