<svg width="20" height="20" viewBox="0 0 20 20" fill="#EC5956" xmlns="http://www.w3.org/2000/svg">
    <g clip-path="url(#clip0_2333_18729)">
        <mask id="mask0_2333_18729" style="mask-type:alpha" maskUnits="userSpaceOnUse" x="0" y="0" width="20"
            height="20">
            <path fill-rule="evenodd" clip-rule="evenodd"
                d="M9.99984 16.25C13.4516 16.25 16.2498 13.4518 16.2498 10C16.2498 6.54824 13.4516 3.75002 9.99984 3.75002C6.54806 3.75002 3.74984 6.54824 3.74984 10C3.74984 13.4518 6.54806 16.25 9.99984 16.25ZM9.99984 18.3334C14.6022 18.3334 18.3332 14.6024 18.3332 10C18.3332 5.39765 14.6022 1.66669 9.99984 1.66669C5.39746 1.66669 1.6665 5.39765 1.6665 10C1.6665 14.6024 5.39746 18.3334 9.99984 18.3334Z"
                fill="#6B6B6B" />
            <path
                d="M9.39815 11.8572C9.30034 11.8572 9.2172 11.8294 9.14874 11.7739C9.08027 11.7183 9.04604 11.6508 9.04604 11.5715V6.11909C9.04604 6.03972 9.08027 5.97226 9.14874 5.91671C9.2172 5.86115 9.30034 5.83337 9.39815 5.83337H10.5865C10.6941 5.83337 10.7773 5.86115 10.8359 5.91671C10.9044 5.96433 10.9386 6.03179 10.9386 6.11909V11.5715C10.9386 11.6508 10.9044 11.7183 10.8359 11.7739C10.7773 11.8294 10.6941 11.8572 10.5865 11.8572H9.39815ZM9.31012 14.1667C9.21231 14.1667 9.12917 14.1389 9.06071 14.0834C8.99224 14.0278 8.95801 13.9604 8.95801 13.881V12.7739C8.95801 12.6865 8.99224 12.6151 9.06071 12.5596C9.12917 12.504 9.21231 12.4762 9.31012 12.4762H10.6746C10.7821 12.4762 10.8702 12.504 10.9386 12.5596C11.0071 12.6151 11.0413 12.6865 11.0413 12.7739V13.881C11.0413 13.9604 11.0071 14.0278 10.9386 14.0834C10.8702 14.1389 10.7821 14.1667 10.6746 14.1667H9.31012Z"
                fill="#6B6B6B" />
        </mask>
        <g mask="url(#mask0_2333_18729)">
            <rect width="20" height="20" />
        </g>
    </g>
</svg>