<svg width="20" height="20" viewBox="0 0 20 20" fill="none" xmlns="http://www.w3.org/2000/svg">
<g clip-path="url(#clip0_2333_18580)">
<mask id="mask0_2333_18580" style="mask-type:alpha" maskUnits="userSpaceOnUse" x="0" y="0" width="20" height="20">
<path d="M4.64082 12.5L7.51382 15.204C7.65443 15.3413 7.73553 15.5283 7.73967 15.7248C7.7438 15.9213 7.67064 16.1116 7.53592 16.2547C7.40121 16.3978 7.2157 16.4823 7.01932 16.49C6.82293 16.4977 6.63136 16.4281 6.48582 16.296L2.23582 12.296C2.16136 12.2259 2.10203 12.1413 2.06147 12.0474C2.02092 11.9535 2 11.8523 2 11.75C2 11.6477 2.02092 11.5465 2.06147 11.4526C2.10203 11.3587 2.16136 11.2741 2.23582 11.204L6.48582 7.204C6.55711 7.13438 6.64156 7.07967 6.73424 7.04306C6.82691 7.00645 6.92596 6.98867 7.02558 6.99077C7.1252 6.99286 7.22341 7.01479 7.31446 7.05527C7.40552 7.09575 7.48759 7.15396 7.55589 7.22652C7.62419 7.29907 7.67735 7.38451 7.71226 7.47784C7.74718 7.57117 7.76314 7.67052 7.75922 7.77008C7.7553 7.86965 7.73158 7.96744 7.68945 8.05774C7.64731 8.14804 7.58761 8.22904 7.51382 8.296L4.64082 11H14.7498C15.2139 11 15.6591 10.8156 15.9873 10.4874C16.3154 10.1592 16.4998 9.71413 16.4998 9.25V4.75C16.4998 4.55109 16.5788 4.36032 16.7195 4.21967C16.8601 4.07902 17.0509 4 17.2498 4C17.4487 4 17.6395 4.07902 17.7801 4.21967C17.9208 4.36032 17.9998 4.55109 17.9998 4.75V9.25C17.9998 10.112 17.6574 10.9386 17.0479 11.5481C16.4384 12.1576 15.6118 12.5 14.7498 12.5H4.64082Z" fill="#A4A4A4"/>
</mask>
<g mask="url(#mask0_2333_18580)">
<rect width="20" height="20" fill="#A4A4A4"/>
</g>
</g>
<defs>
<clipPath id="clip0_2333_18580">
<rect width="20" height="20" fill="white"/>
</clipPath>
</defs>
</svg>
