<svg width="21" height="20" viewBox="0 0 21 20" fill="none" xmlns="http://www.w3.org/2000/svg">
<g clip-path="url(#clip0_4368_230432)">
<path d="M9.70019 5.05078H10.3002H9.70019ZM7.2002 2.55078V1.95078V2.55078ZM4.7002 5.05078H4.1002H4.7002ZM7.2002 7.55078V8.15078V7.55078ZM10.3002 5.05078C10.3002 4.22861 9.97359 3.44011 9.39223 2.85875L8.5437 3.70728C8.90002 4.0636 9.10019 4.54687 9.10019 5.05078H10.3002ZM9.39223 2.85875C8.81086 2.27739 8.02237 1.95078 7.2002 1.95078V3.15078C7.70411 3.15078 8.18738 3.35096 8.5437 3.70728L9.39223 2.85875ZM7.2002 1.95078C6.37802 1.95078 5.58953 2.27739 5.00816 2.85875L5.85669 3.70728C6.21301 3.35096 6.69628 3.15078 7.2002 3.15078V1.95078ZM5.00816 2.85875C4.4268 3.44011 4.1002 4.22861 4.1002 5.05078H5.3002C5.3002 4.54687 5.50037 4.0636 5.85669 3.70728L5.00816 2.85875ZM9.10019 5.05078C9.10019 5.55469 8.90002 6.03797 8.5437 6.39428L9.39223 7.24281C9.97359 6.66145 10.3002 5.87295 10.3002 5.05078H9.10019ZM8.5437 6.39428C8.18738 6.7506 7.70411 6.95078 7.2002 6.95078V8.15078C8.02237 8.15078 8.81086 7.82418 9.39223 7.24281L8.5437 6.39428ZM7.2002 6.95078C6.69628 6.95078 6.21301 6.7506 5.85669 6.39428L5.00816 7.24281C5.58953 7.82418 6.37802 8.15078 7.2002 8.15078V6.95078ZM5.85669 6.39428C5.50037 6.03797 5.3002 5.55469 5.3002 5.05078H4.1002C4.1002 5.87295 4.4268 6.66145 5.00816 7.24281L5.85669 6.39428Z" fill="#A4A4A4"/>
<path d="M19.8332 5.75039C20.1645 5.75039 20.4332 5.48176 20.4332 5.15039C20.4332 4.81902 20.1645 4.55039 19.8332 4.55039V5.75039ZM1.1665 4.55039C0.835133 4.55039 0.566504 4.81902 0.566504 5.15039C0.566504 5.48176 0.835133 5.75039 1.1665 5.75039V4.55039ZM2.89381 5.75039C3.22519 5.75039 3.49381 5.48176 3.49381 5.15039C3.49381 4.81902 3.22519 4.55039 2.89381 4.55039V5.75039ZM11.5 4.55039C11.1686 4.55039 10.9 4.81902 10.9 5.15039C10.9 5.48176 11.1686 5.75039 11.5 5.75039V4.55039ZM2.1665 4.55039H1.1665V5.75039H2.1665V4.55039ZM2.89381 4.55039H2.1665V5.75039H2.89381V4.55039ZM19.8332 4.55039H11.5V5.75039H19.8332V4.55039Z" fill="#A4A4A4"/>
<path d="M11.3335 14.8496H10.7335H11.3335ZM13.8335 17.3496V17.9496V17.3496ZM16.3335 14.8496H16.9335H16.3335ZM13.8335 12.3496V11.7496V12.3496ZM10.7335 14.8496C10.7335 15.6718 11.0601 16.4603 11.6415 17.0416L12.49 16.1931C12.1337 15.8368 11.9335 15.3535 11.9335 14.8496H10.7335ZM11.6415 17.0416C12.2228 17.623 13.0113 17.9496 13.8335 17.9496V16.7496C13.3296 16.7496 12.8463 16.5494 12.49 16.1931L11.6415 17.0416ZM13.8335 17.9496C14.6557 17.9496 15.4442 17.623 16.0255 17.0416L15.177 16.1931C14.8207 16.5494 14.3374 16.7496 13.8335 16.7496V17.9496ZM16.0255 17.0416C16.6069 16.4603 16.9335 15.6718 16.9335 14.8496H15.7335C15.7335 15.3535 15.5333 15.8368 15.177 16.1931L16.0255 17.0416ZM11.9335 14.8496C11.9335 14.3457 12.1337 13.8624 12.49 13.5061L11.6415 12.6576C11.0601 13.2389 10.7335 14.0274 10.7335 14.8496H11.9335ZM12.49 13.5061C12.8463 13.1498 13.3296 12.9496 13.8335 12.9496V11.7496C13.0113 11.7496 12.2228 12.0762 11.6415 12.6576L12.49 13.5061ZM13.8335 12.9496C14.3374 12.9496 14.8207 13.1498 15.177 13.5061L16.0255 12.6576C15.4442 12.0762 14.6557 11.7496 13.8335 11.7496V12.9496ZM15.177 13.5061C15.5333 13.8624 15.7335 14.3457 15.7335 14.8496H16.9335C16.9335 14.0274 16.6069 13.2389 16.0255 12.6576L15.177 13.5061Z" fill="#A4A4A4"/>
<path d="M1.16634 14.2496C0.834969 14.2496 0.566339 14.5182 0.566339 14.8496C0.566339 15.181 0.834969 15.4496 1.16634 15.4496V14.2496ZM19.833 15.4496C20.1644 15.4496 20.433 15.181 20.433 14.8496C20.433 14.5182 20.1644 14.2496 19.833 14.2496V15.4496ZM18.1051 14.2496C17.7737 14.2496 17.5051 14.5182 17.5051 14.8496C17.5051 15.181 17.7737 15.4496 18.1051 15.4496V14.2496ZM9.5 15.4496C9.83137 15.4496 10.1 15.181 10.1 14.8496C10.1 14.5182 9.83137 14.2496 9.5 14.2496V15.4496ZM18.833 15.4496H19.833V14.2496H18.833V15.4496ZM18.1051 15.4496H18.833V14.2496H18.1051V15.4496ZM1.16634 15.4496L9.5 15.4496V14.2496L1.16634 14.2496V15.4496Z" fill="#A4A4A4"/>
</g>
<defs>
<clipPath id="clip0_4368_230432">
<rect width="20" height="20" fill="white" transform="translate(0.5)"/>
</clipPath>
</defs>
</svg>
