<svg width="15" height="17" viewBox="0 0 15 17" fill="none" xmlns="http://www.w3.org/2000/svg">
<path d="M3.95833 3C3.79257 3 3.6336 3.06585 3.51639 3.18306C3.39918 3.30027 3.33333 3.45924 3.33333 3.625V7.375C3.33333 7.72 3.61333 8 3.95833 8H8.54167C8.70743 8 8.8664 7.93415 8.98361 7.81694C9.10082 7.69973 9.16667 7.54076 9.16667 7.375V3.625C9.16667 3.45924 9.10082 3.30027 8.98361 3.18306C8.8664 3.06585 8.70743 3 8.54167 3H3.95833ZM4.58333 6.75V4.25H7.91667V6.75H4.58333ZM3.125 0.5C2.51721 0.5 1.93432 0.741443 1.50455 1.17121C1.07478 1.60098 0.833333 2.18388 0.833333 2.79167V15.0833H0.625C0.45924 15.0833 0.300268 15.1492 0.183058 15.2664C0.0658479 15.3836 0 15.5426 0 15.7083C0 15.8741 0.0658479 16.0331 0.183058 16.1503C0.300268 16.2675 0.45924 16.3333 0.625 16.3333H11.875C12.0408 16.3333 12.1997 16.2675 12.3169 16.1503C12.4342 16.0331 12.5 15.8741 12.5 15.7083C12.5 15.5426 12.4342 15.3836 12.3169 15.2664C12.1997 15.1492 12.0408 15.0833 11.875 15.0833H11.6667V13.5808C12.0154 13.7601 12.4044 13.8467 12.7963 13.8324C13.1882 13.818 13.5698 13.7032 13.9044 13.4988C14.2391 13.2945 14.5157 13.0075 14.7075 12.6655C14.8994 12.3235 15.0001 11.938 15 11.5458V6.68083C15 6.18499 14.8392 5.70251 14.5417 5.30583L13.625 4.08333C13.5255 3.95073 13.3775 3.86306 13.2134 3.83962C13.0493 3.81617 12.8826 3.85888 12.75 3.95833C12.6174 4.05779 12.5297 4.20585 12.5063 4.36995C12.4828 4.53404 12.5255 4.70073 12.625 4.83333L13.5417 6.05583C13.6767 6.23583 13.75 6.45583 13.75 6.68083V11.5458C13.75 11.6821 13.7232 11.817 13.671 11.9429C13.6189 12.0687 13.5425 12.1831 13.4461 12.2795C13.3498 12.3758 13.2354 12.4522 13.1095 12.5044C12.9837 12.5565 12.8487 12.5833 12.7125 12.5833C12.5763 12.5833 12.4413 12.5565 12.3155 12.5044C12.1896 12.4522 12.0752 12.3758 11.9789 12.2795C11.8825 12.1831 11.8061 12.0687 11.754 11.9429C11.7018 11.817 11.675 11.6821 11.675 11.5458V10.0833C11.6749 10.0496 11.6721 10.0158 11.6667 9.9825V2.79167C11.6667 2.49072 11.6074 2.19272 11.4922 1.91468C11.3771 1.63665 11.2083 1.38401 10.9955 1.17121C10.7827 0.958413 10.53 0.78961 10.252 0.674443C9.97394 0.559276 9.67595 0.5 9.375 0.5H3.125ZM10.4167 15.0833H2.08333V2.79167C2.08333 2.21667 2.55 1.75 3.125 1.75H9.375C9.95 1.75 10.4167 2.21667 10.4167 2.79167V15.0833Z" fill="#EFEFEF"/>
</svg>
