<svg width="20" height="20" viewBox="0 0 20 20" fill="#6b6b6b" xmlns="http://www.w3.org/2000/svg">
    <g clip-path="url(#clip0_2368_14215)">
        <mask id="mask0_2368_14215" x="0" y="0" width="20" height="20">
            <path
                d="M2.85414 2.1459C2.80766 2.09941 2.75247 2.06254 2.69173 2.03738C2.63099 2.01222 2.56589 1.99927 2.50014 1.99927C2.4344 1.99927 2.3693 2.01222 2.30856 2.03738C2.24782 2.06254 2.19263 2.09941 2.14614 2.1459C2.09966 2.19239 2.06278 2.24758 2.03762 2.30832C2.01246 2.36906 1.99951 2.43416 1.99951 2.4999C1.99951 2.56564 2.01246 2.63074 2.03762 2.69148C2.06278 2.75222 2.09966 2.80741 2.14614 2.8539L5.64614 6.3519C3.91272 7.53423 2.70595 9.3433 2.28014 11.3979C2.26675 11.4622 2.26615 11.5285 2.27837 11.593C2.2906 11.6575 2.31541 11.719 2.35139 11.7739C2.38737 11.8288 2.43382 11.8761 2.48808 11.9131C2.54235 11.9501 2.60336 11.976 2.66764 11.9894C2.73193 12.0028 2.79822 12.0034 2.86273 11.9912C2.92725 11.9789 2.98872 11.9541 3.04365 11.9182C3.09857 11.8822 3.14587 11.8357 3.18285 11.7815C3.21982 11.7272 3.24575 11.6662 3.25914 11.6019C3.45003 10.6784 3.82323 9.80224 4.35691 9.02474C4.89058 8.24724 5.57399 7.58402 6.36714 7.0739L7.95014 8.6559C7.53757 8.95183 7.19432 9.33398 6.94421 9.77583C6.6941 10.2177 6.54312 10.7087 6.50175 11.2147C6.46037 11.7207 6.52958 12.2297 6.70459 12.7063C6.8796 13.183 7.15621 13.6158 7.51523 13.9748C7.87425 14.3338 8.30708 14.6104 8.7837 14.7854C9.26031 14.9605 9.7693 15.0297 10.2753 14.9883C10.7814 14.9469 11.2724 14.7959 11.7142 14.5458C12.1561 14.2957 12.5382 13.9525 12.8341 13.5399L17.1471 17.8539C17.241 17.9478 17.3684 18.0005 17.5011 18.0005C17.6339 18.0005 17.7613 17.9478 17.8551 17.8539C17.949 17.76 18.0018 17.6327 18.0018 17.4999C18.0018 17.3671 17.949 17.2398 17.8551 17.1459L2.85514 2.1459H2.85414Z" />
            <path
                d="M10.124 8.00293L13.487 11.3659C13.4532 10.4848 13.088 9.64897 12.4645 9.02547C11.841 8.40198 11.0051 8.03679 10.124 8.00293Z" />
            <path
                d="M7.53125 5.41L8.33425 6.213C8.87831 6.07168 9.43813 6.00011 10.0002 6C13.2063 6 16.0573 8.327 16.7402 11.602C16.7673 11.732 16.8449 11.8458 16.9559 11.9186C17.0669 11.9914 17.2023 12.0171 17.3323 11.99C17.4622 11.9629 17.5761 11.8854 17.6489 11.7744C17.7216 11.6633 17.7473 11.528 17.7202 11.398C16.9432 7.673 13.6932 5 10.0002 5C9.14525 5 8.31325 5.143 7.53125 5.41Z" />
        </mask>
        <g mask="url(#mask0_2368_14215)">
            <rect width="20" height="20" />
        </g>
    </g>
</svg>