<svg width="10" height="10" viewBox="0 0 10 10" fill="#A4A4A4" xmlns="http://www.w3.org/2000/svg">
    <path fill-rule="evenodd" clip-rule="evenodd"
        d="M4.99998 9.16665C7.30117 9.16665 9.16665 7.30117 9.16665 4.99998C9.16665 2.69879 7.30117 0.833313 4.99998 0.833313C2.69879 0.833313 0.833313 2.69879 0.833313 4.99998C0.833313 7.30117 2.69879 9.16665 4.99998 9.16665ZM4.64748 7.11081C4.6747 7.13803 4.70776 7.15165 4.74665 7.15165H5.23081C5.27359 7.15165 5.30665 7.13803 5.32998 7.11081C5.3572 7.08359 5.37081 7.05053 5.37081 7.01165V4.25831C5.37081 4.21942 5.3572 4.18637 5.32998 4.15915C5.30665 4.13192 5.27359 4.11831 5.23081 4.11831H4.74665C4.70776 4.11831 4.6747 4.13192 4.64748 4.15915C4.62026 4.18637 4.60665 4.21942 4.60665 4.25831V7.01165C4.60665 7.05053 4.62026 7.08359 4.64748 7.11081ZM4.61831 3.58165C4.64554 3.60498 4.68054 3.61665 4.72331 3.61665H5.25415C5.29692 3.61665 5.33192 3.60498 5.35915 3.58165C5.38637 3.55442 5.39998 3.51942 5.39998 3.47665V3.05665C5.39998 3.01776 5.38637 2.9847 5.35915 2.95748C5.33192 2.93026 5.29692 2.91665 5.25415 2.91665H4.72331C4.68054 2.91665 4.64554 2.93026 4.61831 2.95748C4.59498 2.9847 4.58331 3.01776 4.58331 3.05665V3.47665C4.58331 3.51942 4.59498 3.55442 4.61831 3.58165Z" />
</svg>