<svg xmlns="http://www.w3.org/2000/svg" width="14" height="14" viewBox="0 0 14 14" fill="none">
  <mask id="mask0_2302_6833" style="mask-type:alpha" maskUnits="userSpaceOnUse" x="-1" y="-1" width="16" height="16">
  <path fill-rule="evenodd" clip-rule="evenodd" d="M6.99992 13.6668C10.6818 13.6668 13.6666 10.6821 13.6666 7.00016C13.6666 3.31826 10.6818 0.333496 6.99992 0.333496C3.31802 0.333496 0.333252 3.31826 0.333252 7.00016C0.333252 10.6821 3.31802 13.6668 6.99992 13.6668ZM6.43592 10.3775C6.47947 10.4211 6.53236 10.4428 6.59459 10.4428H7.36925C7.4377 10.4428 7.49059 10.4211 7.52792 10.3775C7.57147 10.3339 7.59325 10.2811 7.59325 10.2188V5.8135C7.59325 5.75127 7.57147 5.69838 7.52792 5.65483C7.49059 5.61127 7.4377 5.5895 7.36925 5.5895H6.59459C6.53236 5.5895 6.47947 5.61127 6.43592 5.65483C6.39236 5.69838 6.37059 5.75127 6.37059 5.8135V10.2188C6.37059 10.2811 6.39236 10.3339 6.43592 10.3775ZM6.38925 4.73083C6.43281 4.76816 6.48881 4.78683 6.55725 4.78683H7.40659C7.47503 4.78683 7.53103 4.76816 7.57459 4.73083C7.61814 4.68727 7.63992 4.63127 7.63992 4.56283V3.89083C7.63992 3.82861 7.61814 3.77572 7.57459 3.73216C7.53103 3.68861 7.47503 3.66683 7.40659 3.66683H6.55725C6.48881 3.66683 6.43281 3.68861 6.38925 3.73216C6.35192 3.77572 6.33325 3.82861 6.33325 3.89083V4.56283C6.33325 4.63127 6.35192 4.68727 6.38925 4.73083Z" fill="#A4A4A4"/>
  </mask>
  <g mask="url(#mask0_2302_6833)">
  <rect width="14" height="14" fill="#28ADAD"/>
  </g>
</svg>