<svg width="14" height="14" viewBox="0 0 14 14" fill="#6b6b6b" xmlns="http://www.w3.org/2000/svg">
    <path fill-rule="evenodd" clip-rule="evenodd"
        d="M6.99998 12C9.7614 12 12 9.76143 12 7.00001C12 4.23859 9.7614 2.00001 6.99998 2.00001C4.23856 2.00001 1.99998 4.23859 1.99998 7.00001C1.99998 9.76143 4.23856 12 6.99998 12ZM6.99998 13.6667C10.6819 13.6667 13.6666 10.6819 13.6666 7.00001C13.6666 3.31811 10.6819 0.333344 6.99998 0.333344C3.31808 0.333344 0.333313 3.31811 0.333313 7.00001C0.333313 10.6819 3.31808 13.6667 6.99998 13.6667Z" />
    <path
        d="M6.51877 8.48573C6.44052 8.48573 6.37401 8.46351 6.31924 8.41907C6.26447 8.37462 6.23708 8.32066 6.23708 8.25716V3.89526C6.23708 3.83177 6.26447 3.7778 6.31924 3.73335C6.37401 3.68891 6.44052 3.66669 6.51877 3.66669H7.46947C7.55555 3.66669 7.62206 3.68891 7.669 3.73335C7.72378 3.77145 7.75116 3.82542 7.75116 3.89526V8.25716C7.75116 8.32066 7.72378 8.37462 7.669 8.41907C7.62206 8.46351 7.55555 8.48573 7.46947 8.48573H6.51877ZM6.44835 10.3334C6.3701 10.3334 6.30359 10.3111 6.24882 10.2667C6.19404 10.2222 6.16666 10.1683 6.16666 10.1048V9.21907C6.16666 9.14923 6.19404 9.09208 6.24882 9.04764C6.30359 9.00319 6.3701 8.98097 6.44835 8.98097H7.5399C7.62597 8.98097 7.69639 9.00319 7.75116 9.04764C7.80594 9.09208 7.83332 9.14923 7.83332 9.21907V10.1048C7.83332 10.1683 7.80594 10.2222 7.75116 10.2667C7.69639 10.3111 7.62597 10.3334 7.5399 10.3334H6.44835Z" />
</svg>