<svg width="12" height="12" viewBox="0 0 11 10" fill="none" stroke="#a4a4a4" xmlns="http://www.w3.org/2000/svg"
    class="align-top icon-info">
    <path
        d="M5.49805 0.708984C3.01405 0.708984 0.998047 2.72498 0.998047 5.20898C0.998047 7.69298 3.01405 9.70898 5.49805 9.70898C7.98205 9.70898 9.99805 7.69298 9.99805 5.20898C9.99805 2.72498 7.98205 0.708984 5.49805 0.708984ZM5.94805 7.00898C5.94805 7.25751 5.74657 7.45898 5.49805 7.45898V7.45898C5.24952 7.45898 5.04805 7.25751 5.04805 7.00898V5.20898C5.04805 4.96046 5.24952 4.75898 5.49805 4.75898V4.75898C5.74657 4.75898 5.94805 4.96046 5.94805 5.20898V7.00898ZM5.94805 3.40898C5.94805 3.65751 5.74657 3.85898 5.49805 3.85898V3.85898C5.24952 3.85898 5.04805 3.65751 5.04805 3.40898V3.40898C5.04805 3.16046 5.24952 2.95898 5.49805 2.95898V2.95898C5.74657 2.95898 5.94805 3.16046 5.94805 3.40898V3.40898Z"
        stroke-width="0.5"></path>
</svg>