<svg width="24" height="16" viewBox="0 0 24 16" fill="#6B6B6B" xmlns="http://www.w3.org/2000/svg">
<path d="M1.25382 15.0021C1.62664 15.3783 2.23467 15.378 2.60717 15.0016L8.44115 9.1061C8.81365 8.72968 9.42168 8.72942 9.7945 9.10554L13.1915 12.5326C13.5795 12.9241 14.2179 12.9054 14.5824 12.4918L23.5013 2.37173C23.8326 1.99581 23.816 1.42746 23.4632 1.07158L23.1181 0.723416C22.7301 0.331988 22.0919 0.350609 21.7274 0.763991L14.5824 8.86699C14.2179 9.28038 13.5796 9.299 13.1916 8.90757L9.79438 5.48021C9.42162 5.10414 8.81366 5.10434 8.44115 5.48066L0.797773 13.202C0.430219 13.5733 0.430418 14.1714 0.798219 14.5425L1.25382 15.0021Z" />
</svg>
