<svg width="16" height="16" viewBox="0 0 16 16" fill="none" stroke="#878787" xmlns="http://www.w3.org/2000/svg">
<path d="M6.67194 1.15V14.85H1.48861C1.43998 14.85 1.39335 14.8307 1.35897 14.7963C1.32459 14.7619 1.30527 14.7153 1.30527 14.6667V1.33333C1.30527 1.28471 1.32459 1.23808 1.35897 1.2037C1.39335 1.16932 1.43998 1.15 1.48861 1.15H6.67194ZM15.0053 9.48333V14.6667C15.0053 14.7153 14.986 14.7619 14.9516 14.7963L15.4112 15.2559L14.9516 14.7963C14.9172 14.8307 14.8706 14.85 14.8219 14.85H9.63861V9.48333H15.0053ZM14.8219 1.15C14.8706 1.15 14.9172 1.16932 14.9516 1.2037C14.986 1.23808 15.0053 1.28471 15.0053 1.33333V6.51667H9.63861V1.15H14.8219Z"  stroke-width="1.3"/>
</svg>
