<svg width="20" height="20" viewBox="0 0 20 20" fill="none" xmlns="http://www.w3.org/2000/svg">
<path opacity="0.8" d="M18 10C18 14.4183 14.4183 18 10 18C5.58172 18 2 14.4183 2 10C2 5.58172 5.58172 2 10 2C14.4183 2 18 5.58172 18 10ZM4.4 10C4.4 13.0928 6.90721 15.6 10 15.6C13.0928 15.6 15.6 13.0928 15.6 10C15.6 6.90721 13.0928 4.4 10 4.4C6.90721 4.4 4.4 6.90721 4.4 10Z" fill="url(#paint0_linear_2333_18674)"/>
<path opacity="0.8" d="M10 3.2C10 2.53726 10.5402 1.99079 11.1955 2.08983C11.8348 2.18645 12.4614 2.36042 13.0615 2.60896C14.0321 3.011 14.914 3.60028 15.6569 4.34315C16.3997 5.08602 16.989 5.96793 17.391 6.93853C17.7931 7.90914 18 8.94943 18 10C18 11.0506 17.7931 12.0909 17.391 13.0615C16.989 14.0321 16.3997 14.914 15.6569 15.6569C14.914 16.3997 14.0321 16.989 13.0615 17.391C12.4614 17.6396 11.8348 17.8136 11.1955 17.9102C10.5402 18.0092 10 17.4627 10 16.8V16.8C10 16.1373 10.5433 15.6129 11.1908 15.4719C11.5157 15.4012 11.8344 15.3016 12.143 15.1737C12.8224 14.8923 13.4398 14.4798 13.9598 13.9598C14.4798 13.4398 14.8923 12.8225 15.1737 12.143C15.4552 11.4636 15.6 10.7354 15.6 10C15.6 9.2646 15.4552 8.5364 15.1737 7.85697C14.8923 7.17755 14.4798 6.56021 13.9598 6.0402C13.4398 5.52019 12.8225 5.1077 12.143 4.82627C11.8344 4.69844 11.5157 4.59878 11.1908 4.52808C10.5433 4.38715 10 3.86274 10 3.2V3.2Z" fill="#1AE5BE"/>
<defs>
<linearGradient id="paint0_linear_2333_18674" x1="2" y1="2" x2="19.3592" y2="3.64347" gradientUnits="userSpaceOnUse">
<stop stop-color="#467AFF"/>
<stop offset="1" stop-color="#8E74FC" stop-opacity="0.8"/>
</linearGradient>
</defs>
</svg>
