<svg width="20" height="20" viewBox="0 0 20 20" fill="none" xmlns="http://www.w3.org/2000/svg">
<g opacity="0.5">
<path d="M11.4583 11.6665C11.4583 12.2483 11.1177 12.7504 10.625 12.9845V14.1665C10.625 14.5117 10.3452 14.7915 10 14.7915C9.65482 14.7915 9.375 14.5117 9.375 14.1665V12.9845C8.8823 12.7504 8.54167 12.2483 8.54167 11.6665C8.54167 10.8611 9.19458 10.2082 10 10.2082C10.8054 10.2082 11.4583 10.8611 11.4583 11.6665Z" fill="#BDBDBD"/>
<path fill-rule="evenodd" clip-rule="evenodd" d="M10 1.0415C8.72917 1.0415 7.51039 1.54634 6.61178 2.44495C5.71317 3.34356 5.20833 4.56234 5.20833 5.83317C5.20833 5.90894 5.22182 5.98157 5.24652 6.04878C5.10048 6.05251 4.96515 6.05817 4.83957 6.06674C4.4591 6.0927 4.12268 6.14743 3.80411 6.27938C3.0384 6.59655 2.43005 7.20491 2.11288 7.97062C1.98092 8.28918 1.9262 8.62561 1.90024 9.00607C1.87499 9.37608 1.875 9.83071 1.875 10.3943V14.6054C1.875 15.169 1.87499 15.6236 1.90024 15.9936C1.9262 16.3741 1.98092 16.7105 2.11288 17.0291C2.43005 17.7948 3.0384 18.4031 3.80411 18.7203C4.12268 18.8522 4.4591 18.907 4.83957 18.9329C5.20957 18.9582 5.6642 18.9582 6.2278 18.9582H13.7722C14.3358 18.9582 14.7904 18.9582 15.1604 18.9329C15.5409 18.907 15.8773 18.8522 16.1959 18.7203C16.9616 18.4031 17.57 17.7948 17.8871 17.0291C18.0191 16.7105 18.0738 16.3741 18.0998 15.9936C18.125 15.6236 18.125 15.169 18.125 14.6054V10.3943C18.125 9.8307 18.125 9.37607 18.0998 9.00607C18.0738 8.62561 18.0191 8.28918 17.8871 7.97062C17.57 7.20491 16.9616 6.59655 16.1959 6.27938C15.8773 6.14743 15.5409 6.0927 15.1604 6.06674C15.0348 6.05817 14.8995 6.05251 14.7535 6.04878C14.7782 5.98157 14.7917 5.90894 14.7917 5.83317C14.7917 4.56234 14.2868 3.34356 13.3882 2.44495C12.4896 1.54634 11.2708 1.0415 10 1.0415ZM13.5772 6.0415C13.5542 5.97634 13.5417 5.90622 13.5417 5.83317C13.5417 4.89386 13.1685 3.99303 12.5043 3.32883C11.8401 2.66464 10.9393 2.2915 10 2.2915C9.06069 2.2915 8.15985 2.66464 7.49566 3.32883C6.83147 3.99303 6.45833 4.89386 6.45833 5.83317C6.45833 5.90622 6.4458 5.97634 6.42277 6.0415H13.5772ZM4.92466 7.31384C4.60784 7.33546 4.42333 7.37588 4.28247 7.43423C3.82304 7.62453 3.45803 7.98955 3.26773 8.44897C3.20938 8.58984 3.16895 8.77434 3.14734 9.09116C3.12534 9.41359 3.125 9.82553 3.125 10.4165V14.5832C3.125 15.1742 3.12534 15.5861 3.14734 15.9085C3.16895 16.2253 3.20938 16.4098 3.26773 16.5507C3.45803 17.0101 3.82304 17.3751 4.28247 17.5654C4.42333 17.6238 4.60784 17.6642 4.92466 17.6858C5.24709 17.7078 5.65902 17.7082 6.25 17.7082H13.75C14.341 17.7082 14.7529 17.7078 15.0753 17.6858C15.3922 17.6642 15.5767 17.6238 15.7175 17.5654C16.177 17.3751 16.542 17.0101 16.7323 16.5507C16.7906 16.4098 16.831 16.2253 16.8527 15.9085C16.8747 15.5861 16.875 15.1742 16.875 14.5832V10.4165C16.875 9.82553 16.8747 9.41359 16.8527 9.09116C16.831 8.77434 16.7906 8.58984 16.7323 8.44897C16.542 7.98955 16.177 7.62453 15.7175 7.43423C15.5767 7.37588 15.3922 7.33546 15.0753 7.31384C14.7529 7.29184 14.341 7.2915 13.75 7.2915H6.25C5.65902 7.2915 5.24709 7.29184 4.92466 7.31384Z" fill="#BDBDBD"/>
</g>
</svg>
