<svg width="14" height="14" viewBox="0 0 14 14" fill="none" xmlns="http://www.w3.org/2000/svg">
<g clip-path="url(#clip0_549_24539)">
<path d="M1.23438 13.1875H2.64062C3.18344 13.1875 3.625 12.7459 3.625 12.2031V5.73438C3.625 5.19156 3.18344 4.75 2.64062 4.75H1.23438C0.691563 4.75 0.25 5.19156 0.25 5.73438V12.2031C0.25 12.7459 0.691563 13.1875 1.23438 13.1875Z" fill="#0C4FFE"/>
<path d="M7.43931 0.671875C6.87681 0.671875 6.59556 0.953125 6.59556 2.35938C6.59556 3.69587 5.30125 4.77137 4.46875 5.32544V12.2937C5.36931 12.7105 7.17213 13.3281 9.97056 13.3281H10.8706C11.9674 13.3281 12.9012 12.5406 13.0868 11.4606L13.7168 7.80438C13.9531 6.42625 12.8956 5.17188 11.5006 5.17188H8.84556C8.84556 5.17188 9.26744 4.32812 9.26744 2.92188C9.26744 1.23438 8.00181 0.671875 7.43931 0.671875Z" fill="#0C4FFE"/>
</g>
<defs>
<clipPath id="clip0_549_24539">
<rect width="13.5" height="13.5" fill="white" transform="translate(0.25 0.25)"/>
</clipPath>
</defs>
</svg>
