<svg width="14" height="14" viewBox="0 0 14 14" fill="#000" xmlns="http://www.w3.org/2000/svg">
<path d="M0 0.00012207V14.0001H14V0.00012207H0ZM11.625 3.34387L10.875 4.06262C10.8125 4.09387 10.7812 4.18762 10.7812 4.25012V9.56262C10.7812 9.62512 10.8125 9.71887 10.875 9.75012L11.5938 10.4689V10.6251H7.90625V10.4689L8.6875 9.75012C8.75 9.65637 8.75 9.65637 8.75 9.53137V5.25012L6.625 10.6251H6.34375L3.90625 5.25012V8.84387C3.875 9.00012 3.9375 9.15637 4.03125 9.25012L5.03125 10.4689V10.6251H2.21875V10.4689L3.1875 9.25012C3.3125 9.15637 3.34375 9.00012 3.3125 8.84387V4.68762C3.34375 4.59387 3.28125 4.46887 3.21875 4.37512L2.34375 3.34387V3.15637H5.0625L7.15625 7.78137L9.03125 3.18762H11.625V3.34387Z"/>
</svg>
