<svg width="200" height="200" viewBox="0 0 200 200" fill="none" xmlns="http://www.w3.org/2000/svg">
    <g clip-path="url(#clip0_507_73604)">
        <path
            d="M195.282 146.339V169.788C195.282 172.575 193.027 174.83 190.24 174.83H9.76018C6.97347 174.83 4.71761 172.575 4.71761 169.788V146.339C4.71761 145.804 4.80081 145.273 4.97151 144.765L30.5055 67.2031C31.1832 65.1336 33.1141 63.7383 35.2946 63.7383H164.706C166.886 63.7383 168.817 65.1336 169.495 67.2031L195.029 144.765C195.199 145.273 195.282 145.804 195.282 146.339Z"
            fill="#ABABAB" />
        <path
            d="M195.282 146.339V169.788C195.282 172.575 193.027 174.83 190.24 174.83H159.921C159.818 139.084 160.369 80.0871 160.531 63.7383H164.706C166.886 63.7383 168.817 65.1336 169.495 67.2031L195.029 144.765C195.199 145.273 195.282 145.804 195.282 146.339Z"
            fill="#9D9D9D" />
        <path
            d="M4.71641 146.339V169.788C4.71641 172.575 6.97227 174.83 9.75899 174.83H40.0781C40.1813 139.084 39.6301 80.0871 39.4676 63.7383H35.2934C33.1129 63.7383 31.1824 65.1336 30.5043 67.2031L4.97031 144.765C4.8 145.273 4.71641 145.804 4.71641 146.339Z"
            fill="#9D9D9D" />
        <path
            d="M176.124 144.763L160.575 97.5341C159.895 95.4661 157.964 94.0688 155.786 94.0688H44.2133C42.0363 94.0688 40.1051 95.4661 39.4242 97.5341L23.8758 144.763C23.7082 145.272 23.623 145.804 23.623 146.34V169.789C23.623 172.574 25.8805 174.831 28.6648 174.831H171.336C174.12 174.831 176.377 172.574 176.377 169.789V146.34C176.377 145.804 176.292 145.272 176.124 144.763Z"
            fill="#E0E0E0" />
        <path
            d="M100 135.864C120.356 135.864 136.858 131.225 136.858 125.502C136.858 119.779 120.356 115.139 100 115.139C79.644 115.139 63.1422 119.779 63.1422 125.502C63.1422 131.225 79.644 135.864 100 135.864Z"
            fill="#A4A4A4" />
        <path
            d="M176.377 146.341V169.79C176.377 172.573 174.118 174.832 171.335 174.832H153.795C156.578 174.832 158.837 172.573 158.837 169.79V146.341C158.837 145.807 158.751 145.272 158.585 144.763L143.036 97.532C142.355 95.4648 140.424 94.0684 138.246 94.0684H155.787C157.965 94.0684 159.896 95.4648 160.576 97.532L176.125 144.763C176.291 145.272 176.377 145.807 176.377 146.341Z"
            fill="#BDBDBD" />
        <path
            d="M195.284 151.206V194.958C195.284 197.743 193.026 200 190.242 200H9.75821C6.97383 200 4.71641 197.743 4.71641 194.958V151.206C4.71641 148.422 6.97383 146.165 9.75821 146.165H46.9836C48.9102 146.165 50.6684 147.263 51.5141 148.994L58.8289 163.971C59.6742 165.702 61.4324 166.8 63.3594 166.8H136.641C138.567 166.8 140.325 165.702 141.171 163.971L148.486 148.994C149.331 147.263 151.089 146.165 153.016 146.165H190.242C193.026 146.165 195.284 148.422 195.284 151.206Z"
            fill="#BEBEBE" />
        <path
            d="M195.284 151.206V194.958C195.284 197.741 193.025 200 190.242 200H171.044C173.827 200 176.086 197.741 176.086 194.958V151.206C176.086 148.424 173.827 146.165 171.044 146.165H190.242C193.025 146.165 195.284 148.424 195.284 151.206Z"
            fill="#ACACAC" />
        <path
            d="M30.766 189.254H19.8855C18.2434 189.254 16.9125 187.923 16.9125 186.281C16.9125 184.639 18.2438 183.308 19.8855 183.308H30.766C32.4082 183.308 33.7391 184.639 33.7391 186.281C33.7391 187.923 32.4082 189.254 30.766 189.254Z"
            fill="#F8F3F1" />
        <path
            d="M30.766 179.966H19.8855C18.2434 179.966 16.9125 178.635 16.9125 176.993C16.9125 175.35 18.2438 174.02 19.8855 174.02H30.766C32.4082 174.02 33.7391 175.351 33.7391 176.993C33.7395 178.635 32.4082 179.966 30.766 179.966Z"
            fill="#F8F3F1" />
        <path
            d="M100 126.764C119.053 126.764 134.499 111.318 134.499 92.2647C134.499 73.2115 119.053 57.7659 100 57.7659C80.9468 57.7659 65.5012 73.2115 65.5012 92.2647C65.5012 111.318 80.9468 126.764 100 126.764Z"
            fill="#F4F4F4" />
        <path
            d="M134.498 92.2638C134.498 111.318 119.052 126.765 100.002 126.765C97.6859 126.765 95.4223 126.537 93.2332 126.099C109.043 122.951 120.957 108.997 120.957 92.2638C120.957 75.5302 109.043 61.581 93.2332 58.433C95.4223 57.9951 97.6859 57.7673 100.002 57.7673C119.052 57.7673 134.498 73.2095 134.498 92.2638Z"
            fill="#E0E0E0" />
        <path
            d="M41.373 31.5222C41.373 25.6663 46.1199 20.9194 51.9758 20.9194C57.8316 20.9194 62.5781 25.6663 62.5781 31.5222C62.5781 37.378 57.8313 42.1249 51.9754 42.1249C46.1195 42.1249 41.373 37.378 41.373 31.5222Z"
            fill="#E0E0E0" />
        <path
            d="M46.5981 40.6589C50.7602 39.6995 53.8609 35.9737 53.8609 31.521C53.8609 27.0729 50.7648 23.3421 46.6027 22.3827C48.1773 21.4522 50.0137 20.9194 51.9762 20.9194C57.8293 20.9194 62.5773 25.6679 62.5773 31.521C62.5773 37.3788 57.8289 42.1272 51.9762 42.1272C50.0137 42.1272 48.1727 41.594 46.5981 40.6589Z"
            fill="#D9D9D9" />
        <path
            d="M86.3758 0.870996C85.2148 -0.290332 83.3324 -0.290332 82.1711 0.870996L79.7676 3.27451L77.3641 0.870996C76.2031 -0.289941 74.3203 -0.289941 73.1594 0.870996C71.998 2.03193 71.998 3.91475 73.1594 5.07568L75.5629 7.4792L73.1594 9.88271C71.998 11.0437 71.998 12.9265 73.1594 14.0874C73.7398 14.6683 74.5008 14.9581 75.2617 14.9581C76.0223 14.9581 76.7836 14.6679 77.3641 14.0874L79.7676 11.6839L82.1711 14.0874C82.7516 14.6679 83.5125 14.9581 84.2734 14.9581C85.0344 14.9581 85.7953 14.6679 86.3758 14.0874C87.5371 12.9265 87.5371 11.0437 86.3758 9.88271L83.9723 7.4792L86.3758 5.07568C87.5371 3.91436 87.5371 2.03193 86.3758 0.870996Z"
            fill="#BDBDBD" />
        <path
            d="M151.219 36.6554L153.623 34.2519C154.784 33.091 154.784 31.2082 153.623 30.0472C152.462 28.8863 150.579 28.8863 149.418 30.0472L147.014 32.4507L144.611 30.0472C143.45 28.8863 141.567 28.8863 140.406 30.0472C139.245 31.2082 139.245 33.091 140.406 34.2519L142.81 36.6554L140.406 39.0589C139.245 40.2199 139.245 42.1027 140.406 43.2636C140.987 43.8441 141.748 44.1343 142.509 44.1343C143.27 44.1343 144.03 43.8441 144.611 43.2636L147.014 40.8601L149.418 43.2636C149.998 43.8441 150.759 44.1343 151.52 44.1343C152.281 44.1343 153.042 43.8441 153.623 43.2636C154.784 42.1027 154.784 40.2199 153.623 39.0589L151.219 36.6554Z"
            fill="#BDBDBD" />
        <path
            d="M99.8457 42.8141C99.8426 42.8141 99.8398 42.8141 99.8367 42.8141C98.1945 42.8094 96.8676 41.4738 96.8723 39.832L96.8984 30.9781C96.9031 29.3391 98.2336 28.0137 99.8715 28.0137H99.8805C101.523 28.0184 102.85 29.3539 102.845 30.9957L102.819 39.8496C102.814 41.4887 101.484 42.8141 99.8457 42.8141Z"
            fill="#E0E0E0" />
        <path
            d="M86.6445 46.5879C85.6336 46.5879 84.648 46.0722 84.091 45.1422L79.4906 37.4617C78.6469 36.0527 79.1047 34.2269 80.5133 33.3832C81.9223 32.539 83.7477 32.9972 84.5918 34.4058L89.1922 42.0863C90.0359 43.4953 89.5781 45.3211 88.1695 46.1648C87.691 46.4511 87.1645 46.5879 86.6445 46.5879Z"
            fill="#E0E0E0" />
        <path
            d="M113.023 46.709C112.498 46.709 111.966 46.5696 111.484 46.277C110.08 45.4251 109.633 43.5961 110.485 42.1926L115.131 34.5376C115.983 33.1336 117.811 32.6868 119.215 33.5387C120.619 34.3907 121.066 36.2196 120.214 37.6231L115.568 45.2782C115.009 46.1997 114.028 46.709 113.023 46.709Z"
            fill="#E0E0E0" />
        <path
            d="M127.14 23.584C131.791 23.584 135.562 19.8134 135.562 15.1621C135.562 10.5108 131.791 6.74023 127.14 6.74023C122.489 6.74023 118.718 10.5108 118.718 15.1621C118.718 19.8134 122.489 23.584 127.14 23.584Z"
            fill="#E0E0E0" />
        <path
            d="M135.561 15.1614C135.561 19.8146 131.789 23.586 127.14 23.586C125.582 23.586 124.119 23.1626 122.868 22.42C126.174 21.6579 128.638 18.6985 128.638 15.1614C128.638 11.6282 126.178 8.66494 122.872 7.90283C124.123 7.16377 125.582 6.74072 127.14 6.74072C131.789 6.74033 135.561 10.5122 135.561 15.1614Z"
            fill="#D9D9D9" />
        <path
            d="M106.856 105.508C106.173 105.508 105.488 105.274 104.927 104.796C103.566 103.634 101.626 102.965 99.6023 102.958C99.5934 102.958 99.584 102.958 99.5746 102.958C97.5617 102.958 95.6289 103.616 94.2672 104.764C93.0121 105.823 91.1359 105.663 90.0777 104.408C89.0191 103.152 89.1785 101.277 90.434 100.218C92.8977 98.1401 96.166 97.0046 99.6207 97.012C103.081 97.0225 106.337 98.1808 108.788 100.273C110.037 101.339 110.186 103.216 109.12 104.465C108.531 105.154 107.696 105.508 106.856 105.508Z"
            fill="#878787" />
        <path
            d="M83.6071 91.7993C83.6016 91.7993 83.5961 91.7993 83.5903 91.7993C81.9481 91.7903 80.6067 90.452 80.6157 88.8098C80.6247 87.1676 81.945 85.8629 83.5875 85.8528H83.6231C85.2653 85.8618 86.5891 87.2 86.5801 88.8422C86.5711 90.4786 85.2414 91.7993 83.6071 91.7993Z"
            fill="#878787" />
        <path
            d="M116.425 91.7992C116.42 91.7992 116.414 91.7992 116.408 91.7992C114.766 91.7902 113.425 90.4515 113.434 88.8093C113.443 87.173 114.755 85.8523 116.389 85.8523H116.406H116.441C118.083 85.8613 119.407 87.1996 119.398 88.8417C119.389 90.4785 118.059 91.7992 116.425 91.7992Z"
            fill="#878787" />
    </g>
    <defs>
        <clipPath id="clip0_507_73604">
            <rect width="200" height="200" fill="white" />
        </clipPath>
    </defs>
</svg>