<svg width="20" height="20" viewBox="0 0 20 20" fill="#2C2C2C" xmlns="http://www.w3.org/2000/svg">
    <path fill-rule="evenodd" clip-rule="evenodd"
        d="M19.131 6.70102C19.6167 7.1802 19.6219 7.96233 19.1427 8.44795L12.8899 14.7849L8.24746 10.9865L3.13679 16.0972C2.65438 16.5796 1.87224 16.5796 1.38982 16.0972C0.907412 15.6148 0.907412 14.8326 1.38982 14.3502L8.08148 7.65856L12.7123 11.4474L17.3841 6.7127C17.8633 6.22707 18.6454 6.22185 19.131 6.70102Z" />
    <path
        d="M11.757 4.59728L11.2875 3.07818C11.2802 3.05442 11.2466 3.05442 11.2392 3.07818L10.7698 4.59728C10.7673 4.60526 10.7611 4.6115 10.7531 4.61397L9.23292 5.08373C9.20926 5.09104 9.20912 5.12449 9.23273 5.13199L10.7096 5.6012C10.7172 5.60364 10.7233 5.6096 10.7259 5.61724L11.2384 7.14083C11.2462 7.1641 11.2793 7.16369 11.2865 7.14024L11.757 5.61784C11.7594 5.60986 11.7657 5.60361 11.7737 5.60114L13.2928 5.13171C13.3165 5.12437 13.3165 5.09074 13.2928 5.0834L11.7737 4.61397C11.7657 4.6115 11.7594 4.60526 11.757 4.59728Z" />
    <path
        d="M3.08013 8.80616L2.7102 7.60906C2.70286 7.5853 2.66923 7.5853 2.66189 7.60906L2.29196 8.80616C2.2895 8.81414 2.28325 8.82038 2.27527 8.82285L1.07709 9.19311C1.05343 9.20042 1.0533 9.23386 1.0769 9.24136L2.24055 9.61107C2.24823 9.61351 2.25429 9.61946 2.25686 9.6271L2.66106 10.8287C2.66889 10.852 2.70194 10.8516 2.70918 10.8281L3.08013 9.6277C3.08259 9.61972 3.08884 9.61348 3.09682 9.61101L4.29391 9.24109C4.31767 9.23374 4.31767 9.20011 4.29391 9.19277L3.09682 8.82285C3.08884 8.82038 3.08259 8.81414 3.08013 8.80616Z" />
</svg>