<svg xmlns="http://www.w3.org/2000/svg" width="14" height="14" viewBox="0 0 14 14" fill="none">
<path fill-rule="evenodd" clip-rule="evenodd" d="M4.20301 3.77953C3.95264 3.77953 3.74967 3.98675 3.74967 4.24235C3.74967 4.49793 3.95262 4.70515 4.20301 4.70515C4.45338 4.70515 4.65633 4.49796 4.65633 4.24235C4.65633 3.98673 4.45336 3.77953 4.20301 3.77953ZM2.33301 4.24235C2.33301 3.18799 3.17024 2.33325 4.20301 2.33325C5.23581 2.33325 6.07299 3.18802 6.07299 4.24235C6.07299 5.29672 5.23578 6.15143 4.20301 6.15143C3.17027 6.15143 2.33301 5.29674 2.33301 4.24235ZM10.4933 3.3357C10.77 3.6181 10.77 4.07597 10.4933 4.35837L4.31671 10.6641C4.04009 10.9465 3.5916 10.9465 3.31498 10.6641C3.03836 10.3817 3.03836 9.92387 3.31498 9.64147L9.49161 3.3357C9.76823 3.05329 10.2167 3.05329 10.4933 3.3357ZM9.92636 9.75748C9.92636 9.50188 10.1293 9.29469 10.3797 9.29469C10.6301 9.29469 10.833 9.5019 10.833 9.75748C10.833 10.0131 10.63 10.2203 10.3797 10.2203C10.1293 10.2203 9.92636 10.0131 9.92636 9.75748ZM10.3797 7.84841C9.3469 7.84841 8.50969 8.70312 8.50969 9.75748C8.50969 10.8118 9.34688 11.6666 10.3797 11.6666C11.4124 11.6666 12.2497 10.8118 12.2497 9.75748C12.2497 8.7031 11.4124 7.84841 10.3797 7.84841Z" fill="#A4A4A4"/>
</svg>