<svg width="14" height="13" viewBox="0 0 14 13" fill="#467AFF" xmlns="http://www.w3.org/2000/svg">
<path d="M8.87201 11.3829C8.47897 10.9875 8.25897 10.4522 8.26036 9.89467C8.26175 9.33715 8.48442 8.80298 8.87944 8.40955L11.3543 5.93467L11.8493 6.42965L11.8374 6.42866C11.9711 6.55979 12.1508 6.63332 12.3381 6.63351C12.5254 6.63369 12.7053 6.56051 12.8392 6.42965C12.968 6.29593 13.0388 6.11681 13.0363 5.93118C13.0338 5.74556 12.9582 5.56841 12.8259 5.43821L12.8392 5.4397L7.88949 0.48995C7.82458 0.424852 7.74749 0.373174 7.66262 0.337869C7.57774 0.302563 7.48674 0.28432 7.39482 0.284182C7.20917 0.283904 7.03101 0.357387 6.89954 0.488465C6.76806 0.619544 6.69405 0.797481 6.69377 0.983132C6.69349 1.16878 6.76697 1.34694 6.89805 1.47841L7.39451 1.97487L4.91766 4.44777C4.72324 4.64336 4.4921 4.79861 4.23752 4.90461C3.98293 5.01061 3.70991 5.06528 3.43413 5.06546C3.15836 5.06565 2.88527 5.01135 2.63054 4.90568C2.37581 4.80002 2.14446 4.64508 1.94979 4.44975L0.95984 5.4397L3.92969 8.40955L0.464865 11.8744L0.464865 12.8643H1.45481L4.91964 9.39949L7.88949 12.3693L8.87944 11.3794L8.87201 11.3829Z" />
</svg>
