<svg width="20" height="20" viewBox="0 0 20 20" fill="none" xmlns="http://www.w3.org/2000/svg">
<path d="M1.02942 5.89937C0.878515 5.20465 1.32304 4.51994 2.02231 4.37003L12.5307 2.11704C14.6066 1.67196 16.6526 2.98304 17.1006 5.0454L18.9706 13.6539C19.1215 14.3486 18.677 15.0333 17.9777 15.1832L4.97668 17.9706C4.2774 18.1205 3.58824 17.6789 3.4373 16.9842L1.02942 5.89937Z" fill="#5B6DC7"/>
<mask id="mask0_3139_523977" style="mask-type:alpha" maskUnits="userSpaceOnUse" x="1" y="2" width="18" height="16">
<path d="M1.02942 5.89937C0.878515 5.20465 1.32304 4.51994 2.02231 4.37003L12.689 2.08311C14.6775 1.65678 16.6373 2.91267 17.0665 4.88817L18.9706 13.6539C19.1215 14.3486 18.677 15.0333 17.9777 15.1832L4.97668 17.9706C4.2774 18.1205 3.58824 17.6789 3.4373 16.9842L1.02942 5.89937Z" fill="#3F75FF"/>
</mask>
<g mask="url(#mask0_3139_523977)">
<g filter="url(#filter0_i_3139_523977)">
<path d="M1.08845 5.76453C0.996171 5.05976 1.49643 4.41414 2.20582 4.32245L13.0268 2.92405C15.0441 2.66335 16.8922 4.07667 17.1546 6.08081L18.319 14.9734C18.4112 15.6781 17.911 16.3238 17.2016 16.4154L4.01239 18.1199C3.30299 18.2116 2.65313 17.7146 2.56084 17.0098L1.08845 5.76453Z" fill="#DDEAF3"/>
</g>
<g filter="url(#filter1_i_3139_523977)">
<path d="M1.00586 5.72065C0.959178 5.01146 1.50001 4.39898 2.21384 4.35261L13.1028 3.64514C15.1327 3.51324 16.886 5.04118 17.0187 7.0579L17.6077 16.0063C17.6545 16.7154 17.1136 17.3279 16.3998 17.3743L3.12781 18.2366C2.41396 18.283 1.79745 17.7457 1.75076 17.0365L1.00586 5.72065Z" fill="#DDEAF3"/>
</g>
<path d="M1.00229 5.61787C1.00229 4.90719 1.5822 4.33105 2.29755 4.33105H11.7545C13.38 4.33105 14.8109 4.62831 16.0474 5.22282C17.2977 5.80349 18.2633 6.63992 18.944 7.73215C19.6386 8.82437 19.986 10.1101 19.986 11.5895C19.986 13.0688 19.6386 14.3546 18.944 15.4468C18.2633 16.5391 17.2977 17.3824 16.0474 17.9769C14.8109 18.5576 13.38 18.8479 11.7545 18.8479H2.29755C1.5822 18.8479 1.00229 18.2718 1.00229 17.5611V5.61787Z" fill="#5B6DC7"/>
<g filter="url(#filter2_i_3139_523977)">
<path d="M12.8418 7.10449V13.346L15.6375 11.7053L12.8418 7.10449Z" fill="white" fill-opacity="0.8"/>
<path d="M10.0436 12.2329L12.8418 16.1392V13.8711L10.0436 12.2329Z" fill="white" fill-opacity="0.6"/>
<path d="M10.0436 11.7053L12.8418 13.346L15.6375 11.7053L12.8418 10.4456V7.10449L10.0436 11.7053Z" fill="white"/>
<path d="M12.8418 16.1392V13.8711L15.64 12.2329L12.8418 16.1392Z" fill="white"/>
</g>
<path d="M5.85954 8.51318H4.03808C3.85924 8.51318 3.71426 8.65722 3.71426 8.83489V14.3441C3.71426 14.5217 3.85924 14.6658 4.03808 14.6658H5.85954C6.03838 14.6658 6.18336 14.5217 6.18336 14.3441V8.83489C6.18336 8.65722 6.03838 8.51318 5.85954 8.51318Z" fill="white"/>
</g>
<defs>
<filter id="filter0_i_3139_523977" x="1.07748" y="2.89307" width="17.2524" height="31.2378" filterUnits="userSpaceOnUse" color-interpolation-filters="sRGB">
<feFlood flood-opacity="0" result="BackgroundImageFix"/>
<feBlend mode="normal" in="SourceGraphic" in2="BackgroundImageFix" result="shape"/>
<feColorMatrix in="SourceAlpha" type="matrix" values="0 0 0 0 0 0 0 0 0 0 0 0 0 0 0 0 0 0 127 0" result="hardAlpha"/>
<feOffset dy="16"/>
<feGaussianBlur stdDeviation="24"/>
<feComposite in2="hardAlpha" operator="arithmetic" k2="-1" k3="1"/>
<feColorMatrix type="matrix" values="0 0 0 0 0.0339063 0 0 0 0 0.0584813 0 0 0 0 0.1875 0 0 0 0.25 0"/>
<feBlend mode="normal" in2="shape" result="effect1_innerShadow_3139_523977"/>
</filter>
<filter id="filter1_i_3139_523977" x="1.00305" y="3.63721" width="16.6075" height="30.6021" filterUnits="userSpaceOnUse" color-interpolation-filters="sRGB">
<feFlood flood-opacity="0" result="BackgroundImageFix"/>
<feBlend mode="normal" in="SourceGraphic" in2="BackgroundImageFix" result="shape"/>
<feColorMatrix in="SourceAlpha" type="matrix" values="0 0 0 0 0 0 0 0 0 0 0 0 0 0 0 0 0 0 127 0" result="hardAlpha"/>
<feOffset dy="16"/>
<feGaussianBlur stdDeviation="24"/>
<feComposite in2="hardAlpha" operator="arithmetic" k2="-1" k3="1"/>
<feColorMatrix type="matrix" values="0 0 0 0 0.0339063 0 0 0 0 0.0584813 0 0 0 0 0.1875 0 0 0 0.25 0"/>
<feBlend mode="normal" in2="shape" result="effect1_innerShadow_3139_523977"/>
</filter>
<filter id="filter2_i_3139_523977" x="10.0436" y="7.10449" width="5.59644" height="33.0347" filterUnits="userSpaceOnUse" color-interpolation-filters="sRGB">
<feFlood flood-opacity="0" result="BackgroundImageFix"/>
<feBlend mode="normal" in="SourceGraphic" in2="BackgroundImageFix" result="shape"/>
<feColorMatrix in="SourceAlpha" type="matrix" values="0 0 0 0 0 0 0 0 0 0 0 0 0 0 0 0 0 0 127 0" result="hardAlpha"/>
<feOffset dy="24"/>
<feGaussianBlur stdDeviation="16"/>
<feComposite in2="hardAlpha" operator="arithmetic" k2="-1" k3="1"/>
<feColorMatrix type="matrix" values="0 0 0 0 0 0 0 0 0 0 0 0 0 0 0 0 0 0 0.15 0"/>
<feBlend mode="normal" in2="shape" result="effect1_innerShadow_3139_523977"/>
</filter>
</defs>
</svg>
