<svg width="16" height="16" viewBox="0 0 16 16" fill="#2B2B2B" xmlns="http://www.w3.org/2000/svg">
    <path
        d="M1.33333 16.0001C1.33333 16.0001 0 16.0001 0 14.6667C0 13.3334 1.33333 9.3334 8 9.3334C14.6667 9.3334 16 13.3334 16 14.6667C16 16.0001 14.6667 16.0001 14.6667 16.0001H1.33333ZM8 8.00006C9.06087 8.00006 10.0783 7.57863 10.8284 6.82849C11.5786 6.07834 12 5.06093 12 4.00006C12 2.9392 11.5786 1.92178 10.8284 1.17163C10.0783 0.421489 9.06087 6.10352e-05 8 6.10352e-05C6.93913 6.10352e-05 5.92172 0.421489 5.17157 1.17163C4.42143 1.92178 4 2.9392 4 4.00006C4 5.06093 4.42143 6.07834 5.17157 6.82849C5.92172 7.57863 6.93913 8.00006 8 8.00006Z" />
</svg>