<svg width="14" height="15" viewBox="0 0 14 15" fill="none" xmlns="http://www.w3.org/2000/svg">
<path d="M7 0.5C8.85652 0.5 10.637 1.2375 11.9497 2.55025C13.2625 3.86301 14 5.64348 14 7.5C14 9.35652 13.2625 11.137 11.9497 12.4497C10.637 13.7625 8.85652 14.5 7 14.5C5.14348 14.5 3.36301 13.7625 2.05025 12.4497C0.737498 11.137 0 9.35652 0 7.5C0 5.64348 0.737498 3.86301 2.05025 2.55025C3.36301 1.2375 5.14348 0.5 7 0.5ZM3.5 7.5C3.5 7.65913 3.56321 7.81174 3.67574 7.92426C3.78826 8.03679 3.94087 8.1 4.1 8.1H9.9C10.0591 8.1 10.2117 8.03679 10.3243 7.92426C10.4368 7.81174 10.5 7.65913 10.5 7.5C10.5 7.34087 10.4368 7.18826 10.3243 7.07574C10.2117 6.96321 10.0591 6.9 9.9 6.9H4.1C4.02121 6.9 3.94319 6.91552 3.87039 6.94567C3.79759 6.97583 3.73145 7.02002 3.67574 7.07574C3.62002 7.13145 3.57583 7.19759 3.54567 7.27039C3.51552 7.34319 3.5 7.42121 3.5 7.5Z" fill="#6B93EF"/>
</svg>
