<svg width="12" height="12" viewBox="0 0 16 16" fill="#2C2C2C" xmlns="http://www.w3.org/2000/svg">
    <path fill-rule="evenodd" clip-rule="evenodd"
        d="M7.99967 1.83301C4.57045 1.83301 1.83301 4.59451 1.83301 7.99967C1.83301 8.27582 1.60915 8.49967 1.33301 8.49967C1.05687 8.49967 0.833008 8.27582 0.833008 7.99967C0.833008 4.04484 4.01556 0.833008 7.99967 0.833008C10.3715 0.833008 12.1476 1.82368 13.3208 2.8024C13.6484 3.07568 13.9302 3.34891 14.1663 3.60102V1.70634C14.1663 1.4302 14.3902 1.20634 14.6663 1.20634C14.9425 1.20634 15.1663 1.4302 15.1663 1.70634V5.03967C15.1663 5.31582 14.9425 5.53967 14.6663 5.53967H11.7063C11.4302 5.53967 11.2063 5.31582 11.2063 5.03967C11.2063 4.76353 11.4302 4.53967 11.7063 4.53967H13.6659C13.417 4.25127 13.0883 3.91072 12.6802 3.57029C11.6318 2.69567 10.0745 1.83301 7.99967 1.83301ZM14.6663 7.49967C14.9425 7.49967 15.1663 7.72353 15.1663 7.99967C15.1663 11.9558 11.9558 15.1663 7.99967 15.1663C5.98603 15.1663 4.38933 14.1529 3.32043 13.1834C3.0367 12.926 2.78698 12.669 2.57301 12.43V14.293C2.57301 14.5692 2.34915 14.793 2.07301 14.793C1.79687 14.793 1.57301 14.5692 1.57301 14.293V10.9597C1.57301 10.6835 1.79687 10.4597 2.07301 10.4597H5.08634C5.36248 10.4597 5.58634 10.6835 5.58634 10.9597C5.58634 11.2358 5.36248 11.4597 5.08634 11.4597H3.05774C3.29827 11.7521 3.61196 12.0977 3.99226 12.4427C4.96668 13.3265 6.33331 14.1663 7.99967 14.1663C11.4035 14.1663 14.1663 11.4035 14.1663 7.99967C14.1663 7.72353 14.3902 7.49967 14.6663 7.49967Z">
    </path>
</svg>