<svg width="22" height="14" viewBox="0 0 22 14" fill="none" xmlns="http://www.w3.org/2000/svg">
<path d="M6.22222 13.02V5.64666C6.22222 4.94666 5.75861 4.66666 4.58736 4.66666H1.63486C0.463617 4.66666 0 4.94666 0 5.64666V13.02C0 13.72 0.463617 14 1.63486 14H4.58736C5.75861 14 6.22222 13.72 6.22222 13.02Z" fill="#FE9D2A"/>
<path d="M14 12.775V3.55834C14 2.68334 13.5364 2.33334 12.3651 2.33334H9.41263C8.24952 2.33334 7.77777 2.68334 7.77777 3.55834V12.775C7.77777 13.65 8.24139 14 9.41263 14H12.3651C13.5364 14 14 13.65 14 12.775Z" fill="#FE9D2A"/>
<path d="M21.7778 12.53V1.47C21.7778 0.42 21.3141 0 20.1429 0H17.1904C16.0273 0 15.5555 0.42 15.5555 1.47V12.53C15.5555 13.58 16.0192 14 17.1904 14H20.1429C21.3141 14 21.7778 13.58 21.7778 12.53Z" fill="#E0E0E0"/>
</svg>
