<svg width="16" height="14" viewBox="0 0 16 14" fill="#f54503" xmlns="http://www.w3.org/2000/svg">
<path d="M13.75 5.37512C13.2813 5.37512 12.875 5.56262 12.5625 5.87512C11.4375 5.09387 9.93751 4.59387 8.28126 4.56262L9.15626 0.656372L11.9063 1.28137C11.9063 1.93762 12.4375 2.50012 13.125 2.50012C13.8125 2.50012 14.375 1.93762 14.375 1.25012C14.375 0.562622 13.8125 0.00012207 13.125 0.00012207C12.6563 0.00012207 12.2188 0.312622 12.0313 0.687622L8.96876 0.0313721C8.81251 -0.0311279 8.68751 0.0938721 8.62501 0.250122L7.68751 4.53137C6.03126 4.62512 4.53126 5.12512 3.43751 5.87512C3.12501 5.56262 2.68751 5.37512 2.21876 5.37512C0.500008 5.37512 -0.093742 7.71887 1.50001 8.50012C1.43751 8.75012 1.43751 9.00012 1.43751 9.28137C1.43751 11.9064 4.37501 14.0001 8.00001 14.0001C11.625 14.0001 14.5938 11.9064 14.5938 9.28137C14.5938 9.00012 14.5625 8.75012 14.5 8.50012C16.0625 7.68762 15.4688 5.37512 13.75 5.37512ZM4.03126 8.65637C4.03126 7.96887 4.59376 7.43762 5.28126 7.43762C5.93751 7.43762 6.50001 7.96887 6.50001 8.65637C6.50001 9.34387 5.93751 9.90637 5.28126 9.90637C4.59376 9.90637 4.03126 9.34387 4.03126 8.65637ZM10.7188 11.5939C9.59376 12.7189 6.37501 12.7189 5.25001 11.5939C5.12501 11.4689 5.12501 11.2814 5.25001 11.1564C5.34376 11.0626 5.53126 11.0626 5.65626 11.1564C6.53126 12.0626 9.40626 12.0626 10.3125 11.1564C10.4063 11.0626 10.625 11.0626 10.7188 11.1564C10.8438 11.2814 10.8438 11.4689 10.7188 11.5939ZM10.6875 9.90637C10.0313 9.90637 9.46876 9.34387 9.46876 8.65637C9.46876 7.96887 10.0313 7.43762 10.6875 7.43762C11.375 7.43762 11.9375 7.96887 11.9375 8.65637C11.9375 9.34387 11.375 9.90637 10.6875 9.90637Z"/>
</svg>
