<svg width="20" height="20" viewBox="0 0 20 20" fill="none" xmlns="http://www.w3.org/2000/svg">
<mask id="mask0_2338_14171" style="mask-type:alpha" maskUnits="userSpaceOnUse" x="0" y="0" width="20" height="20">
<g clip-path="url(#clip0_2338_14171)">
<path fill-rule="evenodd" clip-rule="evenodd" d="M9.51708 5.18863C8.36905 5.18863 7.26803 5.64472 6.45624 6.45658C5.64446 7.26843 5.1884 8.36955 5.1884 9.51769C5.1884 10.6658 5.64446 11.7669 6.45624 12.5788C7.26803 13.3907 8.36904 13.8467 9.51708 13.8467C10.6651 13.8467 11.7661 13.3907 12.5779 12.5788C13.3897 11.7669 13.8458 10.6658 13.8458 9.51769C13.8458 8.36955 13.3897 7.26843 12.5779 6.45658C11.7661 5.64472 10.6651 5.18863 9.51708 5.18863ZM5.14445 5.14467C6.30415 3.98488 7.87703 3.33331 9.51708 3.33331C11.1571 3.33331 12.73 3.98488 13.8897 5.14467C15.0494 6.30447 15.7009 7.87749 15.7009 9.51769C15.7009 10.8445 15.2746 12.1273 14.4978 13.1831L16.6666 15.3559L15.3536 16.6666L13.1866 14.4956C12.1301 15.2745 10.8456 15.7021 9.51708 15.7021C7.87703 15.7021 6.30415 15.0505 5.14445 13.8907C3.98476 12.7309 3.33325 11.1579 3.33325 9.51769C3.33325 7.87749 3.98476 6.30447 5.14445 5.14467Z" fill="#6B6B6B"/>
</g>
</mask>
<g mask="url(#mask0_2338_14171)">
<rect width="20" height="20" fill="#A4A4A4"/>
</g>
<defs>
<clipPath id="clip0_2338_14171">
<rect width="20" height="20" fill="white"/>
</clipPath>
</defs>
</svg>
