<svg width="12" height="12" viewBox="0 0 12 12" fill="#2C2C2C" xmlns="http://www.w3.org/2000/svg">
<path d="M9.54068 8.48619C9.08262 8.48619 8.67278 8.667 8.35937 8.95028L4.06203 6.44902C4.09216 6.3104 4.11627 6.17177 4.11627 6.02712C4.11627 5.88247 4.09216 5.74385 4.06203 5.60522L8.31115 3.12808C8.63661 3.42943 9.06454 3.61627 9.54068 3.61627C10.5412 3.61627 11.3488 2.80864 11.3488 1.80814C11.3488 0.807634 10.5412 0 9.54068 0C8.54018 0 7.73255 0.807634 7.73255 1.80814C7.73255 1.95279 7.75666 2.09141 7.78679 2.23004L3.53767 4.70718C3.2122 4.40583 2.78428 4.21899 2.30814 4.21899C1.30763 4.21899 0.5 5.02662 0.5 6.02712C0.5 7.02762 1.30763 7.83526 2.30814 7.83526C2.78428 7.83526 3.2122 7.64842 3.53767 7.34706L7.82898 9.84832C7.79884 9.97489 7.78076 10.1075 7.78076 10.2461C7.78076 11.2165 8.57032 12 9.54068 12C10.5111 12 11.3006 11.2165 11.3006 10.2461C11.3006 9.27574 10.5111 8.48619 9.54068 8.48619ZM9.54068 1.20542C9.87218 1.20542 10.1434 1.47664 10.1434 1.80814C10.1434 2.13963 9.87218 2.41085 9.54068 2.41085C9.20919 2.41085 8.93797 2.13963 8.93797 1.80814C8.93797 1.47664 9.20919 1.20542 9.54068 1.20542ZM2.30814 6.62983C1.97664 6.62983 1.70542 6.35861 1.70542 6.02712C1.70542 5.69563 1.97664 5.42441 2.30814 5.42441C2.63963 5.42441 2.91085 5.69563 2.91085 6.02712C2.91085 6.35861 2.63963 6.62983 2.30814 6.62983ZM9.54068 10.8488C9.20919 10.8488 8.93797 10.5776 8.93797 10.2461C8.93797 9.91462 9.20919 9.6434 9.54068 9.6434C9.87218 9.6434 10.1434 9.91462 10.1434 10.2461C10.1434 10.5776 9.87218 10.8488 9.54068 10.8488Z" />
</svg>
