<svg width="18" height="18" viewBox="0 0 18 18" fill="#2B2B2B" xmlns="http://www.w3.org/2000/svg">
    <path
        d="M10.7802 1.80138L10.1324 1.85593L10.1334 1.86606L10.7802 1.80138ZM10.7802 1.80135L11.428 1.74679L11.4269 1.73666L10.7802 1.80135ZM10.8947 2.55481L11.4984 2.31378L11.4984 2.31378L10.8947 2.55481ZM12.2179 3.10289L11.9615 2.50561L11.9615 2.50561L12.2179 3.10289ZM12.8316 2.65121L12.42 2.14813L12.8316 2.65121ZM13.1721 2.39609L12.8636 1.82399L13.1721 2.39609ZM14.2067 2.44769L14.5706 1.90913L14.5706 1.90912L14.2067 2.44769ZM14.5202 2.73543L14.9798 2.27581L14.9798 2.27581L14.5202 2.73543ZM15.2649 3.48012L15.7245 3.0205V3.0205L15.2649 3.48012ZM15.5525 3.79345L16.091 3.42947L16.091 3.42947L15.5525 3.79345ZM15.6041 4.82818L15.032 4.51959L15.032 4.51959L15.6041 4.82818ZM15.3491 5.16858L15.8087 5.6282L15.8316 5.60528L15.8522 5.58019L15.3491 5.16858ZM15.3491 5.16859L14.8895 4.70897L14.8665 4.73189L14.846 4.75698L15.3491 5.16859ZM14.8976 5.78195L14.3003 5.52546L14.8976 5.78195ZM15.4458 7.1053L15.6867 6.50161L15.4458 7.1053ZM16.1988 7.21977L16.3056 6.57861L16.2846 6.57511L16.2634 6.57299L16.1988 7.21977ZM16.1988 7.21977L16.0919 7.86092L16.1129 7.86442L16.1341 7.86654L16.1988 7.21977ZM16.6199 7.28017L16.4335 7.90289H16.4335L16.6199 7.28017ZM17.315 8.04829L17.9532 7.92485L17.9532 7.92484L17.315 8.04829ZM17.315 9.95154L16.6768 9.82805V9.82805L17.315 9.95154ZM16.6199 10.7196L16.8063 11.3423V11.3423L16.6199 10.7196ZM16.1987 10.78L16.134 10.1332H16.134L16.1987 10.78ZM15.4453 10.8945L15.6864 11.4982L15.4453 10.8945ZM14.8973 12.2177L14.3 12.4741L14.3 12.4741L14.8973 12.2177ZM15.349 12.8315L14.846 13.2431L14.846 13.2431L15.349 12.8315ZM15.6042 13.1721L16.1763 12.8636L16.1763 12.8636L15.6042 13.1721ZM15.5526 14.2066L16.0912 14.5705L16.0912 14.5705L15.5526 14.2066ZM15.2648 14.5202L15.7244 14.9798L15.7244 14.9798L15.2648 14.5202ZM15.2648 14.5202L15.7244 14.9798L15.2648 14.5202ZM14.5203 15.2648L14.0607 14.8051L14.5203 15.2648ZM14.2067 15.5525L13.8428 15.014L14.2067 15.5525ZM13.1722 15.6041L13.4807 15.032L13.4807 15.032L13.1722 15.6041ZM12.8316 15.349L12.4086 15.8425L12.4143 15.8474L12.42 15.8521L12.8316 15.349ZM12.8316 15.349L13.2546 14.8555L13.2248 14.8299L13.1922 14.8081L12.8316 15.349ZM12.8316 15.349L12.42 15.852L12.4446 15.8722L12.471 15.8898L12.8316 15.349ZM12.2179 14.8972L11.9615 15.4945H11.9615L12.2179 14.8972ZM10.8947 15.4453L11.4984 15.6864V15.6864L10.8947 15.4453ZM10.7802 16.1988L11.4213 16.3056L11.4248 16.2846L11.4269 16.2635L10.7802 16.1988ZM10.7802 16.1988L10.139 16.0919L10.1302 16.145V16.1988H10.7802ZM10.7802 16.1988L11.4269 16.2635L11.4302 16.2312V16.1988H10.7802ZM10.7197 16.6202L10.097 16.4338L10.097 16.4338L10.7197 16.6202ZM9.95176 17.3152L9.82824 16.677L9.82823 16.677L9.95176 17.3152ZM8.04838 17.3152L7.92489 17.9534H7.9249L8.04838 17.3152ZM7.28035 16.6201L6.65764 16.8065L6.65764 16.8065L7.28035 16.6201ZM7.21992 16.1989L6.57315 16.2636L7.21992 16.1989ZM7.10538 15.4456L7.70904 15.2045L7.70904 15.2045L7.10538 15.4456ZM5.78222 14.8975L6.03862 15.4948H6.03862L5.78222 14.8975ZM5.16844 15.3493L4.75683 14.8462L4.73174 14.8667L4.70882 14.8897L5.16844 15.3493ZM5.16843 15.3493L5.58004 15.8524L5.60513 15.8318L5.62805 15.8089L5.16843 15.3493ZM4.82769 15.6045L4.5192 15.0324L4.51919 15.0324L4.82769 15.6045ZM3.79325 15.5529L3.42935 16.0915L3.42935 16.0915L3.79325 15.5529ZM3.47963 15.2651L3.93925 14.8055L3.47963 15.2651ZM2.73523 14.5207L2.25608 14.9599L2.26562 14.9703L2.27561 14.9803L2.73523 14.5207ZM2.73522 14.5207L3.21437 14.0815L3.20482 14.071L3.19484 14.0611L2.73522 14.5207ZM2.44725 14.2069L1.90863 14.5708L1.90863 14.5708L2.44725 14.2069ZM2.39567 13.1726L2.96782 13.4811L2.96782 13.4811L2.39567 13.1726ZM2.651 12.8317L3.15407 13.2433H3.15408L2.651 12.8317ZM3.10302 12.2176L3.70036 12.4739V12.4739L3.10302 12.2176ZM2.55505 10.8947L2.79621 10.291H2.79621L2.55505 10.8947ZM1.80119 10.78L1.73652 11.4268H1.73652L1.80119 10.78ZM1.37968 10.7195L1.56614 10.0968L1.56613 10.0968L1.37968 10.7195ZM0.684772 9.95167L1.32292 9.82809L0.684772 9.95167ZM0.684757 8.04816L0.0466024 7.92464L0.684757 8.04816ZM1.37975 7.2802L1.56616 7.9029L1.56616 7.9029L1.37975 7.2802ZM1.80114 7.21975L1.86581 7.86653L1.89176 7.86393L1.91741 7.85927L1.80114 7.21975ZM1.80114 7.21975L1.73647 6.57298L1.71052 6.57557L1.68487 6.58023L1.80114 7.21975ZM2.55461 7.10519L2.79567 7.70884L2.55461 7.10519ZM3.10267 5.78205L2.50538 6.03844L2.50538 6.03844L3.10267 5.78205ZM2.65094 5.16831L3.15403 4.75669L3.15028 4.75219L2.65094 5.16831ZM2.65093 5.16831L2.14784 5.57993L2.15159 5.58443L2.65093 5.16831ZM2.39579 4.8277L2.9679 4.51918L2.9679 4.51918L2.39579 4.8277ZM2.44739 3.79317L2.98596 4.15709L2.98596 4.15709L2.44739 3.79317ZM2.73516 3.47964L3.19478 3.93926V3.93926L2.73516 3.47964ZM3.4797 2.7351L3.93932 3.19472L3.93932 3.19472L3.4797 2.7351ZM3.79329 2.44728L4.15719 2.98587L3.79329 2.44728ZM4.82777 2.39569L5.13628 1.82356L5.13627 1.82356L4.82777 2.39569ZM5.16847 2.6509L5.58007 2.14783V2.14783L5.16847 2.6509ZM5.78221 3.10265L5.5258 3.69994L5.5258 3.69994L5.78221 3.10265ZM7.10539 2.55457L7.70904 2.79561V2.79561L7.10539 2.55457ZM7.21992 1.80125L6.58041 1.68497L6.57574 1.71063L6.57315 1.73657L7.21992 1.80125ZM7.21992 1.80124L7.85951 1.91753L7.86108 1.9081L7.21992 1.80124ZM7.21993 1.80123L7.86108 1.90809L7.86458 1.88709L7.8667 1.86591L7.21993 1.80123ZM7.28035 1.38002L6.65764 1.19365V1.19365L7.28035 1.38002ZM8.04838 0.684959L8.17187 1.32312L8.17187 1.32312L8.04838 0.684959ZM9.95176 0.684972L10.0753 0.0468177L10.0753 0.0468174L9.95176 0.684972ZM10.7197 1.37996L10.097 1.56637L10.097 1.56638L10.7197 1.37996ZM11.4279 1.74684L11.4279 1.7468L10.1325 1.85589L10.1325 1.85592L11.4279 1.74684ZM11.4984 2.31378C11.5022 2.32327 11.4922 2.30196 11.477 2.19397C11.4624 2.08988 11.4482 1.94967 11.4269 1.7367L10.1334 1.86606C10.1536 2.06805 10.1706 2.23907 10.1897 2.37521C10.2084 2.50745 10.235 2.65537 10.2911 2.79585L11.4984 2.31378ZM11.9615 2.50561C11.7806 2.58324 11.5714 2.49655 11.4984 2.31378L10.2911 2.79585C10.6351 3.65751 11.6217 4.06619 12.4743 3.70018L11.9615 2.50561ZM12.42 2.14813C12.2543 2.28364 12.1452 2.37276 12.0613 2.43598C11.9742 2.50158 11.9521 2.50964 11.9615 2.50561L12.4743 3.70018C12.6133 3.64051 12.7367 3.55474 12.8434 3.47441C12.9532 3.39171 13.0861 3.2828 13.2432 3.15428L12.42 2.14813ZM12.8636 1.82399C12.7107 1.90642 12.568 2.02697 12.42 2.14813L13.2432 3.15428C13.4367 2.99596 13.4648 2.97676 13.4807 2.96819L12.8636 1.82399ZM14.5706 1.90912C14.0618 1.56528 13.4041 1.53248 12.8636 1.82399L13.4807 2.96819C13.5953 2.90636 13.7348 2.91332 13.8428 2.98625L14.5706 1.90912ZM14.9798 2.27581C14.8445 2.14051 14.7145 2.00636 14.5706 1.90913L13.8428 2.98625C13.8577 2.99636 13.8838 3.01826 14.0606 3.19505L14.9798 2.27581ZM15.7245 3.0205L14.9798 2.27581L14.0606 3.19505L14.8053 3.93974L15.7245 3.0205ZM16.091 3.42947C15.9938 3.28566 15.8597 3.15573 15.7245 3.0205L14.8053 3.93974C14.982 4.11644 15.0039 4.14249 15.014 4.15744L16.091 3.42947ZM16.1762 5.13677C16.4678 4.59618 16.435 3.93836 16.091 3.42947L15.014 4.15744C15.0869 4.26538 15.0939 4.40492 15.032 4.51959L16.1762 5.13677ZM15.8522 5.58019C15.9733 5.43217 16.0938 5.28955 16.1762 5.13677L15.032 4.51959C15.0235 4.53547 15.0043 4.56356 14.846 4.75698L15.8522 5.58019ZM15.8087 5.62821L15.8087 5.6282L14.8895 4.70896L14.8895 4.70897L15.8087 5.62821ZM15.4949 6.03844C15.4908 6.04782 15.4989 6.02576 15.5644 5.93871C15.6276 5.8548 15.7167 5.74573 15.8522 5.58019L14.846 4.75698C14.7176 4.914 14.6087 5.04684 14.526 5.1566C14.4457 5.2632 14.36 5.38654 14.3003 5.52546L15.4949 6.03844ZM15.6867 6.50161C15.5039 6.42864 15.4172 6.21931 15.4949 6.03844L14.3003 5.52546C13.9342 6.37814 14.3429 7.36498 15.2048 7.70899L15.6867 6.50161ZM16.2634 6.57299C16.0506 6.55171 15.9105 6.53757 15.8064 6.52293C15.6985 6.50773 15.6772 6.49782 15.6867 6.50161L15.2048 7.70899C15.3452 7.76504 15.4931 7.79163 15.6252 7.81023C15.7613 7.82939 15.9322 7.84635 16.1341 7.86654L16.2634 6.57299ZM16.3056 6.57861L16.3056 6.57861L16.0919 7.86092L16.0919 7.86092L16.3056 6.57861ZM16.8062 6.65745C16.6399 6.60768 16.4538 6.59203 16.2634 6.57299L16.1341 7.86654C16.3828 7.89141 16.4162 7.89772 16.4335 7.90289L16.8062 6.65745ZM17.9532 7.92484C17.8365 7.32183 17.3946 6.83351 16.8062 6.65745L16.4335 7.90289C16.5583 7.94024 16.6521 8.04382 16.6768 8.17173L17.9532 7.92484ZM17.9832 8.47328C17.9832 8.282 17.9861 8.0953 17.9532 7.92485L16.6768 8.17172C16.6803 8.18945 16.6832 8.22335 16.6832 8.47328H17.9832ZM17.9832 9.52638V8.47328H16.6832V9.52638H17.9832ZM17.9532 10.075C17.9861 9.90452 17.9832 9.71774 17.9832 9.52638H16.6832C16.6832 9.77642 16.6803 9.81033 16.6768 9.82805L17.9532 10.075ZM16.8063 11.3423C17.3946 11.1662 17.8365 10.6779 17.9532 10.075L16.6768 9.82805C16.6521 9.95595 16.5584 10.0595 16.4336 10.0969L16.8063 11.3423ZM16.2634 11.4268C16.4538 11.4077 16.6399 11.3921 16.8063 11.3423L16.4336 10.0969C16.4163 10.102 16.3828 10.1083 16.134 10.1332L16.2634 11.4268ZM15.6864 11.4982C15.6769 11.502 15.6982 11.4921 15.8062 11.4769C15.9102 11.4622 16.0504 11.4481 16.2634 11.4268L16.134 10.1332C15.9321 10.1534 15.761 10.1704 15.6249 10.1896C15.4927 10.2082 15.3448 10.2348 15.2043 10.2909L15.6864 11.4982ZM15.4946 11.9613C15.4169 11.7805 15.5036 11.5712 15.6864 11.4982L15.2043 10.2909C14.3427 10.6349 13.934 11.6215 14.3 12.4741L15.4946 11.9613ZM15.8521 12.4199C15.7166 12.2542 15.6274 12.1451 15.5642 12.0611C15.4986 11.974 15.4905 11.9519 15.4946 11.9613L14.3 12.4741C14.3596 12.6131 14.4454 12.7365 14.5258 12.8432C14.6085 12.953 14.7174 13.0859 14.846 13.2431L15.8521 12.4199ZM16.1763 12.8636C16.0939 12.7107 15.9733 12.568 15.8521 12.4199L14.846 13.2431C15.0043 13.4366 15.0235 13.4648 15.0321 13.4807L16.1763 12.8636ZM16.0912 14.5705C16.435 14.0617 16.4678 13.4041 16.1763 12.8636L15.0321 13.4807C15.0939 13.5953 15.087 13.7348 15.014 13.8427L16.0912 14.5705ZM15.7244 14.9798C15.8598 14.8445 15.994 14.7145 16.0912 14.5705L15.014 13.8427C15.0039 13.8577 14.982 13.8837 14.8052 14.0606L15.7244 14.9798ZM15.7244 14.9798L15.7244 14.9798L14.8052 14.0606L14.8052 14.0606L15.7244 14.9798ZM14.9799 15.7244L15.7244 14.9798L14.8052 14.0606L14.0607 14.8051L14.9799 15.7244ZM14.9799 15.7244L14.9799 15.7244L14.0607 14.8051L14.0606 14.8052L14.9799 15.7244ZM14.5707 16.0911C14.7146 15.9939 14.8446 15.8597 14.9799 15.7244L14.0606 14.8052C13.8838 14.982 13.8578 15.0038 13.8428 15.014L14.5707 16.0911ZM12.8637 16.1762C13.4042 16.4677 14.0618 16.4349 14.5707 16.0911L13.8428 15.014C13.7349 15.0869 13.5954 15.0938 13.4807 15.032L12.8637 16.1762ZM12.42 15.8521C12.5681 15.9732 12.7108 16.0938 12.8637 16.1762L13.4807 15.032C13.4648 15.0234 13.4367 15.0043 13.2432 14.8459L12.42 15.8521ZM12.4086 15.8425L12.4086 15.8425L13.2546 14.8555L13.2546 14.8555L12.4086 15.8425ZM12.471 15.8898L12.471 15.8898L13.1922 14.8081L13.1921 14.8081L12.471 15.8898ZM11.9615 15.4945C11.9521 15.4905 11.9742 15.4986 12.0613 15.5642C12.1452 15.6274 12.2544 15.7165 12.42 15.852L13.2432 14.8459C13.0861 14.7174 12.9532 14.6084 12.8434 14.5257C12.7367 14.4454 12.6133 14.3596 12.4743 14.3L11.9615 15.4945ZM11.4984 15.6864C11.5714 15.5036 11.7806 15.4169 11.9615 15.4945L12.4743 14.3C11.6217 13.934 10.6351 14.3426 10.2911 15.2043L11.4984 15.6864ZM11.4269 16.2635C11.4482 16.0505 11.4624 15.9103 11.477 15.8062C11.4923 15.6982 11.5022 15.6769 11.4984 15.6864L10.2911 15.2043C10.235 15.3447 10.2084 15.4927 10.1897 15.6249C10.1706 15.7611 10.1536 15.9321 10.1334 16.1341L11.4269 16.2635ZM11.4213 16.3057L11.4213 16.3056L10.139 16.0919L10.139 16.0919L11.4213 16.3057ZM11.4302 16.1988V16.1988H10.1302V16.1988H11.4302ZM11.3424 16.8066C11.3922 16.6402 11.4079 16.454 11.4269 16.2635L10.1334 16.1341C10.1085 16.383 10.1022 16.4165 10.097 16.4338L11.3424 16.8066ZM10.0753 17.9533C10.6781 17.8367 11.1663 17.3949 11.3424 16.8066L10.097 16.4338C10.0597 16.5586 9.95611 16.6523 9.82824 16.677L10.0753 17.9533ZM9.52647 17.9834C9.71788 17.9834 9.90473 17.9864 10.0753 17.9533L9.82823 16.677C9.8105 16.6805 9.77659 16.6834 9.52647 16.6834V17.9834ZM8.47353 17.9834H9.52647V16.6834H8.47353V17.9834ZM7.9249 17.9534C8.0954 17.9864 8.28218 17.9834 8.47353 17.9834V16.6834C8.2235 16.6834 8.18959 16.6805 8.17186 16.677L7.9249 17.9534ZM6.65764 16.8065C6.83372 17.3948 7.32197 17.8367 7.92489 17.9534L8.17187 16.677C8.04397 16.6523 7.94041 16.5586 7.90306 16.4338L6.65764 16.8065ZM6.57315 16.2636C6.59219 16.454 6.60784 16.6401 6.65764 16.8065L7.90306 16.4338C7.89788 16.4165 7.89158 16.383 7.8667 16.1342L6.57315 16.2636ZM6.50173 15.6866C6.49794 15.6771 6.50785 15.6984 6.52306 15.8064C6.53771 15.9105 6.55186 16.0507 6.57315 16.2636L7.8667 16.1342C7.8465 15.9323 7.82953 15.7613 7.81036 15.6251C7.79174 15.4929 7.76513 15.345 7.70904 15.2045L6.50173 15.6866ZM6.03862 15.4948C6.21947 15.4172 6.42875 15.5038 6.50173 15.6866L7.70904 15.2045C7.36498 14.3429 6.37837 13.9342 5.52581 14.3002L6.03862 15.4948ZM5.58004 15.8523C5.7457 15.7168 5.85485 15.6277 5.93882 15.5644C6.02594 15.4988 6.04802 15.4908 6.03862 15.4948L5.52581 14.3002C5.38681 14.3599 5.26339 14.4457 5.15672 14.526C5.04689 14.6087 4.91396 14.7176 4.75683 14.8462L5.58004 15.8523ZM5.62805 15.8089L5.62806 15.8089L4.70882 14.8897L4.70881 14.8897L5.62805 15.8089ZM5.13618 16.1767C5.2891 16.0942 5.43187 15.9736 5.58004 15.8524L4.75683 14.8462C4.56322 15.0046 4.53509 15.0238 4.5192 15.0324L5.13618 16.1767ZM3.42935 16.0915C3.93814 16.4353 4.59572 16.4681 5.13619 16.1766L4.51919 15.0324C4.40455 15.0942 4.26506 15.0873 4.15714 15.0143L3.42935 16.0915ZM3.02001 15.7247C3.15536 15.8601 3.28539 15.9943 3.42935 16.0915L4.15714 15.0143C4.14217 15.0042 4.11611 14.9823 3.93925 14.8055L3.02001 15.7247ZM2.27561 14.9803L3.02001 15.7247L3.93925 14.8055L3.19485 14.0611L2.27561 14.9803ZM2.25607 14.9599L2.25608 14.9599L3.21438 14.0815L3.21437 14.0815L2.25607 14.9599ZM1.90863 14.5708C2.00592 14.7148 2.14019 14.8449 2.2756 14.9803L3.19484 14.0611C3.0179 13.8841 2.99599 13.858 2.98588 13.8431L1.90863 14.5708ZM1.82351 12.8642C1.53219 13.4046 1.56498 14.062 1.90863 14.5708L2.98588 13.8431C2.91298 13.7352 2.90603 13.5957 2.96782 13.4811L1.82351 12.8642ZM2.14793 12.4201C2.02666 12.5684 1.90599 12.7112 1.82351 12.8642L2.96782 13.4811C2.9764 13.4652 2.9956 13.437 3.15407 13.2433L2.14793 12.4201ZM2.50568 11.9613C2.50972 11.9519 2.50166 11.974 2.43601 12.0611C2.37274 12.1452 2.28355 12.2544 2.14793 12.4201L3.15408 13.2433C3.2827 13.0861 3.3917 12.9531 3.47446 12.8432C3.55485 12.7365 3.64068 12.613 3.70036 12.4739L2.50568 11.9613ZM2.31389 11.4983C2.4966 11.5713 2.58326 11.7805 2.50568 11.9613L3.70036 12.4739C4.06609 11.6215 3.65756 10.6352 2.79621 10.291L2.31389 11.4983ZM1.73652 11.4268C1.9496 11.4481 2.08988 11.4622 2.19402 11.4769C2.30207 11.4921 2.32339 11.5021 2.31389 11.4983L2.79621 10.291C2.65565 10.2349 2.50763 10.2083 2.37532 10.1896C2.23909 10.1704 2.06798 10.1534 1.86587 10.1332L1.73652 11.4268ZM1.19322 11.3422C1.35971 11.3921 1.54599 11.4077 1.73652 11.4268L1.86587 10.1332C1.61691 10.1083 1.58344 10.102 1.56614 10.0968L1.19322 11.3422ZM0.0466258 10.0752C0.163344 10.678 0.605073 11.1661 1.19322 11.3422L1.56613 10.0968C1.44138 10.0595 1.34768 9.95595 1.32292 9.82809L0.0466258 10.0752ZM0.0165344 9.52623C0.0165344 9.7177 0.013586 9.90461 0.0466259 10.0752L1.32292 9.82809C1.31948 9.81036 1.31653 9.77643 1.31653 9.52623H0.0165344ZM0.0165344 8.47344V9.52623H1.31653V8.47344H0.0165344ZM0.0466024 7.92464C0.0135884 8.0952 0.0165344 8.28203 0.0165344 8.47344H1.31653C1.31653 8.22333 1.31948 8.18942 1.32291 8.17169L0.0466024 7.92464ZM1.19334 6.65751C0.605094 6.8336 0.163292 7.32179 0.0466024 7.92464L1.32291 8.17169C1.34766 8.04381 1.44138 7.94025 1.56616 7.9029L1.19334 6.65751ZM1.73646 6.57298C1.54599 6.59202 1.35977 6.60768 1.19334 6.65751L1.56616 7.9029C1.58346 7.89772 1.61692 7.89141 1.86581 7.86653L1.73646 6.57298ZM1.68487 6.58023L1.68486 6.58024L1.91741 7.85927L1.91742 7.85926L1.68487 6.58023ZM2.31356 6.50154C2.32305 6.49775 2.30174 6.50767 2.19374 6.52287C2.08965 6.53753 1.94944 6.55168 1.73647 6.57298L1.86582 7.86652C2.06782 7.84632 2.23885 7.82935 2.375 7.81018C2.50724 7.79156 2.65518 7.76494 2.79567 7.70884L2.31356 6.50154ZM2.50538 6.03844C2.583 6.21929 2.49632 6.42856 2.31356 6.50154L2.79567 7.70884C3.65728 7.36477 4.06593 6.37821 3.69997 5.52566L2.50538 6.03844ZM2.14786 5.57992C2.28339 5.74556 2.37252 5.85469 2.43575 5.93865C2.50135 6.02575 2.50941 6.04784 2.50538 6.03844L3.69997 5.52566C3.6403 5.38665 3.55452 5.26324 3.47418 5.15656C3.39147 5.04674 3.28255 4.91382 3.15401 4.75671L2.14786 5.57992ZM2.15159 5.58443L2.15159 5.58443L3.15028 4.75219L3.15028 4.75219L2.15159 5.58443ZM1.82368 5.13623C1.90612 5.2891 2.02668 5.43181 2.14786 5.57991L3.154 4.7567C2.99567 4.56318 2.97647 4.53507 2.9679 4.51918L1.82368 5.13623ZM1.90882 3.42925C1.565 3.93807 1.5322 4.59573 1.82368 5.13623L2.9679 4.51918C2.90607 4.40453 2.91303 4.26502 2.98596 4.15709L1.90882 3.42925ZM2.27554 3.02002C2.14022 3.15534 2.00606 3.28534 1.90882 3.42925L2.98596 4.15709C2.99607 4.14213 3.01797 4.11607 3.19478 3.93926L2.27554 3.02002ZM2.27554 3.02002L2.27554 3.02003L3.19478 3.93926L3.19478 3.93926L2.27554 3.02002ZM3.02008 2.27548L2.27554 3.02002L3.19478 3.93926L3.93932 3.19472L3.02008 2.27548ZM3.42938 1.9087C3.28544 2.00595 3.15542 2.14014 3.02008 2.27548L3.93932 3.19472C4.11616 3.01788 4.14223 2.99598 4.15719 2.98587L3.42938 1.9087ZM5.13627 1.82356C4.59579 1.53212 3.93818 1.56492 3.42938 1.9087L4.15719 2.98587C4.26512 2.91294 4.40461 2.90599 4.51926 2.96781L5.13627 1.82356ZM5.58007 2.14783C5.43192 2.02661 5.28918 1.90602 5.13628 1.82356L4.51926 2.96781C4.53515 2.97638 4.56328 2.99558 4.75686 3.15397L5.58007 2.14783ZM6.03862 2.50536C6.04802 2.50939 6.02594 2.50134 5.93882 2.43573C5.85486 2.37249 5.74572 2.28336 5.58007 2.14783L4.75686 3.15397C4.91398 3.28252 5.04691 3.39144 5.15672 3.47415C5.26339 3.55449 5.3868 3.64027 5.5258 3.69994L6.03862 2.50536ZM6.50173 2.31353C6.42875 2.49631 6.21947 2.583 6.03862 2.50536L5.5258 3.69994C6.37837 4.06594 7.36498 3.65727 7.70904 2.79561L6.50173 2.31353ZM6.57315 1.73657C6.55186 1.9495 6.53771 2.08968 6.52306 2.19375C6.50786 2.30172 6.49794 2.32302 6.50173 2.31353L7.70904 2.79561C7.76513 2.65514 7.79174 2.50723 7.81036 2.37501C7.82953 2.23888 7.8465 2.06789 7.8667 1.86593L6.57315 1.73657ZM6.58041 1.68497L6.58041 1.68497L7.85944 1.91752L7.85944 1.91752L6.58041 1.68497ZM6.57877 1.69437L6.57877 1.69438L7.86108 1.9081L7.86108 1.90809L6.57877 1.69437ZM6.65764 1.19365C6.60784 1.36003 6.59219 1.54617 6.57315 1.73656L7.8667 1.86591C7.89158 1.61713 7.89788 1.58369 7.90306 1.56639L6.65764 1.19365ZM7.9249 0.0467969C7.32197 0.163464 6.83372 0.605324 6.65764 1.19365L7.90306 1.56639C7.94041 1.4416 8.04397 1.34787 8.17187 1.32312L7.9249 0.0467969ZM8.47352 0.0167481C8.28218 0.0167481 8.09541 0.0138038 7.9249 0.046797L8.17187 1.32312C8.18959 1.31969 8.2235 1.31675 8.47352 1.31675V0.0167481ZM9.52647 0.0167481H8.47352V1.31675H9.52647V0.0167481ZM10.0753 0.0468174C9.90472 0.0138019 9.71788 0.0167481 9.52647 0.0167481V1.31675C9.77658 1.31675 9.8105 1.31969 9.82823 1.32313L10.0753 0.0468174ZM11.3424 1.19355C11.1663 0.605306 10.6781 0.16351 10.0753 0.0468177L9.82823 1.32313C9.95611 1.34788 10.0597 1.44159 10.097 1.56637L11.3424 1.19355ZM11.4269 1.73666C11.4079 1.5462 11.3922 1.35997 11.3424 1.19354L10.097 1.56638C10.1022 1.58367 10.1085 1.61713 10.1334 1.86603L11.4269 1.73666ZM11.6833 9.00008C11.6833 10.482 10.4819 11.6834 8.99998 11.6834V12.9834C11.1999 12.9834 12.9833 11.2 12.9833 9.00008H11.6833ZM8.99998 6.31675C10.4819 6.31675 11.6833 7.51812 11.6833 9.00008H12.9833C12.9833 6.80015 11.1999 5.01675 8.99998 5.01675V6.31675ZM6.31664 9.00008C6.31664 7.51812 7.51801 6.31675 8.99998 6.31675V5.01675C6.80004 5.01675 5.01664 6.80015 5.01664 9.00008H6.31664ZM8.99998 11.6834C7.51801 11.6834 6.31664 10.482 6.31664 9.00008H5.01664C5.01664 11.2 6.80004 12.9834 8.99998 12.9834V11.6834Z" />
</svg>