<svg width="16" height="16" viewBox="0 0 16 16" fill="#2B2B2B" stroke="none" xmlns="http://www.w3.org/2000/svg">
    <path
        d="M10.257 4.18324V3.81752C10.257 3.34786 10.257 2.969 10.2359 2.66066C10.2143 2.3436 10.1687 2.06325 10.0587 1.79778C9.79442 1.15969 9.28746 0.652724 8.64936 0.388416C8.38389 0.278456 8.10354 0.232849 7.78649 0.211217C7.47815 0.19018 7.09929 0.190182 6.62963 0.190186H4.5093C4.03963 0.190182 3.66077 0.190179 3.35243 0.211217C3.03538 0.232849 2.75502 0.278456 2.48955 0.388416C1.85146 0.652723 1.3445 1.15969 1.08019 1.79778C0.970229 2.06325 0.924622 2.3436 0.90299 2.66066C0.881952 2.96899 0.881955 3.34785 0.881958 3.81752V11.4934C0.881954 11.9631 0.881952 12.3419 0.902989 12.6503C0.924622 12.9673 0.970228 13.2477 1.08019 13.5131C1.3445 14.1512 1.85146 14.6582 2.48955 14.9225C2.75502 15.0325 3.03538 15.0781 3.35243 15.0997C3.66077 15.1207 4.03962 15.1207 4.50929 15.1207H6.62963C7.09929 15.1207 7.47815 15.1207 7.78649 15.0997C8.10354 15.0781 8.38389 15.0325 8.64936 14.9225C9.28746 14.6582 9.79442 14.1512 10.0587 13.5131C10.1687 13.2477 10.2143 12.9673 10.2359 12.6503C10.257 12.3419 10.257 11.9631 10.257 11.4934V11.1277C10.257 10.84 10.0238 10.6069 9.73612 10.6069C9.44848 10.6069 9.21529 10.84 9.21529 11.1277V11.4749C9.21529 11.9674 9.21501 12.3107 9.19668 12.5794C9.17866 12.8434 9.14498 12.9971 9.09635 13.1145C8.93777 13.4974 8.63359 13.8016 8.25073 13.9601C8.13335 14.0088 7.97959 14.0424 7.71558 14.0605C7.44688 14.0788 7.10361 14.0791 6.61112 14.0791H4.52779C4.03531 14.0791 3.69203 14.0788 3.42334 14.0605C3.15932 14.0424 3.00557 14.0088 2.88818 13.9601C2.50533 13.8016 2.20115 13.4974 2.04256 13.1145C1.99394 12.9971 1.96025 12.8434 1.94224 12.5794C1.92391 12.3107 1.92362 11.9674 1.92362 11.4749L1.92363 3.83602C1.92363 3.34354 1.92391 3.00026 1.94224 2.73156C1.96025 2.46755 1.99394 2.3138 2.04256 2.19641C2.20115 1.81355 2.50533 1.50937 2.88818 1.35079C3.00557 1.30217 3.15932 1.26848 3.42334 1.25047C3.69203 1.23213 4.03531 1.23185 4.52779 1.23185L6.61112 1.23185C7.10361 1.23185 7.44688 1.23213 7.71558 1.25047C7.9796 1.26848 8.13335 1.30217 8.25073 1.35079C8.63359 1.50938 8.93777 1.81355 9.09635 2.19641C9.14498 2.3138 9.17866 2.46755 9.19668 2.73157C9.21501 3.00026 9.21529 3.34354 9.21529 3.83602L9.21529 4.18324C9.21529 4.47089 9.44848 4.70407 9.73612 4.70407C10.0238 4.70407 10.257 4.47089 10.257 4.18324Z" />
    <path
        d="M15.0139 7.96797C15.1528 7.78279 15.1528 7.52816 15.0139 7.34297L12.9306 4.5652C12.758 4.33508 12.4315 4.28844 12.2014 4.46103C11.9713 4.63362 11.9246 4.96008 12.0972 5.1902L13.5556 7.13464L4.18057 7.13464C3.89292 7.13464 3.65974 7.36782 3.65974 7.65547C3.65974 7.94312 3.89292 8.17631 4.18057 8.17631L13.5556 8.17631L12.0972 10.1208C11.9246 10.3509 11.9713 10.6773 12.2014 10.8499C12.4315 11.0225 12.758 10.9759 12.9306 10.7457L15.0139 7.96797Z" />
    <path
        d="M10.257 4.18324V3.81752C10.257 3.34786 10.257 2.969 10.2359 2.66066C10.2143 2.3436 10.1687 2.06325 10.0587 1.79778C9.79442 1.15969 9.28746 0.652724 8.64936 0.388416C8.38389 0.278456 8.10354 0.232849 7.78649 0.211217C7.47815 0.19018 7.09929 0.190182 6.62963 0.190186H4.5093C4.03963 0.190182 3.66077 0.190179 3.35243 0.211217C3.03538 0.232849 2.75502 0.278456 2.48955 0.388416C1.85146 0.652723 1.3445 1.15969 1.08019 1.79778C0.970229 2.06325 0.924622 2.3436 0.90299 2.66066C0.881952 2.96899 0.881955 3.34785 0.881958 3.81752V11.4934C0.881954 11.9631 0.881952 12.3419 0.902989 12.6503C0.924622 12.9673 0.970228 13.2477 1.08019 13.5131C1.3445 14.1512 1.85146 14.6582 2.48955 14.9225C2.75502 15.0325 3.03538 15.0781 3.35243 15.0997C3.66077 15.1207 4.03962 15.1207 4.50929 15.1207H6.62963C7.09929 15.1207 7.47815 15.1207 7.78649 15.0997C8.10354 15.0781 8.38389 15.0325 8.64936 14.9225C9.28746 14.6582 9.79442 14.1512 10.0587 13.5131C10.1687 13.2477 10.2143 12.9673 10.2359 12.6503C10.257 12.3419 10.257 11.9631 10.257 11.4934V11.1277C10.257 10.84 10.0238 10.6069 9.73612 10.6069C9.44848 10.6069 9.21529 10.84 9.21529 11.1277V11.4749C9.21529 11.9674 9.21501 12.3107 9.19668 12.5794C9.17866 12.8434 9.14498 12.9971 9.09635 13.1145C8.93777 13.4974 8.63359 13.8016 8.25073 13.9601C8.13335 14.0088 7.97959 14.0424 7.71558 14.0605C7.44688 14.0788 7.10361 14.0791 6.61112 14.0791H4.52779C4.03531 14.0791 3.69203 14.0788 3.42334 14.0605C3.15932 14.0424 3.00557 14.0088 2.88818 13.9601C2.50533 13.8016 2.20115 13.4974 2.04256 13.1145C1.99394 12.9971 1.96025 12.8434 1.94224 12.5794C1.92391 12.3107 1.92362 11.9674 1.92362 11.4749L1.92363 3.83602C1.92363 3.34354 1.92391 3.00026 1.94224 2.73156C1.96025 2.46755 1.99394 2.3138 2.04256 2.19641C2.20115 1.81355 2.50533 1.50937 2.88818 1.35079C3.00557 1.30217 3.15932 1.26848 3.42334 1.25047C3.69203 1.23213 4.03531 1.23185 4.52779 1.23185L6.61112 1.23185C7.10361 1.23185 7.44688 1.23213 7.71558 1.25047C7.9796 1.26848 8.13335 1.30217 8.25073 1.35079C8.63359 1.50938 8.93777 1.81355 9.09635 2.19641C9.14498 2.3138 9.17866 2.46755 9.19668 2.73157C9.21501 3.00026 9.21529 3.34354 9.21529 3.83602L9.21529 4.18324C9.21529 4.47089 9.44848 4.70407 9.73612 4.70407C10.0238 4.70407 10.257 4.47089 10.257 4.18324Z"
        stroke-width="0.3" stroke-linecap="round" stroke-linejoin="round" />
    <path
        d="M15.0139 7.96797C15.1528 7.78279 15.1528 7.52816 15.0139 7.34297L12.9306 4.5652C12.758 4.33508 12.4315 4.28844 12.2014 4.46103C11.9713 4.63362 11.9246 4.96008 12.0972 5.1902L13.5556 7.13464L4.18057 7.13464C3.89292 7.13464 3.65974 7.36782 3.65974 7.65547C3.65974 7.94312 3.89292 8.17631 4.18057 8.17631L13.5556 8.17631L12.0972 10.1208C11.9246 10.3509 11.9713 10.6773 12.2014 10.8499C12.4315 11.0225 12.758 10.9759 12.9306 10.7457L15.0139 7.96797Z"
        stroke-width="0.3" stroke-linecap="round" stroke-linejoin="round" />
</svg>