<svg width="16" height="16" viewBox="0 0 26 27" fill="#A4A4A4" xmlns="http://www.w3.org/2000/svg" class="mr-9">
    <g clip-path="url(#clip0_7872:25248)">
        <path
            d="M12.9999 1.6197C6.60719 1.6197 1.42561 6.80128 1.42561 13.194C1.42561 19.5868 6.60719 24.7684 12.9999 24.7684C19.3927 24.7684 24.5743 19.5868 24.5743 13.194C24.5613 6.8067 19.3873 1.6327 13.001 1.6197H12.9999ZM12.9999 25.7748C6.05144 25.7748 0.419189 20.1425 0.419189 13.194C0.419189 6.24553 6.05144 0.613281 12.9999 0.613281C19.9484 0.613281 25.5807 6.24553 25.5807 13.194V13.2103C25.5807 20.149 19.956 25.7737 13.0173 25.7737H12.9999H13.001L12.9999 25.7748Z">
        </path>
        <path
            d="M13 26.1943C5.83483 26.1575 0.0368333 20.3595 0 13.1976V13.1943C0 6.01509 5.82075 0.194336 13 0.194336C20.1793 0.194336 26 6.01509 26 13.1943C25.9632 20.3595 20.1652 26.1575 13.0033 26.1943H13ZM13 1.03284C6.28333 1.03284 0.8385 6.47767 0.8385 13.1943C0.8385 19.911 6.28333 25.3558 13 25.3558C19.7167 25.3558 25.1615 19.911 25.1615 13.1943C25.1572 6.47984 19.7145 1.03825 13.0011 1.03284H13ZM13 25.1879C6.3765 25.1879 1.00642 19.8178 1.00642 13.1943C1.00642 6.57084 6.3765 1.20075 13 1.20075C19.6235 1.20075 24.9936 6.57084 24.9936 13.1943C24.9936 19.8178 19.6235 25.1879 13 25.1879ZM13 2.03925C6.83908 2.03925 1.84492 7.03342 1.84492 13.1943C1.84492 19.3553 6.83908 24.3494 13 24.3494C19.1609 24.3494 24.1551 19.3553 24.1551 13.1943V13.1889C24.1551 7.03125 19.1631 2.03925 13.0054 2.03925H13Z">
        </path>
        <path
            d="M10.4834 10.9301V10.9398C10.4834 12.1857 9.47373 13.1953 8.2279 13.1953H8.21815C7.61765 13.1953 7.04175 12.9568 6.61714 12.5322C6.19253 12.1076 5.95398 11.5317 5.95398 10.9312C5.95398 10.3307 6.19253 9.75476 6.61714 9.33015C7.04175 8.90554 7.61765 8.66699 8.21815 8.66699H8.2279C9.47373 8.66699 10.4834 9.67666 10.4834 10.9225V10.9322V10.9301Z">
        </path>
        <path
            d="M20.1294 10.9303C20.1294 11.5308 19.8909 12.1067 19.4662 12.5313C19.0416 12.9559 18.4657 13.1945 17.8652 13.1945C17.2647 13.1945 16.6888 12.9559 16.2642 12.5313C15.8396 12.1067 15.6011 11.5308 15.6011 10.9303V10.9205C15.6011 9.67471 16.6107 8.66504 17.8566 8.66504H17.8663C18.4628 8.67667 19.0316 8.91865 19.4537 9.3403C19.8758 9.76196 20.1183 10.3306 20.1305 10.927V10.9292L20.1294 10.9303Z">
        </path>
        <path
            d="M17.7807 18.8132H8.13583C8.00223 18.8132 7.8741 18.7601 7.77962 18.6656C7.68515 18.5711 7.63208 18.443 7.63208 18.3094C7.63208 18.1758 7.68515 18.0477 7.77962 17.9532C7.8741 17.8587 8.00223 17.8057 8.13583 17.8057H17.7807C17.911 17.8145 18.0336 17.8702 18.126 17.9623C18.2184 18.0545 18.2743 18.177 18.2834 18.3072V18.33C18.2834 18.5965 18.0667 18.8132 17.8002 18.8132H17.7786H17.7797H17.7807Z">
        </path>
        <path
            d="M17.7808 19.2327H8.13589C7.8911 19.2327 7.65633 19.1355 7.48323 18.9624C7.31014 18.7893 7.21289 18.5545 7.21289 18.3097C7.21289 18.0649 7.31014 17.8302 7.48323 17.6571C7.65633 17.484 7.8911 17.3867 8.13589 17.3867H17.7808C18.0256 17.3867 18.2604 17.484 18.4335 17.6571C18.6066 17.8302 18.7038 18.0649 18.7038 18.3097C18.7038 18.5545 18.6066 18.7893 18.4335 18.9624C18.2604 19.1355 18.0256 19.2327 17.7808 19.2327ZM8.21931 18.2263C8.13589 18.2263 8.13589 18.3097 8.21931 18.2263C8.19764 18.248 8.18356 18.2772 8.18356 18.3097C8.18356 18.3422 8.19764 18.3726 8.21931 18.3931H17.8642C17.8863 18.3931 17.9076 18.3843 17.9232 18.3687C17.9389 18.3531 17.9476 18.3318 17.9476 18.3097C17.9476 18.2263 17.9476 18.2263 17.8642 18.2263H8.21931Z">
        </path>
    </g>
    <defs>
        <clipPath id="clip0_7872:25248">
            <rect width="26" height="26" fill="white" transform="translate(0 0.194336)"></rect>
        </clipPath>
    </defs>
</svg>