<svg width="160" height="160" viewBox="0 0 160 160" fill="none" xmlns="http://www.w3.org/2000/svg">
<path d="M160 80C160 124.183 124.183 160 80 160C35.8172 160 0 124.183 0 80C0 35.8172 35.8172 0 80 0C124.183 0 160 35.8172 160 80ZM8 80C8 119.765 40.2355 152 80 152C119.765 152 152 119.765 152 80C152 40.2355 119.765 8 80 8C40.2355 8 8 40.2355 8 80Z" fill="url(#paint0_linear_3222_110443)"/>
<path d="M53.5174 151.237C52.7476 153.307 50.4402 154.371 48.4106 153.499C38.066 149.053 28.7617 142.467 21.119 134.157C12.5724 124.865 6.34628 113.683 2.94969 101.523C-0.446901 89.3639 -0.917514 76.5733 1.57633 64.1972C4.07017 51.8212 9.45765 40.211 17.2983 30.316C25.1389 20.4211 35.2101 12.5222 46.6884 7.26529C58.1667 2.00837 70.7262 -0.457336 83.34 0.0697539C95.9538 0.596844 108.264 4.10177 119.264 10.298C129.1 15.8388 137.639 23.3911 144.332 32.4455C145.645 34.222 145.137 36.7115 143.297 37.9343V37.9343C141.457 39.157 138.983 38.6491 137.66 36.88C131.672 28.8735 124.073 22.1893 115.337 17.2682C105.437 11.6916 94.3585 8.53716 83.006 8.06278C71.6536 7.5884 60.35 9.80754 50.0196 14.5388C39.6891 19.27 30.625 26.379 23.5685 35.2844C16.5119 44.1899 11.6631 54.639 9.41869 65.7775C7.17424 76.916 7.59779 88.4275 10.6547 99.3709C13.7116 110.314 19.3152 120.379 27.0071 128.742C33.795 136.122 42.0392 141.991 51.2025 145.99C53.2272 146.874 54.2872 149.166 53.5174 151.237V151.237Z" fill="url(#paint1_linear_3222_110443)"/>
<defs>
<linearGradient id="paint0_linear_3222_110443" x1="0" y1="0" x2="173.592" y2="16.4347" gradientUnits="userSpaceOnUse">
<stop stop-color="#467AFF"/>
<stop offset="1" stop-color="#8E74FC" stop-opacity="0.8"/>
</linearGradient>
<linearGradient id="paint1_linear_3222_110443" x1="80" y1="0" x2="80" y2="160" gradientUnits="userSpaceOnUse">
<stop stop-color="#1AE5BE"/>
<stop offset="1" stop-color="#467AFF" stop-opacity="0.32"/>
</linearGradient>
</defs>
</svg>
