<svg width="16" height="14" viewBox="0 0 16 14" fill="#6B6B6B" xmlns="http://www.w3.org/2000/svg">
<path d="M14.3438 3.75012C14.9688 3.28137 15.5312 2.71887 15.9688 2.06262C15.4062 2.31262 14.75 2.50012 14.0938 2.56262C14.7812 2.15637 15.2812 1.53137 15.5312 0.750122C14.9062 1.12512 14.1875 1.40637 13.4688 1.56262C12.8438 0.906372 12 0.531372 11.0625 0.531372C9.25 0.531372 7.78125 2.00012 7.78125 3.81262C7.78125 4.06262 7.8125 4.31262 7.875 4.56262C5.15625 4.40637 2.71875 3.09387 1.09375 1.12512C0.8125 1.59387 0.65625 2.15637 0.65625 2.78137C0.65625 3.90637 1.21875 4.90637 2.125 5.50012C1.59375 5.46887 1.0625 5.34387 0.625 5.09387V5.12512C0.625 6.71887 1.75 8.03137 3.25 8.34387C3 8.40637 2.6875 8.46887 2.40625 8.46887C2.1875 8.46887 2 8.43762 1.78125 8.40637C2.1875 9.71887 3.40625 10.6564 4.84375 10.6876C3.71875 11.5626 2.3125 12.0939 0.78125 12.0939C0.5 12.0939 0.25 12.0626 0 12.0314C1.4375 12.9689 3.15625 13.5001 5.03125 13.5001C11.0625 13.5001 14.3438 8.53137 14.3438 4.18762C14.3438 4.03137 14.3438 3.90637 14.3438 3.75012Z"/>
</svg>
