<svg width="12" height="12" viewBox="0 0 12 12" fill="#2C2C2C" xmlns="http://www.w3.org/2000/svg">
    <path
        d="M5.23076 5.70733C5.23076 5.46487 5.02413 5.26831 4.76923 5.26831C4.51433 5.26831 4.30769 5.46487 4.30769 5.70733V8.63415C4.30769 8.87662 4.51433 9.07318 4.76923 9.07318C5.02413 9.07318 5.23076 8.87662 5.23076 8.63415V5.70733Z" />
    <path
        d="M7.23076 5.26831C7.48566 5.26831 7.6923 5.46487 7.6923 5.70733V8.63415C7.6923 8.87662 7.48566 9.07318 7.23076 9.07318C6.97586 9.07318 6.76922 8.87662 6.76922 8.63415V5.70733C6.76922 5.46487 6.97586 5.26831 7.23076 5.26831Z" />
    <path fill-rule="evenodd" clip-rule="evenodd"
        d="M5.31334 1.41488e-05C4.80998 -0.000143626 4.46651 -0.000251298 4.17195 0.0748257C3.37558 0.277802 2.75355 0.86949 2.54016 1.62701C2.4835 1.82816 2.46757 2.0533 2.46316 2.34148H0.461538C0.206638 2.34148 0 2.53804 0 2.78051C0 3.02297 0.206638 3.21953 0.461538 3.21953H1.23077V8.94243C1.23076 9.33832 1.23076 9.65767 1.24941 9.91758C1.26857 10.1848 1.30899 10.4211 1.40643 10.6449C1.64065 11.1828 2.08989 11.6101 2.65534 11.8329C2.89059 11.9256 3.13903 11.964 3.41998 11.9823C3.69322 12 4.02894 12 4.44514 12H7.55485C7.97104 12 8.30677 12 8.58 11.9823C8.86096 11.964 9.1094 11.9256 9.34465 11.8329C9.91009 11.6101 10.3593 11.1828 10.5936 10.6449C10.691 10.4211 10.7314 10.1848 10.7506 9.91758C10.7692 9.65771 10.7692 9.33841 10.7692 8.94258V3.21953H11.5385C11.7934 3.21953 12 3.02297 12 2.78051C12 2.53804 11.7934 2.34148 11.5385 2.34148H9.53682C9.5324 2.0533 9.51648 1.82816 9.45981 1.62701C9.24643 0.86949 8.6244 0.277802 7.82803 0.0748257C7.53347 -0.000251264 7.18999 -0.000143626 6.68663 1.41488e-05H5.31334ZM8.61311 2.34148C8.60902 2.08687 8.59785 1.95955 8.56819 1.85426C8.44016 1.39975 8.06694 1.04474 7.58912 0.922954C7.42784 0.881847 7.21738 0.878076 6.61537 0.878076H5.3846C4.7826 0.878076 4.57214 0.881847 4.41085 0.922954C3.93304 1.04474 3.55982 1.39975 3.43178 1.85426C3.40213 1.95955 3.39096 2.08687 3.38686 2.34148H8.61311ZM2.15384 3.21953H9.84614V8.92684C9.84614 9.34196 9.84589 9.63132 9.82965 9.85781C9.81369 10.0804 9.78383 10.21 9.74075 10.3089C9.60022 10.6316 9.33067 10.888 8.9914 11.0217C8.88738 11.0627 8.75113 11.0911 8.51717 11.1063C8.27907 11.1217 7.97487 11.122 7.53845 11.122H4.46153C4.02512 11.122 3.72092 11.1217 3.48282 11.1063C3.24886 11.0911 3.11261 11.0627 3.00859 11.0217C2.66932 10.888 2.39977 10.6316 2.25924 10.3089C2.21615 10.21 2.1863 10.0804 2.17034 9.85781C2.15409 9.63132 2.15384 9.34196 2.15384 8.92684V3.21953Z" />
</svg>