<svg width="24" height="9" viewBox="0 0 24 9" fill="none" xmlns="http://www.w3.org/2000/svg">
<path d="M3.88482 8.15073C3.20559 8.15073 2.60938 8.0413 2.09619 7.82244C1.59054 7.59603 1.1981 7.25265 0.918857 6.79228C0.639619 6.32437 0.5 5.73193 0.5 5.01497V0.396217C0.5 0.3132 0.526414 0.245277 0.579243 0.192448C0.632072 0.139619 0.699995 0.113205 0.783012 0.113205H2.24335C2.32637 0.113205 2.39429 0.139619 2.44712 0.192448C2.49995 0.245277 2.52636 0.3132 2.52636 0.396217V5.00365C2.52636 5.4942 2.64334 5.864 2.8773 6.11305C3.1188 6.35455 3.45464 6.47531 3.88482 6.47531C4.30745 6.47531 4.63574 6.35455 4.8697 6.11305C5.1112 5.864 5.23195 5.4942 5.23195 5.00365V0.396217C5.23195 0.3132 5.25837 0.245277 5.3112 0.192448C5.37157 0.139619 5.4395 0.113205 5.51497 0.113205H6.98663C7.0621 0.113205 7.12625 0.139619 7.17907 0.192448C7.23945 0.245277 7.26964 0.3132 7.26964 0.396217V5.01497C7.26964 5.73193 7.13002 6.32437 6.85078 6.79228C6.57154 7.25265 6.1791 7.59603 5.67345 7.82244C5.16781 8.0413 4.57159 8.15073 3.88482 8.15073Z" fill="#BDBDBD"/>
<path d="M11.9519 8.15073C11.1972 8.15073 10.5708 8.04508 10.0727 7.83376C9.57459 7.6149 9.19724 7.33189 8.94064 6.98473C8.68405 6.63757 8.5482 6.26776 8.53311 5.87532C8.53311 5.81495 8.55575 5.76212 8.60103 5.71684C8.65386 5.66401 8.71424 5.63759 8.78216 5.63759H10.2085C10.3142 5.63759 10.3934 5.65646 10.4463 5.69419C10.5066 5.73193 10.5595 5.78098 10.6048 5.84136C10.6651 5.95457 10.7481 6.064 10.8538 6.16965C10.967 6.27531 11.1104 6.3621 11.284 6.43002C11.4651 6.4904 11.6877 6.52059 11.9519 6.52059C12.3896 6.52059 12.7179 6.45267 12.9368 6.31682C13.1632 6.18097 13.2764 5.99607 13.2764 5.76212C13.2764 5.59608 13.216 5.46024 13.0953 5.35458C12.9745 5.24138 12.7783 5.14326 12.5066 5.06025C12.2424 4.96968 11.8877 4.87912 11.4425 4.78856C10.8689 4.66781 10.3783 4.51309 9.97081 4.32442C9.57082 4.1282 9.26516 3.87537 9.05385 3.56595C8.84253 3.24897 8.73688 2.85653 8.73688 2.38862C8.73688 1.92825 8.86517 1.51694 9.12177 1.15469C9.38592 0.792433 9.75194 0.509421 10.2199 0.305653C10.6878 0.101884 11.2425 0 11.884 0C12.4047 0 12.8613 0.0679228 13.2537 0.203768C13.6537 0.339614 13.9896 0.520741 14.2613 0.74715C14.533 0.97356 14.7367 1.21506 14.8726 1.47166C15.016 1.72071 15.0914 1.96599 15.099 2.20749C15.099 2.26787 15.0763 2.32447 15.0311 2.3773C14.9858 2.42258 14.9292 2.44522 14.8612 2.44522H13.3669C13.2839 2.44522 13.2122 2.43013 13.1519 2.39994C13.0915 2.36975 13.0387 2.3207 12.9934 2.25277C12.9481 2.08674 12.8273 1.94335 12.6311 1.8226C12.4424 1.6943 12.1934 1.63015 11.884 1.63015C11.5519 1.63015 11.2915 1.69052 11.1029 1.81127C10.9217 1.92448 10.8312 2.10183 10.8312 2.34334C10.8312 2.49428 10.8802 2.62635 10.9783 2.73955C11.084 2.85276 11.2538 2.95087 11.4877 3.03388C11.7293 3.1169 12.0575 3.20369 12.4726 3.29426C13.1594 3.42255 13.7141 3.58481 14.1367 3.78104C14.5594 3.96971 14.8688 4.21876 15.065 4.52819C15.2612 4.83007 15.3593 5.21119 15.3593 5.67155C15.3593 6.18475 15.2122 6.63002 14.9179 7.00737C14.6311 7.37717 14.2311 7.66018 13.7179 7.8564C13.2047 8.05262 12.616 8.15073 11.9519 8.15073Z" fill="#BDBDBD"/>
<path d="M17.0021 8.03753C16.919 8.03753 16.8511 8.01112 16.7983 7.95829C16.7455 7.90546 16.719 7.83754 16.719 7.75452V0.396217C16.719 0.3132 16.7455 0.245277 16.7983 0.192448C16.8511 0.139619 16.919 0.113205 17.0021 0.113205H19.9454C20.685 0.113205 21.3152 0.233956 21.8359 0.475459C22.3566 0.709416 22.7566 1.05658 23.0359 1.51694C23.3151 1.96976 23.466 2.53201 23.4887 3.20369C23.4962 3.53576 23.5 3.82632 23.5 4.07537C23.5 4.32442 23.4962 4.6112 23.4887 4.93572C23.4585 5.63759 23.3076 6.21871 23.0359 6.67907C22.7717 7.13944 22.383 7.48283 21.8699 7.70924C21.3642 7.9281 20.7416 8.03753 20.002 8.03753H17.0021ZM18.7454 6.40738H19.9454C20.2699 6.40738 20.5378 6.35833 20.7491 6.26022C20.968 6.15456 21.1303 5.9923 21.2359 5.77344C21.3491 5.55457 21.4095 5.26779 21.417 4.91308C21.4321 4.69422 21.4397 4.498 21.4397 4.32442C21.4472 4.15084 21.4472 3.97726 21.4397 3.80368C21.4397 3.6301 21.4321 3.43765 21.417 3.22633C21.4019 2.71314 21.2661 2.33956 21.0095 2.10561C20.7604 1.8641 20.3869 1.74335 19.8888 1.74335H18.7454V6.40738Z" fill="#BDBDBD"/>
</svg>
