<svg width="16" height="14" viewBox="0 0 16 14" fill="#6B6B6B" xmlns="http://www.w3.org/2000/svg">
<path fill-rule="evenodd" clip-rule="evenodd" d="M12.5214 3.81707H12.5785C13.028 3.81716 13.473 3.91632 13.8882 4.10889C14.3033 4.30146 14.6803 4.58365 14.9977 4.93929C15.6395 5.65803 16 6.63187 16 7.64716C16 8.66245 15.6395 9.63629 14.9977 10.355C14.6803 10.7107 14.3033 10.9929 13.8882 11.1854C13.473 11.378 13.028 11.4772 12.5785 11.4772H10.2987V10.2006H12.5785C13.167 10.1711 13.7226 9.88928 14.1297 9.41364C14.5368 8.93801 14.764 8.30527 14.764 7.64716C14.764 6.98906 14.5368 6.35631 14.1297 5.88068C13.7226 5.40504 13.167 5.12318 12.5785 5.09377H11.534L11.3935 3.99964C11.3077 3.31415 11.0241 2.67866 10.5856 2.18969C10.1471 1.70073 9.57775 1.38501 8.96403 1.29049C8.34994 1.19677 7.7253 1.33073 7.18592 1.67182C6.64654 2.0129 6.22222 2.54228 5.97805 3.17872L5.59752 4.15157L4.67305 3.91027C4.46173 3.85171 4.2451 3.82044 4.0274 3.81707C3.27091 3.81707 2.54527 4.15284 2.01161 4.75161C1.6139 5.19839 1.3433 5.76656 1.23381 6.38468C1.12433 7.0028 1.18085 7.64329 1.39628 8.22562C1.61171 8.80795 1.97643 9.30613 2.44458 9.65753C2.91273 10.0089 3.46341 10.1978 4.0274 10.2006H6.87739V11.4772H4.0274C3.46139 11.4829 2.90079 11.3538 2.38296 11.0984C1.86512 10.8431 1.40195 10.4673 1.02429 9.99628C0.453269 9.28583 0.100832 8.3898 0.01858 7.43939C-0.0636719 6.48897 0.128582 5.5341 0.567192 4.71459C0.857695 4.17164 1.24815 3.70386 1.71269 3.34223C2.17723 2.98061 2.70525 2.7334 3.26177 2.61698C3.81714 2.50208 4.38965 2.51867 4.93931 2.66932C5.28565 1.78331 5.88083 1.04741 6.63481 0.572899C7.38879 0.0983907 8.26057 -0.0889086 9.1183 0.0393288C9.97638 0.169055 10.7731 0.60823 11.3873 1.2901C12.0016 1.97197 12.3998 2.85925 12.5214 3.81707ZM10.621 8.73618L9.11944 7.05988V14H7.98356V7.10584L6.52314 8.73746L5.71522 7.83356L8.16754 5.09377H8.9766L11.4289 7.83356L10.621 8.73618Z"/>
</svg>
