<svg width="9" height="10" viewBox="0 0 9 10" fill="none" xmlns="http://www.w3.org/2000/svg">
<path fill-rule="evenodd" clip-rule="evenodd" d="M8.409 1.51172C8.51495 1.61768 8.51495 1.78947 8.409 1.89543L5.44255 4.86188C5.33659 4.96783 5.1648 4.96783 5.05884 4.86188C4.95288 4.75592 4.95288 4.58413 5.05884 4.47817L8.02529 1.51172C8.13125 1.40576 8.30304 1.40576 8.409 1.51172Z" fill="#6A92EF" stroke="#6A92EF" stroke-width="0.3" stroke-linecap="round" stroke-linejoin="round"/>
<path fill-rule="evenodd" clip-rule="evenodd" d="M6.49878 1.41414C6.49878 1.2643 6.62025 1.14282 6.7701 1.14282H8.50656C8.65641 1.14282 8.77788 1.2643 8.77788 1.41414V3.1506C8.77788 3.30045 8.65641 3.42192 8.50656 3.42192C8.35671 3.42192 8.23524 3.30045 8.23524 3.1506V1.68547H6.7701C6.62025 1.68547 6.49878 1.56399 6.49878 1.41414Z" fill="#6A92EF" stroke="#6A92EF" stroke-width="0.3" stroke-linecap="round" stroke-linejoin="round"/>
<path fill-rule="evenodd" clip-rule="evenodd" d="M1.66733 1.81015C2.15009 1.32739 2.87249 1.14282 3.80366 1.14282H4.52718C4.67703 1.14282 4.7985 1.2643 4.7985 1.41414C4.7985 1.56399 4.67703 1.68547 4.52718 1.68547H3.80366C2.92601 1.68547 2.38224 1.86266 2.05104 2.19386C1.71983 2.52507 1.54264 3.06883 1.54264 3.94648V6.11705C1.54264 6.9947 1.71983 7.53847 2.05104 7.86967C2.38224 8.20088 2.92601 8.37807 3.80366 8.37807H5.97423C6.85188 8.37807 7.39564 8.20088 7.72685 7.86967C8.05805 7.53847 8.23524 6.9947 8.23524 6.11705V5.39353C8.23524 5.24368 8.35672 5.12221 8.50657 5.12221C8.65641 5.12221 8.77789 5.24368 8.77789 5.39353V6.11705C8.77789 7.04822 8.59332 7.77062 8.11056 8.25338C7.6278 8.73614 6.9054 8.92071 5.97423 8.92071H3.80366C2.87249 8.92071 2.15009 8.73614 1.66733 8.25338C1.18457 7.77062 1 7.04822 1 6.11705V3.94648C1 3.01531 1.18457 2.29291 1.66733 1.81015Z" fill="#6A92EF" stroke="#6A92EF" stroke-width="0.3" stroke-linecap="round" stroke-linejoin="round"/>
</svg>
