<svg width="8" height="9" viewBox="0 0 8 9" fill="none" xmlns="http://www.w3.org/2000/svg">
<g clip-path="url(#clip0_549_24667)">
<path d="M6.88782 4.10905C6.88782 4.07716 6.88782 4.04526 6.88473 4.01655C6.88473 4.01336 6.88473 4.00698 6.88473 4.00379C6.79511 2.64501 6.16779 1.99751 4.85135 1.90502C4.84826 1.90502 4.84208 1.90502 4.83899 1.90502C4.80809 1.90502 4.77719 1.90183 4.74937 1.90183C4.70302 1.90183 4.65976 1.89545 4.6134 1.89545H2.53368C2.48732 1.89545 2.44406 1.89864 2.39771 1.90183C2.3668 1.90183 2.3359 1.90183 2.30809 1.90502C2.305 1.90502 2.29882 1.90502 2.29573 1.90502C0.979287 1.99751 0.35197 2.64501 0.262353 4.00379C0.262353 4.00698 0.262353 4.01336 0.262353 4.01655C0.262353 4.04845 0.259263 4.08034 0.259263 4.10905C0.259263 4.1569 0.253082 4.20155 0.253082 4.2494V6.38964C0.253082 6.43748 0.256173 6.48214 0.259263 6.52998C0.259263 6.56188 0.259263 6.59377 0.262353 6.62248C0.262353 6.62567 0.262353 6.63205 0.262353 6.63524C0.35197 7.99402 0.979287 8.64152 2.29573 8.73402C2.29882 8.73402 2.305 8.73402 2.30809 8.73402C2.33899 8.73402 2.36989 8.73721 2.39771 8.73721C2.44406 8.73721 2.48732 8.74359 2.53368 8.74359H4.60722C4.65358 8.74359 4.69684 8.7404 4.74319 8.73721C4.7741 8.73721 4.805 8.73721 4.83281 8.73402C4.8359 8.73402 4.84208 8.73402 4.84517 8.73402C6.16161 8.64152 6.78893 7.99402 6.87855 6.63524C6.87855 6.63205 6.87855 6.62567 6.87855 6.62248C6.87855 6.59058 6.88164 6.55869 6.88164 6.52998C6.88164 6.48214 6.88782 6.43748 6.88782 6.38964V4.2494C6.88782 4.20155 6.88473 4.1569 6.88164 4.10905H6.88782Z" fill="#6A92EF"/>
<path d="M7.74074 3.05328C7.74074 3.02138 7.74074 2.98949 7.73765 2.96078C7.73765 2.95759 7.73765 2.95121 7.73765 2.94802C7.64495 1.58605 7.02072 0.938555 5.70119 0.846056C5.6981 0.846056 5.69192 0.846056 5.68883 0.846056C5.65793 0.846056 5.62702 0.842866 5.59921 0.842866C5.55286 0.842866 5.5096 0.836487 5.46324 0.836487H3.38969C3.34334 0.836487 3.30008 0.839676 3.25372 0.842866C3.22282 0.842866 3.19192 0.842866 3.16411 0.846056C3.16102 0.846056 3.15484 0.846056 3.15175 0.846056C1.83222 0.938555 1.20799 1.58605 1.11837 2.94483C1.11837 2.94802 1.11837 2.9544 1.11837 2.95759C1.11837 2.98949 1.11528 3.02138 1.11528 3.05009C1.11528 3.09794 1.1091 3.14259 1.1091 3.19044V5.33068C1.1091 5.37852 1.11219 5.42318 1.11528 5.47102C1.11528 5.50292 1.11528 5.53481 1.11837 5.56352C1.11837 5.56671 1.11837 5.57309 1.11837 5.57628C1.20799 6.93506 1.83531 7.58256 3.15175 7.67506C3.15484 7.67506 3.16102 7.67506 3.16411 7.67506C3.19501 7.67506 3.22591 7.67825 3.25372 7.67825C3.30008 7.67825 3.34334 7.68463 3.38969 7.68463H5.46324C5.5096 7.68463 5.55286 7.68144 5.59921 7.67825C5.63011 7.67825 5.66102 7.67825 5.68883 7.67506C5.69192 7.67506 5.6981 7.67506 5.70119 7.67506C7.01763 7.58256 7.64495 6.93506 7.73456 5.57628C7.73456 5.57309 7.73456 5.56671 7.73456 5.56352C7.73456 5.53162 7.73765 5.49973 7.73765 5.47102C7.73765 5.42318 7.74383 5.37852 7.74383 5.33068V3.19044C7.74383 3.14259 7.74074 3.09794 7.73765 3.05009L7.74074 3.05328Z" fill="#0C4FFE"/>
<path d="M6.18634 2.57484C6.16162 2.51743 6.11836 2.46958 6.05964 2.44406C6.03183 2.43131 6.00093 2.42493 5.97003 2.42493H3.65544C3.52874 2.42493 3.42367 2.53337 3.42367 2.66415C3.42367 2.79492 3.52874 2.90337 3.65544 2.90337H5.41069L2.7191 5.68792C2.62948 5.78042 2.62948 5.93352 2.7191 6.02602C2.76545 6.07387 2.82417 6.09619 2.88288 6.09619C2.9416 6.09619 3.00031 6.07387 3.04666 6.02602L5.74135 3.24466V5.06275C5.74135 5.19353 5.84642 5.30198 5.97312 5.30198C6.09982 5.30198 6.20488 5.19353 6.20488 5.06275V2.66734C6.20488 2.63544 6.1987 2.60674 6.18634 2.57484Z" fill="white"/>
</g>
<defs>
<clipPath id="clip0_549_24667">
<rect width="7.5" height="7.91667" fill="white" transform="translate(0.25 0.833313)"/>
</clipPath>
</defs>
</svg>
