<svg width="16" height="16" viewBox="0 0 16 16" fill="none" xmlns="http://www.w3.org/2000/svg">
<path d="M7.33404 6.66699H8.66737V10.0003H7.33404V6.66699ZM7.33337 10.667H8.66671V12.0003H7.33337V10.667Z" fill="#FFC04E"/>
<path d="M9.17867 2.7998C8.94667 2.36313 8.49467 2.0918 8.00001 2.0918C7.50534 2.0918 7.05334 2.36313 6.82134 2.80046L1.92934 12.0425C1.82079 12.2454 1.76701 12.4732 1.77333 12.7032C1.77964 12.9333 1.84582 13.1578 1.96534 13.3545C2.08314 13.552 2.25043 13.7155 2.45071 13.8287C2.65098 13.9418 2.8773 14.0008 3.10734 13.9998H12.8927C13.3647 13.9998 13.792 13.7585 14.0353 13.3545C14.1547 13.1577 14.2207 12.9333 14.2271 12.7032C14.2334 12.4732 14.1797 12.2455 14.0713 12.0425L9.17867 2.7998ZM3.10734 12.6665L8.00001 3.42446L12.896 12.6665H3.10734Z" fill="#FFC04E"/>
</svg>
