<svg width="11" height="10" viewBox="0 0 11 10" fill="#EC5956" xmlns="http://www.w3.org/2000/svg">
<path d="M4.60008 0.325616C4.85074 -0.108539 5.47739 -0.108538 5.72805 0.325616L10.2399 8.1404C10.4906 8.57455 10.1773 9.11724 9.67593 9.11724H0.652203C0.150885 9.11724 -0.162439 8.57455 0.0882201 8.1404L4.60008 0.325616Z"/>
<path d="M5.16459 2.82324C5.27973 2.82324 5.39015 2.86898 5.47156 2.95039C5.55298 3.03181 5.59871 3.14223 5.59871 3.25736V5.8621C5.59871 5.97723 5.55298 6.08765 5.47156 6.16907C5.39015 6.25048 5.27973 6.29622 5.16459 6.29622C5.04945 6.29622 4.93903 6.25048 4.85762 6.16907C4.77621 6.08765 4.73047 5.97723 4.73047 5.8621V3.25736C4.73047 3.14223 4.77621 3.03181 4.85762 2.95039C4.93903 2.86898 5.04945 2.82324 5.16459 2.82324Z" fill="white"/>
<path d="M5.16459 7.16309C5.04945 7.16309 4.93903 7.20882 4.85762 7.29024C4.77621 7.37165 4.73047 7.48207 4.73047 7.59721C4.73047 7.71234 4.77621 7.82277 4.85762 7.90418C4.93903 7.98559 5.04945 8.03133 5.16459 8.03133C5.27973 8.03133 5.39015 7.98559 5.47156 7.90418C5.55298 7.82277 5.59871 7.71234 5.59871 7.59721C5.59871 7.48207 5.55298 7.37165 5.47156 7.29024C5.39015 7.20882 5.27973 7.16309 5.16459 7.16309Z" fill="white"/>
</svg>
