<svg width="11" height="11" viewBox="0 0 12 12" fill="#FFC04E" xmlns="http://www.w3.org/2000/svg">
    <path fill-rule="evenodd" clip-rule="evenodd"
        d="M4 0.5C3.93327 0.500007 3.86722 0.51337 3.80573 0.539304C3.74425 0.565237 3.68858 0.603215 3.642 0.651L0.642 3.729C0.550968 3.82237 0.500013 3.9476 0.5 4.078V8C0.500028 8.1326 0.552725 8.25975 0.6465 8.3535L3.6465 11.3535C3.74025 11.4473 3.8674 11.5 4 11.5H8C8.1326 11.5 8.25975 11.4473 8.3535 11.3535L11.3535 8.3535C11.4473 8.25975 11.5 8.1326 11.5 8V4.078C11.5 3.9476 11.449 3.82237 11.358 3.729L8.358 0.651C8.31142 0.603215 8.25575 0.565237 8.19427 0.539304C8.13278 0.51337 8.06673 0.500007 8 0.5H4ZM4 5.5C3.86739 5.5 3.74021 5.55268 3.64645 5.64645C3.55268 5.74021 3.5 5.86739 3.5 6C3.5 6.13261 3.55268 6.25979 3.64645 6.35355C3.74021 6.44732 3.86739 6.5 4 6.5H8C8.13261 6.5 8.25979 6.44732 8.35355 6.35355C8.44732 6.25979 8.5 6.13261 8.5 6C8.5 5.86739 8.44732 5.74021 8.35355 5.64645C8.25979 5.55268 8.13261 5.5 8 5.5H4Z">
    </path>
</svg>