<svg width="21" height="20" viewBox="0 0 21 20" fill="none" xmlns="http://www.w3.org/2000/svg">
<g opacity="0.5">
<path fill-rule="evenodd" clip-rule="evenodd" d="M1.375 5.00004C1.375 3.27415 2.77411 1.87504 4.5 1.87504L8.93794 1.87502C9.5992 1.87479 10.0554 1.87464 10.4755 1.99398C11.0338 2.15257 11.5369 2.46349 11.9284 2.89189C12.223 3.21427 12.4269 3.6224 12.7224 4.21393L12.8029 4.37505H14.9389C15.5025 4.37505 15.9571 4.37504 16.3271 4.40029C16.7076 4.42625 17.044 4.48097 17.3626 4.61293C18.1283 4.9301 18.7366 5.53845 19.0538 6.30417C19.1857 6.62273 19.2405 6.95915 19.2664 7.33962C19.2917 7.70962 19.2917 8.16425 19.2917 8.72785V13.7723C19.2917 13.7856 19.2917 13.7989 19.2917 13.8122V14.1667C19.2917 14.1747 19.2915 14.1826 19.2912 14.1904C19.29 14.5667 19.2851 14.8867 19.2664 15.1605C19.2405 15.5409 19.1857 15.8774 19.0538 16.1959C18.7366 16.9616 18.1283 17.57 17.3626 17.8872C17.044 18.0191 16.7076 18.0739 16.3271 18.0998C15.9571 18.1251 15.5025 18.1251 14.939 18.1251H5.72785C5.16432 18.1251 4.70954 18.1251 4.33957 18.0998C3.9591 18.0739 3.62268 18.0191 3.30411 17.8872C2.5384 17.57 1.93005 16.9616 1.61288 16.1959C1.48092 15.8774 1.4262 15.5409 1.40024 15.1605C1.37499 14.7905 1.375 14.3359 1.375 13.7723V5.00004ZM10.134 3.19641C9.90273 3.13072 9.63362 3.12504 8.84904 3.12504H4.5C3.68361 3.12504 2.98909 3.64679 2.73169 4.37504H11.4028C11.2224 4.0258 11.1238 3.86437 11.0057 3.73515C10.7708 3.47811 10.4689 3.29156 10.134 3.19641ZM18.0417 13.5417V10.6251H14.9167C14.1113 10.6251 13.4583 11.278 13.4583 12.0834C13.4583 12.8888 14.1113 13.5417 14.9167 13.5417H18.0417ZM18.0417 9.37505H14.9167C13.4209 9.37505 12.2083 10.5876 12.2083 12.0834C12.2083 13.5792 13.4209 14.7917 14.9167 14.7917H18.0329C18.0297 14.894 18.0253 14.988 18.0193 15.0754C17.9977 15.3922 17.9573 15.5767 17.8989 15.7176C17.7086 16.177 17.3436 16.542 16.8842 16.7323C16.7433 16.7907 16.5588 16.8311 16.242 16.8527C15.9196 16.8747 15.5076 16.8751 14.9167 16.8751H5.75C5.15902 16.8751 4.74709 16.8747 4.42466 16.8527C4.10784 16.8311 3.92333 16.7907 3.78247 16.7323C3.32304 16.542 2.95803 16.177 2.76773 15.7176C2.70938 15.5767 2.66895 15.3922 2.64734 15.0754C2.62534 14.753 2.625 14.341 2.625 13.7501V5.62505H14.9167C15.5076 5.62505 15.9196 5.62539 16.242 5.64739C16.5588 5.66901 16.7433 5.70943 16.8842 5.76778C17.3436 5.95808 17.7086 6.32309 17.8989 6.78252C17.9573 6.92339 17.9977 7.10789 18.0193 7.42471C18.0413 7.74714 18.0417 8.15907 18.0417 8.75005V9.37505Z" fill="#BDBDBD"/>
</g>
</svg>
