<svg width="15" height="12" viewBox="0 0 15 12" fill="#28ADAD" xmlns="http://www.w3.org/2000/svg"
    class="BaseButton_rightIcon__P7T6k">
    <path d="M10.167 6H11.5003V8.66667H10.167V6Z"></path>
    <path
        d="M12.8335 2.66667V1.33333C12.8335 0.598 12.2355 0 11.5002 0H2.8335C1.73083 0 0.833496 0.897333 0.833496 2V10C0.833496 11.4673 2.0295 12 2.8335 12H12.8335C13.5688 12 14.1668 11.402 14.1668 10.6667V4C14.1668 3.26467 13.5688 2.66667 12.8335 2.66667ZM2.8335 1.33333H11.5002V2.66667H2.8335C2.66184 2.65899 2.49977 2.5854 2.38101 2.46121C2.26226 2.33703 2.19598 2.17182 2.19598 2C2.19598 1.82818 2.26226 1.66297 2.38101 1.53879C2.49977 1.4146 2.66184 1.34101 2.8335 1.33333ZM12.8335 10.6667H2.8415C2.5335 10.6587 2.16683 10.5367 2.16683 10V3.87667C2.37616 3.952 2.59816 4 2.8335 4H12.8335V10.6667Z">
    </path>
</svg>