<svg width="12" height="12" viewBox="0 0 12 12" fill="#6B6B6B" xmlns="http://www.w3.org/2000/svg">
<path d="M7.03067 5.62497L11.4112 1.24431C11.6963 0.959366 11.6963 0.498652 11.4112 0.213708C11.1263 -0.0712359 10.6655 -0.0712359 10.3806 0.213708L5.99994 4.59437L1.61941 0.213708C1.33433 -0.0712359 0.873752 -0.0712359 0.588808 0.213708C0.303731 0.498652 0.303731 0.959366 0.588808 1.24431L4.96933 5.62497L0.588808 10.0056C0.303731 10.2906 0.303731 10.7513 0.588808 11.0362C0.730813 11.1784 0.917528 11.2498 1.10411 11.2498C1.29069 11.2498 1.47727 11.1784 1.61941 11.0362L5.99994 6.65557L10.3806 11.0362C10.5227 11.1784 10.7093 11.2498 10.8959 11.2498C11.0825 11.2498 11.2691 11.1784 11.4112 11.0362C11.6963 10.7513 11.6963 10.2906 11.4112 10.0056L7.03067 5.62497Z" />
</svg>
